<svg width="76" height="76" viewBox="0 0 76 76" fill="none" xmlns="http://www.w3.org/2000/svg">
<rect width="76" height="76" rx="38" fill="#0E0E0F" fill-opacity="0.05"/>
<g clip-path="url(#clip0_67_1915)">
<path d="M33.4108 22.4173C33.8443 20.903 34.7823 20.1007 36.0362 20.13C37.2902 20.1593 38.265 21.0049 38.5773 22.4548C38.8825 22.0613 39.1627 21.7263 39.4085 21.3715C39.671 20.9967 39.9013 20.5996 40.1483 20.2143C40.539 19.6041 41.1351 19.3699 41.7775 19.5702C42.459 19.7833 42.8034 20.3127 42.7773 21.04C42.765 21.2754 42.8056 21.5105 42.896 21.7287C43.4505 22.9491 44.0276 24.1601 44.619 25.4214C45.1379 24.659 45.8171 24.2022 46.7243 24.1413C47.3372 24.1008 47.9435 24.287 48.4247 24.6636C49.586 25.5327 49.7 26.8221 48.731 28.477C49.0433 28.4571 49.3248 28.4349 49.6014 28.422C50.3816 28.3857 50.8898 28.7511 51.1213 29.4842C51.171 29.6274 51.2593 29.7545 51.3766 29.852C52.025 30.3896 52.1853 31.1063 51.7329 31.836C50.4635 33.8926 49.1906 35.948 47.8773 37.9777C47.4122 38.6797 47.0602 39.4485 46.8335 40.2568C45.8714 43.7897 44.688 47.2603 43.2902 50.6487C42.9946 51.3608 42.4828 51.6699 41.7312 51.6044C41.5396 51.5901 41.3531 51.5365 41.1837 51.4472C41.0142 51.3578 40.8656 51.2346 40.7471 51.0854C40.6287 50.9361 40.5431 50.7642 40.4958 50.5805C40.4485 50.3968 40.4406 50.2054 40.4725 50.0186C40.5912 49.2187 40.71 48.4176 40.856 47.4865C40.7135 47.7207 40.6328 47.8519 40.5592 47.9819C40.0628 48.8521 39.5819 49.7293 39.0678 50.5878C38.7115 51.1898 38.0489 51.3678 37.3674 51.0973C37.0727 50.9896 36.8293 50.7777 36.6844 50.5027C36.5395 50.2278 36.5036 49.9095 36.5837 49.6098C37.0337 47.6094 37.5229 45.6184 37.9433 43.6122C38.2745 42.0335 38.5097 40.4348 38.2508 38.8104C38.1767 38.3615 38.0671 37.919 37.9231 37.4869C37.5063 36.2291 36.7356 35.1598 36.0137 34.0366C34.3418 36.215 33.3372 38.5363 33.6768 41.3144C34.0105 44.0385 34.7218 46.6784 35.3487 49.3381C35.6266 50.5093 34.8987 51.3737 33.7766 51.1851C33.342 51.1113 33.0546 50.8536 32.8468 50.4824C32.3718 49.6368 31.8913 48.792 31.4053 47.9479C31.3352 47.8308 31.2604 47.7078 31.1298 47.4912C31.2592 48.3731 31.3732 49.1425 31.486 49.9132C31.6048 50.733 31.2248 51.3572 30.472 51.5528C29.6942 51.7578 28.9984 51.4193 28.6908 50.6487C28.1327 49.2292 27.5473 47.8168 27.0652 46.3727C26.3528 44.2247 25.7258 42.0463 25.0264 39.8937C24.8353 39.3141 24.5758 38.7587 24.2534 38.2388C22.9472 36.1202 21.6007 34.0226 20.2886 31.9145C19.7732 31.0841 19.9122 30.4493 20.6602 29.8063C20.7513 29.7205 20.818 29.6127 20.8538 29.4936C21.0913 28.7312 21.5971 28.3751 22.4046 28.4185C22.6729 28.4325 22.9413 28.4548 23.2358 28.4747C22.2751 26.65 22.4248 25.4109 23.6822 24.5688C24.8827 23.763 26.1842 24.0488 27.3716 25.3886C27.9819 24.0898 28.5934 22.8003 29.1883 21.505C29.2323 21.3571 29.2417 21.2013 29.2157 21.0494C29.1705 20.3315 29.5054 19.795 30.1466 19.5795C30.8175 19.3535 31.4219 19.5795 31.8292 20.1874C32.2163 20.773 32.6034 21.3586 32.9988 21.9348C33.1247 22.1023 33.2636 22.2416 33.4108 22.4173ZM41.6231 50.1814C41.6647 50.2353 41.7418 50.439 41.8475 50.4484C41.9663 50.4601 42.1147 50.3149 42.2382 50.2235C42.2774 50.1942 42.2821 50.1205 42.3035 50.0678C43.6491 46.7815 44.7919 43.418 45.7257 39.9956C45.9891 39.0493 46.4019 38.1498 46.9487 37.33C48.2371 35.353 49.4637 33.3362 50.7176 31.337C50.8518 31.1215 50.9337 30.9072 50.6606 30.7514C50.4231 30.6179 50.2616 30.7433 50.118 30.9424C49.8163 31.3605 49.5147 31.7809 49.1846 32.1768C48.1634 33.4007 47.1387 34.6246 45.8112 35.5463C44.0811 36.7479 41.597 37.0243 39.8123 35.0591C39.0511 34.2205 38.2033 33.4581 37.3947 32.6617C37.3234 32.5914 37.2617 32.4883 37.175 32.4602C37.042 32.4169 36.8259 32.363 36.7641 32.4262C36.7167 32.4881 36.6827 32.5589 36.6641 32.6342C36.6455 32.7095 36.6428 32.7878 36.6561 32.8643C36.681 33.0071 36.8128 33.1313 36.8936 33.266C37.4956 34.272 38.1558 35.2488 38.683 36.2911C39.7576 38.4227 39.6757 40.6901 39.2387 42.9458C38.8231 45.0973 38.2888 47.2277 37.8328 49.3698C37.7853 49.5899 37.8506 49.8382 37.8637 50.0654C38.0287 49.8956 38.2389 49.7527 38.3517 49.5548C39.3646 47.798 40.362 46.0272 41.3607 44.2599C41.5376 43.946 41.7858 43.7762 42.1432 43.9167C42.4792 44.0479 42.5398 44.3313 42.4769 44.6616C42.4044 45.0539 42.3486 45.4498 42.2881 45.8433C42.0719 47.2511 41.8558 48.66 41.6231 50.1814ZM30.2368 43.8664C30.3425 43.9765 30.5634 44.1357 30.6869 44.3489C31.7069 46.1209 32.7055 47.9023 33.7172 49.6813C33.753 49.7743 33.8039 49.8609 33.868 49.9378C33.9458 50.0071 34.0469 50.0455 34.1518 50.0455C34.2005 50.0455 34.2622 49.8991 34.2705 49.8113C34.2656 49.7123 34.2464 49.6145 34.2135 49.5208C33.6685 46.9009 33.0558 44.2927 32.5998 41.6587C32.2305 39.526 32.5678 37.4506 33.6935 35.5498C34.1886 34.7124 34.7182 33.8961 35.2371 33.0716C35.3677 32.8631 35.5458 32.6523 35.2822 32.4309C35.0186 32.2096 34.8369 32.4462 34.6695 32.6101C33.7196 33.5318 32.7851 34.4653 31.8328 35.3823C30.4969 36.6706 28.9378 36.7303 27.2885 36.1248C26.2625 35.7477 25.4325 35.0708 24.7212 34.2709C23.7464 33.1817 22.8214 32.0456 21.8845 30.926C21.7254 30.7362 21.5698 30.6179 21.3383 30.7561C21.1067 30.8943 21.1483 31.1075 21.2777 31.3089C21.3157 31.3698 21.3489 31.4331 21.3869 31.494C22.6753 33.5389 23.9815 35.5744 25.2413 37.6368C25.6219 38.2551 25.9298 38.914 26.1592 39.6009C26.6995 41.2406 27.1222 42.9118 27.6779 44.5421C28.3203 46.4301 29.047 48.2899 29.7583 50.1544C29.8106 50.2903 30.035 50.3617 30.1799 50.4636C30.2416 50.3114 30.3663 50.1544 30.3532 50.008C30.3152 49.5548 30.2262 49.1062 30.1561 48.6553C29.9424 47.2909 29.7251 45.9253 29.5185 44.5562C29.4543 44.1756 29.7239 43.8582 30.2368 43.8664ZM34.2159 31.4518C34.8168 31.1462 35.3535 31.1274 35.8783 31.4448C35.9078 31.4625 35.9407 31.4736 35.975 31.4775C36.0092 31.4813 36.0439 31.4778 36.0766 31.4671C36.624 31.1157 37.1904 31.1637 37.7758 31.4202C37.796 31.2972 37.8079 31.2141 37.8245 31.1321C38.0489 30.0183 38.1891 28.8799 38.518 27.7977C39.2091 25.5268 40.3834 23.4538 41.4367 21.334C41.4997 21.2387 41.5473 21.1344 41.578 21.0248C41.5744 20.9123 41.5536 20.8009 41.5162 20.6945C41.3975 20.7226 41.2431 20.7203 41.1481 20.7894C41.0531 20.8585 41.0092 21.0014 40.9439 21.1115C40.2172 22.3213 39.3563 23.421 38.2603 24.3334C36.9078 25.4589 35.0922 25.4589 33.7386 24.3334C32.6426 23.421 31.7817 22.3213 31.055 21.1115C30.9885 21.0014 30.9457 20.8597 30.8496 20.7894C30.7534 20.7191 30.6121 20.7215 30.485 20.691C30.4601 20.8011 30.3912 20.9252 30.4185 21.0178C30.4847 21.1905 30.5641 21.3581 30.656 21.519C31.5466 23.4468 32.4633 25.3628 33.3158 27.307C33.8846 28.5988 34.0711 29.9879 34.2159 31.4518ZM49.8223 29.5978C49.3639 29.5978 48.851 29.6166 48.338 29.5978C46.3122 29.5124 44.7638 28.7312 43.9564 26.7694C43.4411 25.5186 42.8295 24.31 42.2596 23.0767C42.2049 22.9596 42.1408 22.8425 42.072 22.7254C41.6896 23.1938 41.6682 23.6424 41.7976 24.1905C42.2322 26.0304 42.6003 27.8879 42.972 29.7419C43.0789 30.2795 43.1145 30.8299 43.181 31.364C44.8957 31.3125 45.861 32.1311 46.2184 33.875C47.1803 32.7308 48.0518 31.6896 48.9258 30.6507C49.2226 30.29 49.5266 29.9422 49.8223 29.5978ZM22.1362 29.5861C22.3951 29.8543 22.6373 30.0757 22.8487 30.3251C23.1408 30.6765 23.3866 31.07 23.6799 31.4167C24.3579 32.2061 25.0573 32.9779 25.7828 33.7977C26.4015 31.8793 26.9702 31.4354 28.8202 31.3382C28.843 31.2735 28.8597 31.2068 28.8701 31.1391C29.0565 28.744 29.5826 26.4111 30.2226 24.1027C30.3758 23.5487 30.2452 23.1575 29.9376 22.6973C29.8569 22.86 29.7916 22.983 29.7334 23.1095C29.1001 24.4673 28.4668 25.8251 27.8335 27.1829C27.2992 28.3318 26.424 29.113 25.163 29.3495C24.3056 29.51 23.4186 29.5147 22.5506 29.5838C22.4117 29.5955 22.2728 29.5861 22.1362 29.5861ZM30.9517 34.6597C31.6546 33.9687 32.3635 33.2847 33.0499 32.5797C33.1365 32.4918 33.1306 32.2881 33.1199 32.1417C33.0807 31.6451 33.0226 31.1497 32.9667 30.6543C32.7483 28.7206 32.0358 26.9451 31.1749 25.1684C31.1294 25.237 31.0919 25.3105 31.0633 25.3875C30.7071 27.2731 30.3508 29.1575 30.0207 31.0454C29.9388 31.5069 29.9246 31.9718 30.3948 32.2974C30.5135 32.3818 30.5848 32.5457 30.6608 32.6828C31.0039 33.2929 31.0324 33.9453 30.9517 34.6597ZM40.8857 25.1438C40.8428 25.1961 40.8032 25.2508 40.767 25.3078C39.6626 27.4838 38.9977 29.7782 38.8896 32.2178C38.89 32.3947 38.9549 32.5655 39.0725 32.6991C39.5154 33.1676 39.9833 33.6138 40.4464 34.0636C40.6518 34.2638 40.8679 34.4512 41.1588 34.7171C40.9011 33.5892 41.1303 32.7155 41.8974 31.9859C41.9443 31.9281 41.979 31.8617 41.9994 31.7905C42.0198 31.7193 42.0255 31.6447 42.0161 31.5713C41.8368 30.2338 41.6599 28.894 41.4402 27.5623C41.2977 26.7683 41.0792 25.9894 40.8857 25.1438ZM23.7345 26.6195C23.7226 26.9863 23.858 27.3427 24.1113 27.6114C24.3646 27.8801 24.7153 28.0393 25.087 28.0542C25.4591 28.0574 25.8181 27.9185 26.0887 27.6666C26.3594 27.4147 26.5208 27.0693 26.5392 26.7027C26.5448 26.3361 26.4048 25.9818 26.1493 25.7155C25.8937 25.4492 25.5427 25.292 25.1713 25.2773C24.987 25.2701 24.8031 25.2994 24.6305 25.3633C24.4579 25.4273 24.3 25.5247 24.1661 25.6497C24.0322 25.7748 23.925 25.9251 23.8509 26.0916C23.7768 26.2582 23.7372 26.4377 23.7345 26.6195ZM43.5824 32.5036C43.2108 32.5045 42.8546 32.6501 42.5913 32.9086C42.3281 33.1672 42.1789 33.5179 42.1764 33.8844C42.1764 34.6175 42.8224 35.2605 43.5503 35.2617C43.7382 35.2661 43.9251 35.2333 44.0999 35.1652C44.2747 35.0971 44.4339 34.9951 44.5681 34.8653C44.7023 34.7355 44.8087 34.5804 44.8811 34.4093C44.9534 34.2382 44.9903 34.0545 44.9895 33.8691C44.9908 33.6876 44.9551 33.5076 44.8846 33.3398C44.8141 33.1721 44.7101 33.02 44.5789 32.8927C44.4476 32.7653 44.2918 32.6652 44.1206 32.5984C43.9494 32.5316 43.7664 32.4993 43.5824 32.5036ZM48.2715 26.6839C48.2775 26.5021 48.2465 26.3209 48.1804 26.1511C48.1142 25.9813 48.0141 25.8263 47.8862 25.6953C47.7582 25.5642 47.6049 25.4598 47.4353 25.3883C47.2657 25.3167 47.0833 25.2794 46.8988 25.2785C46.5272 25.2765 46.1695 25.4178 45.9019 25.6723C45.6344 25.9267 45.4783 26.2742 45.4668 26.6406C45.4689 27.0137 45.6194 27.371 45.8859 27.6358C46.1523 27.9006 46.5135 28.0517 46.8917 28.0566C47.2572 28.0487 47.6053 27.9012 47.8627 27.6452C48.1201 27.3891 48.2667 27.0445 48.2715 26.6839ZM28.4415 32.5036C28.2572 32.4971 28.0735 32.5273 27.9012 32.5922C27.729 32.6572 27.5717 32.7556 27.4388 32.8817C27.3059 33.0078 27.2 33.1589 27.1275 33.3261C27.055 33.4933 27.0172 33.6732 27.0165 33.8551C27.0142 34.0403 27.0494 34.2241 27.1201 34.3957C27.1909 34.5673 27.2958 34.7232 27.4286 34.8541C27.5614 34.9851 27.7194 35.0885 27.8933 35.1583C28.0673 35.2281 28.2537 35.2629 28.4415 35.2605C29.1705 35.2675 29.8129 34.6374 29.8296 33.8984C29.8321 33.5316 29.687 33.1787 29.4261 32.9172C29.1652 32.6557 28.8098 32.507 28.4379 32.5036H28.4415ZM37.4042 22.6656C37.3984 22.3062 37.2506 21.9632 36.9922 21.7096C36.7339 21.4561 36.3854 21.312 36.021 21.308C35.6566 21.304 35.305 21.4405 35.041 21.6884C34.7771 21.9363 34.6216 22.276 34.6078 22.6352C34.6007 22.8194 34.6311 23.003 34.6971 23.1754C34.7632 23.3478 34.8637 23.5055 34.9925 23.6389C35.1214 23.7724 35.276 23.8791 35.4474 23.9526C35.6187 24.0262 35.8033 24.0651 35.9901 24.0672C36.177 24.0692 36.3623 24.0343 36.5353 23.9645C36.7082 23.8947 36.8652 23.7914 36.9971 23.6608C37.1289 23.5301 37.2328 23.3748 37.3027 23.2038C37.3727 23.0329 37.4071 22.8499 37.4042 22.6656Z" fill="black"/>
<path d="M32.4454 56.2386C32.2234 56.1999 31.879 56.1554 31.5442 56.0758C31.2093 55.9961 31.0312 55.7537 31.1155 55.407C31.1998 55.0603 31.4599 54.9304 31.8066 54.9784C32.1058 55.0194 32.4003 55.0697 32.7007 55.1306C33.0403 55.1997 33.2517 55.4047 33.2101 55.7595C33.1686 56.1144 32.9204 56.2655 32.4454 56.2386Z" fill="black"/>
<path d="M39.5332 56.246C39.0701 56.2589 38.8421 56.1055 38.7958 55.7776C38.7471 55.4262 38.9538 55.2119 39.2922 55.1393C39.6014 55.0702 39.9141 55.0174 40.2291 54.9812C40.5782 54.9413 40.8311 55.0983 40.8988 55.4414C40.9629 55.767 40.8014 56.0024 40.4725 56.0785C40.121 56.1582 39.7648 56.2062 39.5332 56.246Z" fill="black"/>
<path d="M36.0386 55.3719C36.2108 55.3719 36.3841 55.3626 36.5563 55.3719C36.6973 55.3811 36.8296 55.4424 36.9269 55.5435C37.0241 55.6447 37.0791 55.7783 37.0809 55.9176C37.0827 56.057 37.0312 56.1919 36.9366 56.2955C36.842 56.3991 36.7113 56.4636 36.5706 56.4764C36.197 56.5033 35.822 56.5033 35.4484 56.4764C35.3752 56.4768 35.3027 56.4619 35.2358 56.4328C35.1688 56.4036 35.1088 56.3608 35.0598 56.3071C35.0108 56.2535 34.9738 56.1902 34.9514 56.1215C34.9289 56.0527 34.9215 55.9801 34.9295 55.9083C34.9378 55.5851 35.1314 55.3848 35.4769 55.3684C35.6634 55.3591 35.851 55.3684 36.0386 55.3684V55.3719Z" fill="black"/>
<path d="M29.573 54.7595C29.573 55.2396 29.2441 55.5184 28.8772 55.4188C28.5443 55.3267 28.2179 55.2132 27.9 55.0792C27.6055 54.955 27.4713 54.6821 27.6043 54.4151C27.6922 54.2371 27.9736 54.0134 28.1327 54.038C28.5539 54.1191 28.9624 54.255 29.3474 54.442C29.4745 54.4983 29.5339 54.7009 29.573 54.7595Z" fill="black"/>
<path d="M44.4373 54.6144C44.4159 55.118 43.9362 55.1332 43.58 55.2703C43.2237 55.4073 42.8746 55.6076 42.5517 55.2269C42.4963 55.1649 42.4562 55.0911 42.4346 55.0112C42.4129 54.9313 42.4104 54.8476 42.4271 54.7666C42.4437 54.6856 42.4792 54.6095 42.5307 54.5443C42.5822 54.4791 42.6483 54.4265 42.7238 54.3907C43.0623 54.232 43.417 54.1095 43.7818 54.0253C44.1487 53.9421 44.4409 54.2127 44.4373 54.6144Z" fill="black"/>
<path d="M25.1415 52.3882C25.5856 52.7079 25.9977 52.9609 26.3444 53.2818C26.4335 53.3649 26.3871 53.7268 26.2755 53.8451C26.1639 53.9634 25.8481 54.0794 25.6818 54.0243C25.342 53.9045 25.0296 53.7194 24.7627 53.4797C24.6941 53.3976 24.6456 53.301 24.6209 53.1975C24.5961 53.0939 24.5959 52.9861 24.6203 52.8824C24.6773 52.7079 24.9219 52.5896 25.1415 52.3882Z" fill="black"/>
<path d="M46.8632 52.3892C47.0864 52.5894 47.3381 52.7101 47.3797 52.8799C47.3991 52.9904 47.3938 53.1038 47.364 53.212C47.3343 53.3203 47.2809 53.4208 47.2075 53.5065C46.9663 53.732 46.6782 53.903 46.3633 54.0077C46.2593 54.0335 46.1507 54.0351 46.046 54.0123C45.9413 53.9896 45.8434 53.9431 45.76 53.8766C45.6413 53.7489 45.5724 53.3695 45.6615 53.291C46.0035 52.9595 46.4143 52.7089 46.8632 52.3892Z" fill="black"/>
<path d="M22.2965 42.7173C22.2965 42.3812 23.0469 41.6187 23.3782 41.6129C23.7855 41.6058 24.1109 42.0813 23.8829 42.4327C23.6783 42.7384 23.4173 43.0034 23.1134 43.2139C22.7714 43.4434 22.2929 43.1284 22.2965 42.7173Z" fill="black"/>
<path d="M48.0613 42.0733C48.1171 41.9971 48.1978 41.7781 48.3475 41.7149C48.4425 41.6768 48.5447 41.6593 48.6472 41.6638C48.7496 41.6682 48.8499 41.6944 48.9412 41.7406C49.2104 41.928 49.4386 42.167 49.6121 42.4433C49.6608 42.5303 49.6853 42.6285 49.6828 42.7278C49.6804 42.8271 49.6512 42.9241 49.5983 43.0086C49.5453 43.0931 49.4705 43.1622 49.3816 43.2088C49.2926 43.2554 49.1926 43.2778 49.092 43.2737C48.7464 43.2889 48.0625 42.5253 48.0613 42.0733Z" fill="black"/>
<path d="M22.2965 51.1769C22.2858 50.7635 22.7715 50.4414 23.1146 50.678C23.421 50.8905 23.6834 51.1588 23.8876 51.4685C24.1133 51.8199 23.7689 52.2942 23.3569 52.2696C23.0291 52.2567 22.3096 51.5025 22.2965 51.1769Z" fill="black"/>
<path d="M48.0613 51.7041C48.0613 51.3633 48.7476 50.6254 49.0932 50.5997C49.5099 50.5681 49.8602 51.0307 49.6382 51.3797C49.4383 51.6918 49.1814 51.9646 48.8806 52.1843C48.5339 52.4337 48.0637 52.1398 48.0613 51.7041Z" fill="black"/>
<path d="M20.8561 48.9328C21.0271 48.7595 21.1625 48.5065 21.3465 48.4644C21.4601 48.4509 21.5753 48.4628 21.6836 48.499C21.7919 48.5353 21.8905 48.5951 21.9723 48.674C22.1599 48.8925 22.2773 49.1612 22.3096 49.4458C22.3297 49.6402 22.1908 49.9459 22.0293 50.0314C21.8678 50.1169 21.4973 50.07 21.3857 49.9412C21.1649 49.68 21.0533 49.3287 20.8561 48.9328Z" fill="black"/>
<path d="M22.4354 44.2813C22.2383 44.6748 22.1267 45.032 21.8999 45.2909C21.7871 45.4209 21.4142 45.4665 21.2516 45.3799C21.0889 45.2932 20.9642 44.9852 20.9844 44.7943C21.0178 44.5109 21.1346 44.2434 21.3204 44.0248C21.4013 43.9457 21.4993 43.8858 21.6071 43.8494C21.7149 43.8131 21.8296 43.8014 21.9426 43.8152C22.1302 43.8561 22.2668 44.1091 22.4354 44.2813Z" fill="black"/>
<path d="M51.1498 44.9519C50.9765 45.1276 50.8399 45.3805 50.6558 45.4204C50.5416 45.4328 50.426 45.42 50.3173 45.383C50.2087 45.3459 50.1098 45.2855 50.0277 45.206C49.8394 44.9881 49.7212 44.7198 49.6881 44.4354C49.6703 44.2422 49.8068 43.9376 49.9755 43.8498C50.1441 43.762 50.505 43.8135 50.6167 43.9435C50.8411 44.2047 50.9539 44.5595 51.1498 44.9519Z" fill="black"/>
<path d="M50.5822 48.3745C50.701 48.4787 50.9088 48.583 51.0026 48.7469C51.1902 49.0749 50.777 49.9603 50.4089 50.0915C50.0859 50.2086 49.618 49.9743 49.681 49.657C49.7605 49.247 50.0111 48.8676 50.2106 48.4858C50.245 48.4272 50.397 48.4272 50.5822 48.3745Z" fill="black"/>
<path d="M20.5462 46.9232C20.5569 46.7827 20.5141 46.5953 20.5889 46.5086C20.7445 46.3329 20.9665 46.094 21.1553 46.0987C21.3441 46.1034 21.5816 46.3505 21.6707 46.5484C21.7597 46.7464 21.7146 47.0169 21.7004 47.2629C21.6802 47.6142 21.4629 47.8262 21.115 47.8157C20.7908 47.8063 20.5972 47.5908 20.5604 47.2652C20.5545 47.1517 20.5545 47.0379 20.5604 46.9244L20.5462 46.9232Z" fill="black"/>
<path d="M51.449 46.9281C51.449 47.0277 51.449 47.1272 51.449 47.2268C51.4241 47.5781 51.2329 47.8042 50.8874 47.8124C50.5418 47.8206 50.3281 47.6098 50.3032 47.2561C50.2931 47.0575 50.2931 46.8585 50.3032 46.6599C50.3162 46.3086 50.5038 46.0978 50.8565 46.0661C51.17 46.0369 51.4253 46.3074 51.4502 46.6681C51.455 46.7525 51.449 46.8426 51.449 46.9281Z" fill="black"/>
</g>
<defs>
<clipPath id="clip0_67_1915">
<rect width="32" height="37" fill="white" transform="translate(20 19.5)"/>
</clipPath>
</defs>
</svg>
