<svg width="76" height="75" viewBox="0 0 76 75" fill="none" xmlns="http://www.w3.org/2000/svg">
<rect width="76" height="75" rx="37.5" fill="#0E0E0F" fill-opacity="0.05"/>
<g clip-path="url(#clip0_67_1954)">
<path d="M46.1706 51.8205C45.9096 52.8192 45.6542 53.7937 45.4001 54.767C45.3426 54.9841 45.3253 55.2219 45.2218 55.4124C45.1068 55.626 44.9424 55.8743 44.7376 55.9655C44.4398 56.0913 44.227 55.85 44.0752 55.5868C43.1199 53.9196 42.1615 52.2527 41.2 50.5862L40.3363 49.0853C38.9563 50.495 36.9195 50.4061 35.6625 49.0783L32.8471 53.9727C32.5389 54.5072 32.2284 55.0407 31.9271 55.5787C31.7787 55.8408 31.5694 56.0879 31.2681 55.962C31.1556 55.9069 31.0551 55.8299 30.9724 55.7356C30.8897 55.6412 30.8264 55.5314 30.7862 55.4124C30.4757 54.3502 30.2112 53.273 29.9352 52.2015C29.9041 52.0861 29.8616 51.9706 29.8133 51.8113L26.769 52.653C26.5666 52.7084 26.3642 52.81 26.1629 52.8088C25.9617 52.8077 25.6397 52.773 25.5408 52.6333C25.4832 52.5303 25.45 52.4154 25.4439 52.2975C25.4377 52.1796 25.4586 52.0618 25.5051 51.9533C26.0686 50.9026 26.6782 49.875 27.2728 48.8428C27.7328 48.0346 28.2032 47.2402 28.6528 46.4297C28.7277 46.2709 28.7628 46.0961 28.7552 45.9206C28.7552 45.4587 28.7207 44.9969 28.7034 44.535C28.685 44.0386 28.562 43.9231 28.0732 43.8989C27.5304 43.8712 26.968 43.8989 26.4482 43.7707C24.5471 43.2904 23.6121 41.129 24.5149 39.3833C24.6564 39.1096 24.8185 38.8464 24.968 38.575C25.2348 38.0924 25.1831 37.9077 24.6989 37.6213C24.4459 37.4713 24.186 37.3327 23.9387 37.1734C23.498 36.8952 23.135 36.5091 22.8838 36.0514C22.6325 35.5937 22.5013 35.0794 22.5024 34.5568C22.5036 34.0341 22.6371 33.5204 22.8903 33.0638C23.1436 32.6072 23.5083 32.2228 23.9502 31.9465C24.2228 31.7734 24.5092 31.6233 24.7817 31.4535C25.1681 31.2134 25.2176 31.0171 24.9991 30.6141C24.6541 29.9884 24.2676 29.3937 24.1733 28.6513C23.9698 27.0569 25.2797 25.3885 26.8737 25.2695C27.2774 25.2395 27.6856 25.2545 28.0916 25.2395C28.5378 25.2222 28.6816 25.0698 28.7034 24.6172C28.7299 24.0988 28.6885 23.5642 28.8012 23.0654C29.2428 21.0899 31.4326 20.1005 33.2278 21.0357C33.5257 21.1904 33.812 21.367 34.103 21.5368C34.4342 21.7307 34.6941 21.643 34.8862 21.3301C35.0552 21.0541 35.2036 20.7667 35.3738 20.493C35.6457 20.039 36.0298 19.663 36.4889 19.4017C36.9479 19.1403 37.4664 19.0023 37.9941 19.001C38.5219 18.9997 39.041 19.1352 39.5013 19.3944C39.9616 19.6535 40.3475 20.0276 40.6216 20.4803C40.7998 20.7655 40.9551 21.0657 41.1345 21.3497C41.3139 21.6337 41.575 21.7249 41.8889 21.5448C42.181 21.3786 42.464 21.1985 42.7641 21.0438C43.2095 20.8026 43.7076 20.6761 44.2136 20.6756C44.7197 20.6751 45.218 20.8006 45.6639 21.0408C46.1098 21.2811 46.4894 21.6286 46.7687 22.0522C47.048 22.4759 47.2183 22.9625 47.2643 23.4684C47.3011 23.8459 47.2873 24.2269 47.3 24.6068C47.3161 25.0813 47.4633 25.2268 47.9383 25.2453C48.4132 25.2638 48.9308 25.2199 49.4035 25.3181C49.8671 25.4159 50.3019 25.6203 50.6736 25.9152C51.0453 26.2101 51.3439 26.5875 51.5458 27.0178C51.7477 27.4481 51.8476 27.9196 51.8374 28.3951C51.8273 28.8707 51.7075 29.3374 51.4874 29.7586C51.3275 30.0703 51.1424 30.3705 50.971 30.6753C50.7996 30.9802 50.8836 31.2457 51.1723 31.4304C51.4609 31.6152 51.7312 31.7514 52.0049 31.9212C52.4608 32.1953 52.8382 32.5834 53.1002 33.0476C53.3623 33.5118 53.5 34.0362 53.5 34.5698C53.5 35.1033 53.3623 35.6278 53.1002 36.092C52.8382 36.5562 52.4608 36.9442 52.0049 37.2184C51.7565 37.3743 51.4966 37.5128 51.2447 37.6652C50.833 37.9158 50.7973 38.1005 51.0067 38.5335C51.2792 39.0992 51.6495 39.6523 51.7634 40.2515C52.1303 42.1889 50.7099 43.8527 48.7318 43.9046C48.4374 43.9116 48.143 43.9046 47.8486 43.9046C47.484 43.9046 47.3138 44.0917 47.2988 44.4485C47.2747 44.9957 47.231 45.5418 47.2241 46.0891C47.2426 46.2402 47.2983 46.3842 47.3862 46.5082C48.3968 48.2732 49.4107 50.0374 50.4282 51.8009C50.5811 52.0653 50.7214 52.3274 50.5121 52.6195C50.2902 52.9301 49.9957 52.877 49.6806 52.7869C48.6456 52.4913 47.6105 52.2096 46.5754 51.9221C46.4512 51.8863 46.3305 51.8598 46.1706 51.8205ZM44.1787 47.4065C45.1091 47.3061 45.9038 46.7138 46.0809 45.8421C46.1741 45.3802 46.1488 44.893 46.1603 44.4173C46.1833 43.4682 46.863 42.7743 47.8095 42.7501C48.1177 42.742 48.4259 42.7501 48.7295 42.7501C50.258 42.7281 51.1585 41.2167 50.4546 39.8509C50.3063 39.5645 50.1303 39.2932 49.9762 39.0092C49.5162 38.1617 49.7588 37.2461 50.5754 36.7427C50.8491 36.573 51.1332 36.4206 51.4057 36.2486C52.6846 35.4403 52.6915 33.7084 51.4207 32.8921C51.1481 32.719 50.8618 32.5712 50.588 32.4014C49.7508 31.883 49.515 30.9686 49.99 30.1004C50.1717 29.769 50.3822 29.4492 50.534 29.1039C50.6536 28.841 50.7121 28.5543 50.705 28.2653C50.698 27.9764 50.6256 27.6928 50.4933 27.4361C50.361 27.1794 50.1723 26.9562 49.9415 26.7835C49.7106 26.6108 49.4436 26.493 49.1608 26.4392C48.7123 26.3537 48.2407 26.3814 47.7807 26.3664C47.5667 26.3667 47.3548 26.3244 47.1571 26.242C46.9595 26.1596 46.7801 26.0386 46.6293 25.8862C46.4785 25.7337 46.3593 25.5528 46.2786 25.3538C46.1979 25.1548 46.1573 24.9417 46.1591 24.7269C46.1534 24.3886 46.166 24.0515 46.1591 23.7143C46.1502 23.3901 46.0609 23.0732 45.8994 22.7922C45.7379 22.5113 45.5092 22.2752 45.234 22.1053C44.9588 21.9354 44.6458 21.8369 44.3232 21.8189C44.0006 21.8009 43.6786 21.8638 43.3863 22.002C43.0586 22.1568 42.7549 22.3634 42.4352 22.5378C41.5681 23.0112 40.6641 22.7687 40.1489 21.9178C39.9821 21.6418 39.8361 21.3532 39.6624 21.0807C38.8574 19.8245 37.1323 19.8268 36.3387 21.0807C36.1662 21.3532 36.0202 21.643 35.8522 21.9178C35.337 22.7629 34.4296 23.0066 33.5648 22.5332C33.2577 22.3646 32.9633 22.1718 32.6447 22.0182C31.4946 21.4559 30.1594 22.0852 29.9041 23.3414C29.8098 23.8032 29.8489 24.2905 29.834 24.7673C29.8263 25.1864 29.6574 25.5862 29.3626 25.8831C29.0678 26.1799 28.67 26.3506 28.2526 26.3595C27.9076 26.3699 27.5522 26.3526 27.2026 26.3687C25.7156 26.4403 24.853 27.9286 25.5304 29.2552C25.6834 29.5542 25.8651 29.8394 26.0238 30.1362C26.4769 30.9871 26.2297 31.8946 25.4062 32.4014C25.1325 32.57 24.8438 32.7167 24.5724 32.8898C24.2856 33.0619 24.0478 33.3054 23.8822 33.5967C23.7166 33.888 23.6286 34.2173 23.6269 34.5528C23.6251 34.8882 23.7097 35.2184 23.8723 35.5115C24.0349 35.8045 24.2701 36.0504 24.5552 36.2255C24.7656 36.3617 24.9887 36.4806 25.2072 36.6076C26.2918 37.2392 26.5275 38.1086 25.9099 39.1916C25.7639 39.4479 25.6075 39.6985 25.481 39.964C25.3424 40.2568 25.2788 40.5796 25.2961 40.9033C25.3133 41.227 25.4107 41.5412 25.5796 41.8175C25.7484 42.0938 25.9833 42.3233 26.2629 42.4854C26.5425 42.6474 26.858 42.7368 27.1808 42.7454C27.5166 42.7547 27.8535 42.7454 28.1894 42.7454C28.4071 42.744 28.623 42.7863 28.8242 42.8699C29.0255 42.9535 29.208 43.0766 29.3611 43.2321C29.5143 43.3875 29.6349 43.5721 29.7159 43.7751C29.7969 43.978 29.8366 44.1952 29.8328 44.4138C29.8328 44.7232 29.8328 45.0327 29.8328 45.3375C29.8627 46.8454 31.367 47.7552 32.7011 47.0694C33.0242 46.9031 33.3302 46.6999 33.6533 46.5337C34.0156 46.3371 34.4392 46.2875 34.8368 46.3949C35.2345 46.5022 35.5761 46.7585 35.7913 47.1109C35.981 47.4054 36.1363 47.7229 36.3215 48.0196C37.1265 49.3 38.8608 49.2989 39.667 48.0196C39.8464 47.7344 40.0005 47.4342 40.1776 47.1479C40.5169 46.6018 41.016 46.2739 41.6509 46.3755C42.0891 46.4447 42.4996 46.6941 42.9159 46.8685C43.3323 47.0428 43.7624 47.2298 44.1787 47.4065ZM31.5545 53.9196C31.6545 53.7649 31.7178 53.6759 31.7718 53.5812C32.785 51.8182 33.7925 50.0505 34.8172 48.2944C34.9586 48.0508 35.015 47.8222 34.7827 47.6778C34.5911 47.5642 34.3625 47.531 34.1467 47.5855C33.8224 47.7009 33.5395 47.9319 33.2267 48.09C32.1824 48.6327 31.1565 48.5842 30.156 47.9676C29.8975 47.7887 29.6487 47.596 29.4107 47.3903L27.1566 51.316C27.2279 51.331 27.2429 51.339 27.2544 51.3356C28.1023 51.1047 28.9503 50.8707 29.7983 50.6336C30.4803 50.4431 30.6735 50.5539 30.8506 51.234C31.0783 52.1011 31.306 52.9693 31.5545 53.9196ZM44.4432 53.9415C44.6951 52.9763 44.9228 52.1092 45.1471 51.2409C45.323 50.5562 45.5162 50.4431 46.1936 50.6313L48.8779 51.3725L46.5778 47.3776C45.0999 48.6835 43.974 48.792 42.3041 47.8245C42.135 47.7263 41.9683 47.5739 41.7889 47.5554C41.5811 47.5372 41.3731 47.5888 41.1977 47.7021C41.0068 47.8302 41.031 48.0311 41.1609 48.2505C41.8452 49.4051 42.51 50.5816 43.1805 51.7478L44.4432 53.9415Z" fill="black"/>
<path d="M37.9902 44.3526C36.7061 44.3534 35.4346 44.0993 34.2487 43.6048C33.0628 43.1104 31.9859 42.3854 31.0802 41.4715C30.1744 40.5577 29.4576 39.4731 28.971 38.2801C28.4843 37.0871 28.2375 35.8093 28.2446 34.5202C28.2549 29.1282 32.6436 24.7523 38.0316 24.7627C43.4197 24.7731 47.7612 29.1733 47.7555 34.5837C47.7542 35.8691 47.5006 37.1417 47.009 38.3287C46.5174 39.5156 45.7975 40.5936 44.8905 41.5009C43.9835 42.4083 42.9072 43.1272 41.7232 43.6165C40.5392 44.1058 39.2707 44.356 37.9902 44.3526ZM29.3648 34.5767C29.3832 39.3556 33.275 43.2489 38.0144 43.2362C42.7538 43.2235 46.6583 39.299 46.6399 34.549C46.6302 32.2517 45.7137 30.0519 44.0912 28.4318C42.4688 26.8116 40.2728 25.9033 37.9845 25.9057C33.2175 25.9184 29.3452 29.8129 29.3648 34.5767Z" fill="black"/>
<path d="M37.9235 32.5155C38.9138 32.5155 39.8235 32.5155 40.7332 32.5155C41.8154 32.5155 42.3824 33.0928 42.3858 34.1862C42.3904 35.5371 42.3904 36.8879 42.3858 38.2388C42.3858 39.3334 41.7889 39.9211 40.6883 39.9245C39.4968 39.9245 38.3054 39.9245 37.1139 39.9245C36.0029 39.9245 35.4026 39.3138 35.4014 38.1926C35.4014 36.9126 35.4014 35.6321 35.4014 34.3513C35.4014 33.2256 35.7465 32.7672 36.8471 32.4555C36.8149 32.1091 36.8206 31.7362 36.7424 31.3863C36.6464 31.0065 36.4219 30.6719 36.1073 30.4399C35.7928 30.2079 35.4076 30.0928 35.0179 30.1143C34.6281 30.1359 34.2579 30.2927 33.9706 30.558C33.6833 30.8233 33.4968 31.1806 33.4429 31.5687C33.398 31.9578 33.4187 32.3539 33.4038 32.7476C33.3877 33.1609 33.1807 33.4115 32.8575 33.4219C32.5343 33.4323 32.2825 33.1563 32.2825 32.7372C32.2951 32.2049 32.2652 31.6588 32.3733 31.1439C32.6643 29.7584 33.9673 28.8532 35.4072 28.9825C36.7551 29.0979 37.8511 30.2675 37.9178 31.6577C37.9339 31.9278 37.9235 32.1934 37.9235 32.5155ZM36.5435 36.2044C36.5435 36.8787 36.5538 37.553 36.5435 38.2261C36.5354 38.6152 36.678 38.7872 37.084 38.7826C38.3008 38.7676 39.5187 38.7711 40.7354 38.7826C41.1081 38.7826 41.2783 38.6302 41.2783 38.2607C41.2783 36.8983 41.2783 35.5359 41.2783 34.1735C41.2783 33.8052 41.1127 33.6297 40.7458 33.6309C39.5137 33.6309 38.2824 33.6309 37.0518 33.6309C36.7068 33.6309 36.54 33.7809 36.5446 34.1412C36.5538 34.8316 36.5435 35.5163 36.5435 36.2044Z" fill="black"/>
</g>
<defs>
<clipPath id="clip0_67_1954">
<rect width="31" height="37" fill="white" transform="translate(22.5 19)"/>
</clipPath>
</defs>
</svg>
