<svg width="48" height="48" viewBox="0 0 48 48" fill="none" xmlns="http://www.w3.org/2000/svg">
<rect width="48" height="48" rx="10" fill="#1A80E7"/>
<g clip-path="url(#clip0_67_1701)">
<path d="M21.1171 18.9566C20.7899 18.9566 20.4908 19.0095 20.2166 18.9456C19.6519 18.8164 19.305 18.4288 19.201 17.8616C19.0937 17.2802 19.3109 16.8171 19.7854 16.4734C20.7388 15.7829 21.6982 15.0994 22.6549 14.4127C23.6116 13.7261 24.5526 13.0497 25.5054 12.3676C26.1827 11.8812 26.7344 11.8773 27.4117 12.3572C27.8043 12.6346 28.1946 12.9124 28.5824 13.1906C28.6085 13.2026 28.6354 13.2127 28.6629 13.2209C28.6629 13.1014 28.659 12.9942 28.6629 12.8876C28.6753 12.6357 28.8232 12.4742 29.0745 12.4677C29.4986 12.458 29.9252 12.4574 30.348 12.4677C30.6097 12.4742 30.755 12.6428 30.757 12.9134C30.7616 13.4696 30.7524 14.0258 30.7648 14.5813C30.7689 14.6332 30.7833 14.6837 30.8072 14.7301C30.8311 14.7764 30.8641 14.8176 30.9042 14.8514C31.6633 15.4095 32.4349 15.9495 33.1946 16.5083C33.4445 16.6869 33.6265 16.9431 33.7114 17.2359C33.7962 17.5288 33.779 17.8412 33.6625 18.1232C33.5381 18.4332 33.3049 18.6886 33.0055 18.8428C32.7061 18.997 32.3604 19.0397 32.0317 18.963C31.9768 18.9514 31.9225 18.9378 31.8217 18.9152V19.2091C31.8217 20.8534 31.8217 22.4972 31.8217 24.1405C31.8251 24.2927 31.8089 24.4446 31.7733 24.5927C31.7165 24.7884 31.596 24.9602 31.4304 25.0815C31.2648 25.2028 31.0633 25.2669 30.8571 25.2639C27.9341 25.2665 25.0112 25.2665 22.0882 25.2639C21.5182 25.2639 21.1171 24.8485 21.1164 24.2729C21.1138 22.5805 21.1138 20.8882 21.1164 19.1962L21.1171 18.9566ZM28.3966 24.4881C28.4941 24.4926 28.5654 24.4997 28.6367 24.4997C29.3225 24.4997 30.0079 24.4997 30.6928 24.4997C30.9886 24.4997 31.02 24.4713 31.02 24.1825C31.02 22.3137 31.02 20.4449 31.024 18.5761C31.0281 18.5095 31.0137 18.4431 30.9822 18.384C30.9507 18.325 30.9033 18.2757 30.8453 18.2415C30.0496 17.6795 29.261 17.1078 28.4692 16.54L26.4792 15.1143C26.4406 15.1356 26.4177 15.1446 26.398 15.1588C24.947 16.1997 23.4971 17.2421 22.0483 18.286C22.0079 18.3201 21.975 18.3619 21.9515 18.4088C21.928 18.4558 21.9144 18.507 21.9115 18.5593C21.9036 20.4326 21.9076 22.3124 21.9036 24.189C21.9036 24.4151 21.9868 24.5061 22.2217 24.5029C22.9317 24.4939 23.6417 24.5029 24.3511 24.499C24.4133 24.499 24.4748 24.4874 24.5474 24.481C24.5474 23.4571 24.5474 22.4513 24.5474 21.4449C24.5474 20.753 25.0107 20.1716 25.6985 20.0515C26.0551 19.9869 26.4288 20.0082 26.7946 20.0069C27.7926 20.0024 28.3939 20.596 28.3966 21.5825C28.3966 22.4603 28.3966 23.3382 28.3966 24.2161V24.4881ZM20.659 18.2221C20.7897 18.169 20.9152 18.1041 21.0339 18.0283C22.7131 16.8306 24.3897 15.63 26.0636 14.4263C26.4249 14.1679 26.5073 14.1679 26.862 14.4199C28.5251 15.6123 30.1881 16.8037 31.8511 17.994C31.9783 18.0924 32.1247 18.1636 32.2811 18.2033C32.5611 18.2602 32.8177 18.0942 32.9243 17.8345C33.0382 17.5554 32.9492 17.2912 32.658 17.0819C30.7454 15.7086 28.8322 14.3363 26.9183 12.9651C26.5688 12.7151 26.3575 12.7203 26.008 12.9709C24.1277 14.3193 22.2479 15.6679 20.3684 17.0167C20.2877 17.0713 20.2115 17.1322 20.1407 17.1988C19.9529 17.3849 19.9254 17.6116 20.0177 17.8448C20.1099 18.078 20.3089 18.2059 20.659 18.224V18.2221ZM27.5956 24.4881C27.5956 23.4752 27.5956 22.4855 27.5956 21.4978C27.5956 21.0489 27.343 20.7982 26.8875 20.7827C26.6428 20.775 26.398 20.7827 26.1539 20.7827C25.5846 20.7827 25.3366 21.0308 25.3353 21.5947C25.3353 22.4797 25.3353 23.3647 25.3353 24.2497C25.3353 24.3272 25.3425 24.4047 25.3464 24.4894L27.5956 24.4881ZM29.9691 14.1453C29.9691 13.8746 29.9652 13.6356 29.9691 13.3966C29.9737 13.1918 29.8232 13.2442 29.7139 13.2455C29.6046 13.2468 29.4659 13.188 29.4521 13.3934C29.424 13.8133 29.473 13.9018 29.9658 14.1492L29.9691 14.1453Z" fill="white"/>
<path d="M18.3404 33.0168C18.4942 33.2868 18.6336 33.5226 18.7645 33.7636C19.0564 34.3023 18.9032 34.8708 18.3719 35.1847C18.008 35.3992 17.6363 35.6001 17.2672 35.8049C16.6043 36.1711 16.0507 36.0219 15.6777 35.3727C14.7131 33.6932 13.7496 32.0136 12.7872 30.3341C12.5791 29.9697 12.3658 29.608 12.161 29.2424C11.8377 28.6642 12.002 28.0893 12.585 27.7566C12.9519 27.5478 13.321 27.3421 13.6923 27.1397C14.2871 26.8167 14.8538 26.9685 15.1974 27.546C15.2628 27.6565 15.3283 27.767 15.4016 27.8929C15.7903 27.672 16.1692 27.455 16.5494 27.2398C17.4001 26.7599 18.2416 26.2709 19.0969 25.8045C20.0668 25.2741 21.0536 25.2373 22.1072 25.621C23.2851 26.0506 24.5075 26.3775 25.7063 26.7554C26.0054 26.8497 26.3293 26.9188 26.5858 27.0842C27.2991 27.5435 27.4712 28.3315 27.0701 29.2656C27.309 29.1636 27.5118 29.099 27.6918 28.9963C29.1458 28.1675 30.5947 27.3303 32.0461 26.497C32.6482 26.1514 33.2751 25.8736 33.976 25.7806C34.8142 25.6688 35.5956 26.09 35.8737 26.8232C36.1813 27.6345 35.8901 28.4989 35.1539 28.9478C32.5799 30.5145 30.0059 32.081 27.432 33.6473C26.5256 34.2022 25.5774 34.334 24.5526 34.0549C22.8263 33.5859 21.0948 33.1376 19.3672 32.6719C19.1545 32.6144 18.9746 32.6202 18.7959 32.7513C18.6487 32.8473 18.4967 32.9359 18.3404 33.0168ZM17.9478 32.3334C18.2096 32.1842 18.4471 32.0214 18.7069 31.9109C18.8653 31.8463 19.0734 31.8011 19.2344 31.8424C21.1085 32.3224 22.9782 32.8198 24.8491 33.3127C25.5872 33.5065 26.2842 33.4225 26.9392 33.0246C29.5568 31.4312 32.1729 29.8378 34.7874 28.2443C34.9358 28.1479 35.0521 28.0104 35.1218 27.849C35.4189 27.1384 34.949 26.5112 34.1729 26.557C33.5336 26.5932 32.9813 26.8684 32.4434 27.1759C31.0115 27.9941 29.5815 28.8158 28.1531 29.6409C27.5131 30.0079 26.8267 30.1816 26.0892 30.0589C25.5447 29.9685 25.0016 29.8573 24.465 29.7288C23.8007 29.5692 23.1424 29.3858 22.4841 29.2049C22.2112 29.13 22.0882 28.9271 22.1569 28.701C22.2223 28.4892 22.4311 28.3923 22.6889 28.4556L22.8309 28.4911C23.7052 28.7165 24.5762 28.951 25.4531 29.1642C25.9602 29.2876 26.3961 29.0273 26.5001 28.577C26.6042 28.1268 26.311 27.692 25.8117 27.5712C25.654 27.5331 25.4897 27.5157 25.3353 27.4679C24.1103 27.0842 22.8807 26.714 21.6661 26.3012C20.994 26.0732 20.3416 26.0506 19.7258 26.3833C18.417 27.09 17.1331 27.8348 15.8387 28.5641C15.8328 28.568 15.8302 28.5777 15.8125 28.6048L17.9478 32.3334ZM14.3081 27.7256C14.1883 27.7767 14.1189 27.8006 14.0561 27.8348C13.7001 28.0286 13.3448 28.2275 12.9921 28.4284C12.7656 28.5576 12.7401 28.65 12.8717 28.8806C14.0417 30.9249 15.2129 32.969 16.3851 35.0129C16.516 35.2364 16.6174 35.2642 16.8432 35.1421C17.1854 34.956 17.5244 34.7635 17.8641 34.5723C18.1625 34.4044 18.1814 34.3353 18.0106 34.0368C17.5744 33.2741 17.1381 32.5112 16.7018 31.7481C15.9877 30.5027 15.2722 29.2577 14.5554 28.0131C14.4826 27.9094 14.3995 27.8131 14.3074 27.7256H14.3081Z" fill="white"/>
<path d="M14.0005 29.3679C13.8856 29.3669 13.7754 29.3227 13.6924 29.2443C13.6094 29.166 13.5597 29.0593 13.5535 28.946C13.5505 28.8897 13.5588 28.8334 13.5781 28.7803C13.5974 28.7272 13.6273 28.6785 13.6659 28.637C13.7046 28.5954 13.7512 28.5619 13.8032 28.5385C13.8551 28.515 13.9113 28.502 13.9684 28.5003C14.0275 28.4974 14.0865 28.5061 14.1421 28.526C14.1977 28.546 14.2486 28.5767 14.292 28.6163C14.3353 28.656 14.3702 28.7038 14.3946 28.757C14.4189 28.8102 14.4322 28.8677 14.4337 28.926C14.4302 29.0397 14.3838 29.148 14.3037 29.2297C14.2236 29.3114 14.1155 29.3607 14.0005 29.3679Z" fill="white"/>
</g>
<defs>
<clipPath id="clip0_67_1701">
<rect width="24" height="24" fill="white" transform="translate(12 12)"/>
</clipPath>
</defs>
</svg>
