<svg width="48" height="48" viewBox="0 0 48 48" fill="none" xmlns="http://www.w3.org/2000/svg">
<rect width="48" height="48" rx="10" fill="#1A80E7"/>
<g clip-path="url(#clip0_67_1727)">
<path d="M27.3507 36H13.7736C13.6137 35.9431 13.4481 35.898 13.2951 35.8266C12.3929 35.4052 11.9988 34.6789 11.9994 33.7047C12.0023 27.7454 12.0023 21.7863 11.9994 15.8274C11.9994 15.7723 11.9994 15.7179 11.9994 15.6634C12.0479 14.5364 12.8216 13.6555 13.8592 13.5553C14.0078 13.5409 14.0689 13.4927 14.123 13.3556C14.4529 12.5166 15.2242 12.0019 16.1345 12.0019C20.4002 12.0019 24.6653 12.0019 28.9297 12.0019C29.437 11.9915 29.9307 12.1651 30.3186 12.4903C30.8745 12.9542 31.0942 13.5597 31.0924 14.2728C31.0861 17.4747 31.0861 20.6766 31.0924 23.8786C31.0867 23.9486 31.0879 24.0191 31.0961 24.0889C31.1075 24.1422 31.1371 24.2142 31.1786 24.2342C31.3983 24.3244 31.625 24.3989 31.8812 24.4903C31.8498 23.898 32.1463 23.6137 32.6424 23.471C32.898 23.3983 33.141 23.2831 33.3929 23.1986C33.8449 23.0421 34.2617 23.2186 34.4292 23.6601C34.9404 25.0079 35.4441 26.3584 35.9402 27.7116C36.1026 28.1536 35.9018 28.5606 35.4592 28.7353C35.2263 28.8273 34.9883 28.9075 34.7559 28.9995C34.3933 29.1441 34.0332 29.2656 33.6825 28.9657C33.4772 29.6356 33.2922 29.7872 32.6355 29.846C32.4057 30.5861 32.2074 30.7395 31.3763 30.8171C31.3461 30.9204 31.3448 31.0475 31.2819 31.1233C31.0344 31.4207 31.093 31.7669 31.0886 32.1044C31.0886 32.2453 31.0848 32.3855 31.0747 32.5258C31.038 33.0118 30.8319 33.4699 30.4919 33.821C30.1519 34.1721 29.6994 34.3943 29.2124 34.4492C29.1593 34.4479 29.1073 34.465 29.0654 34.4975C29.0235 34.53 28.9942 34.576 28.9826 34.6276C28.834 35.0346 28.586 35.3827 28.217 35.6093C27.9488 35.7715 27.6409 35.8711 27.3507 36ZM21.6661 14.2114C21.6312 14.2023 21.5956 14.1956 21.5597 14.1914C19.054 14.1914 16.5482 14.1858 14.0424 14.2002C13.4758 14.2002 13.0489 14.5051 12.826 15.0141C12.7229 15.273 12.6724 15.5496 12.6775 15.8281C12.6691 21.7798 12.6672 27.7314 12.6718 33.6828C12.6718 33.7842 12.6718 33.8863 12.6787 33.9871C12.7017 34.3494 12.8615 34.6897 13.126 34.9399C13.3905 35.1901 13.7403 35.3317 14.1054 35.3364C18.4101 35.3401 22.7148 35.3401 27.0195 35.3364C27.4854 35.3364 27.8651 35.1329 28.1528 34.7672C28.552 34.2663 28.4512 33.684 28.4506 33.108C27.8783 33.1594 27.5188 32.8883 27.2714 32.4312C26.7986 32.5364 26.4164 32.4118 26.1173 32.0336C26.0833 31.9904 25.9687 31.9823 25.9001 31.9979C25.2221 32.1513 24.6535 31.73 24.6107 31.0356C24.6049 30.9914 24.5967 30.9475 24.5862 30.9041C24.1801 30.8515 23.8848 30.6618 23.7205 30.2918C23.5562 29.9218 23.6487 29.5655 23.8464 29.2224C23.7488 29.2224 23.6657 29.2406 23.5946 29.2193C23.1457 29.0828 22.6905 28.9613 22.2561 28.7873C21.9274 28.6558 21.7782 28.2676 21.8726 27.9207C21.9438 27.6578 22.0325 27.3998 22.1163 27.14C22.4764 26.0288 22.8374 24.9175 23.1992 23.8059C23.3673 23.2913 23.7658 23.089 24.289 23.2525C24.6038 23.3508 24.9186 23.4403 25.2239 23.5655C25.3769 23.6281 25.569 23.7252 25.6281 23.8573C25.7616 24.1528 25.9706 24.1177 26.2048 24.077C26.3131 24.0583 26.4208 24.0374 26.5278 24.0144C27.1612 23.8736 27.787 23.8548 28.3939 24.1296C28.404 24.134 28.4216 24.1215 28.4569 24.1096V15.8061C28.4569 15.7204 28.4531 15.6346 28.4462 15.5488C28.37 14.651 27.6088 14.0687 26.6833 14.2215V14.4675C26.6833 15.5144 26.6833 16.561 26.6833 17.6075C26.6833 17.7778 26.6733 17.9399 26.5033 18.0345C26.3333 18.129 26.1885 18.0407 26.0493 17.9462C25.5161 17.5874 24.979 17.2356 24.4514 16.8687C24.3117 16.771 24.2185 16.7754 24.0806 16.8687C23.5266 17.2518 22.9618 17.62 22.4053 17.9956C22.3262 18.0544 22.2329 18.0911 22.1349 18.1021C22.0369 18.1131 21.9377 18.098 21.8474 18.0583C21.6586 17.9781 21.6636 17.7878 21.6636 17.6125C21.6636 16.574 21.6636 15.5352 21.6636 14.4963L21.6661 14.2114ZM30.4174 23.9161C30.4241 23.8747 30.4281 23.8329 30.4294 23.7909C30.4294 20.5652 30.4294 17.3399 30.4294 14.115C30.4294 13.2742 29.786 12.6587 28.9436 12.6581C24.6707 12.6581 20.3981 12.6581 16.1257 12.6581C15.5818 12.6581 15.1631 12.901 14.8665 13.3512C14.8353 13.4114 14.8094 13.4743 14.7891 13.539H15.0957C18.9992 13.539 22.9026 13.5409 26.8061 13.5446C27.1191 13.5389 27.431 13.5835 27.7297 13.6767C28.6174 13.981 29.1306 14.7787 29.1312 15.7917C29.1312 18.4473 29.1312 21.1024 29.1312 23.7571V23.9931L30.4174 23.9161ZM28.3171 30.4039C28.4909 30.2436 28.6514 30.2711 28.8277 30.3682C29.2055 30.5767 29.5883 30.7739 29.9692 30.9743C30.318 31.1577 30.5358 31.1352 30.6617 30.9054C30.7876 30.6756 30.6875 30.4771 30.3362 30.2899C29.9698 30.0946 29.6002 29.9055 29.2376 29.7033C29.067 29.6081 28.9971 29.4528 29.0947 29.265C29.1923 29.0771 29.3465 29.0502 29.5354 29.1197C29.5855 29.1418 29.6339 29.1675 29.6802 29.1967C30.233 29.4916 30.7839 29.7903 31.3392 30.0802C31.613 30.2229 31.8699 30.1265 31.9448 29.8604C32.0078 29.6338 31.8938 29.4847 31.7037 29.3846C31.1522 29.0872 30.6013 28.7885 30.0491 28.493C29.8905 28.4078 29.7973 28.2695 29.8647 28.1111C29.9308 27.9957 30.0372 27.9086 30.1637 27.8662C30.2361 27.84 30.3526 27.9126 30.4426 27.9595C31.1352 28.3264 31.8208 28.7034 32.5171 29.0627C32.6279 29.1197 32.8351 29.166 32.8949 29.1097C32.983 29.0258 33.0132 28.8436 33.0025 28.7084C32.9799 28.5862 32.9154 28.4756 32.82 28.3953C32.6691 28.2586 32.5028 28.1397 32.3245 28.0409C31.7251 27.7179 31.1012 27.4361 30.5201 27.0849C30.1423 26.8582 29.803 26.8732 29.4246 27.0079C29.0934 27.1256 28.7616 27.2464 28.4229 27.3403C27.877 27.4918 27.3646 27.4173 26.9182 27.046C26.4114 26.6234 26.3906 26.4149 26.8407 25.9347C27.1782 25.5747 27.5333 25.2335 27.8859 24.8866C27.9453 24.8362 28.0084 24.7904 28.0747 24.7495C28.0647 24.7157 28.054 24.6812 28.0439 24.6468C27.7517 24.6249 27.4577 24.5679 27.1694 24.5879C26.7406 24.618 26.3175 24.7132 25.8888 24.7576C25.7364 24.7726 25.676 24.8202 25.6313 24.9605C25.3165 25.9403 24.9973 26.9171 24.6806 27.8957C24.6535 27.9789 24.6391 28.0666 24.6145 28.1699C25.2139 27.989 25.6143 28.0578 25.8831 28.483C26.0638 28.7697 26.2495 28.9212 26.5883 28.9901C26.949 29.0627 27.1316 29.3833 27.2336 29.7233C27.731 29.7283 28.0936 29.928 28.3171 30.4039ZM26.0153 14.2058H22.3555V17.2262C22.4462 17.1729 22.5129 17.1385 22.5753 17.0966C22.9266 16.8624 23.2754 16.6238 23.6286 16.3916C24.3488 15.917 24.1782 15.8969 24.9035 16.3815L26.0153 17.1235V14.2058ZM33.102 27.7172C33.0844 27.6628 33.0636 27.592 33.0391 27.5206C32.7923 26.8563 32.541 26.1933 32.2993 25.5271C32.2086 25.2767 32.1469 25.0118 31.7786 25.1114C31.7391 25.1145 31.6995 25.1069 31.664 25.0895C31.3247 24.9724 30.9803 24.8666 30.6466 24.7345C29.9641 24.4634 29.3245 24.5466 28.7717 25.0093C28.2397 25.4557 27.7492 25.9485 27.2311 26.4343C27.498 26.7117 27.7801 26.8313 28.1125 26.7399C28.6162 26.6003 29.111 26.4206 29.6166 26.2847C29.9442 26.1877 30.2971 26.223 30.5988 26.383C31.4254 26.8294 32.2609 27.2714 33.102 27.7172ZM35.3465 28.0103C35.3238 27.9301 35.3163 27.8919 35.3024 27.8556C34.8185 26.5566 34.3341 25.2575 33.8493 23.9581C33.7927 23.8066 33.7033 23.7771 33.5572 23.8329C33.2877 23.9387 33.0183 24.0451 32.7425 24.1321C32.5486 24.1947 32.5272 24.2905 32.5964 24.4652C32.7583 24.8703 32.9056 25.2792 33.0586 25.6893C33.3834 26.5577 33.7133 27.4236 34.0307 28.2951C34.098 28.483 34.1855 28.5187 34.3625 28.446C34.6294 28.3352 34.9045 28.2438 35.1727 28.133C35.2347 28.0996 35.2921 28.0583 35.3434 28.0103H35.3465ZM23.6947 28.5925C23.747 28.528 23.7912 28.4574 23.8263 28.3822C24.2556 27.0723 24.6768 25.7594 25.1087 24.4508C25.166 24.2774 25.1087 24.2073 24.9551 24.1603C24.6699 24.0752 24.3841 23.9913 24.1058 23.888C23.9415 23.8253 23.8728 23.888 23.8275 24.0313C23.7381 24.3137 23.6468 24.5948 23.5562 24.8766C23.2269 25.8915 22.8951 26.9058 22.5727 27.9226C22.5444 28.0121 22.5469 28.1943 22.5853 28.2094C22.9303 28.3477 23.2892 28.4579 23.6915 28.5925H23.6947ZM25.7094 31.3681C25.7509 31.3424 25.8743 31.3055 25.9215 31.2266C26.145 30.8428 26.3622 30.4521 26.5511 30.0526C26.633 29.8823 26.5694 29.7133 26.3899 29.6143C26.3509 29.591 26.3076 29.5757 26.2625 29.5694C26.2174 29.563 26.1715 29.5658 26.1275 29.5775C26.0834 29.5891 26.0423 29.6095 26.0063 29.6374C25.9704 29.6652 25.9405 29.7 25.9184 29.7396C25.705 30.1152 25.4972 30.4909 25.3102 30.8741C25.1824 31.1264 25.3618 31.375 25.7031 31.3681H25.7094ZM30.4168 32.172C30.2569 32.3166 30.102 32.5345 29.893 32.6253C29.684 32.7161 29.4044 32.6879 29.1507 32.7161V33.7874C29.9736 33.6978 30.544 32.9346 30.4105 32.172H30.4168ZM24.7442 30.2455C24.7914 30.2098 24.9217 30.1541 24.9841 30.0576C25.1459 29.8009 25.2831 29.5273 25.4204 29.2556C25.5123 29.0728 25.4456 28.8849 25.2586 28.781C25.0716 28.6771 24.9073 28.729 24.8078 28.8924C24.6313 29.1778 24.4734 29.4742 24.335 29.7796C24.2248 30.0126 24.3998 30.2417 24.7379 30.2455H24.7442ZM27.0158 31.8226C27.0624 31.7976 27.1845 31.7719 27.2292 31.6974C27.4018 31.4209 27.5562 31.1336 27.6913 30.8371C27.7656 30.6693 27.6775 30.5084 27.5087 30.4302C27.34 30.3519 27.1688 30.3782 27.0712 30.5379C26.9064 30.8019 26.7606 31.0773 26.6349 31.3618C26.536 31.5778 26.7224 31.8126 27.0095 31.8226H27.0158ZM27.8714 32.1394C27.9387 32.2071 28.0382 32.3611 28.1792 32.4356C28.3555 32.5276 28.4626 32.373 28.5406 32.2315C28.6238 32.1005 28.6934 31.9614 28.7484 31.8164C28.778 31.7187 28.7805 31.5415 28.7257 31.5033C28.6021 31.4223 28.4545 31.3852 28.3071 31.3981C28.1144 31.4276 27.8638 31.8395 27.8651 32.1394H27.8714ZM29.4844 31.4814C29.4579 31.6692 29.434 31.8395 29.4101 32.0086C29.5902 32.0775 29.6984 32.0424 29.7538 31.9046C29.8162 31.7325 29.7362 31.601 29.4781 31.4814H29.4844Z" fill="white"/>
<path d="M20.5782 20.3422H25.2428C25.3134 20.3422 25.3839 20.3422 25.455 20.3422C25.4967 20.34 25.5384 20.3463 25.5776 20.3608C25.6167 20.3752 25.6524 20.3975 25.6825 20.4263C25.7126 20.4551 25.7365 20.4897 25.7526 20.528C25.7687 20.5663 25.7767 20.6075 25.7761 20.649C25.7881 20.8369 25.6729 20.9546 25.4859 20.9884C25.4157 20.9965 25.3449 20.9984 25.2743 20.994H15.8512C15.7883 20.9978 15.7253 20.9978 15.6624 20.994C15.4735 20.9715 15.3287 20.8193 15.3513 20.6484C15.3759 20.4656 15.4773 20.3491 15.6781 20.3454C15.7568 20.3454 15.8349 20.3454 15.9136 20.3454L20.5782 20.3422Z" fill="white"/>
<path d="M18.1989 25.802C18.9599 25.802 19.7213 25.802 20.4831 25.802C20.5692 25.8005 20.6553 25.8055 20.7406 25.8171C20.8163 25.8246 20.8864 25.8601 20.937 25.9166C20.9876 25.973 21.015 26.0464 21.0138 26.122C21.0208 26.2014 20.9963 26.2805 20.9457 26.3423C20.895 26.4041 20.8221 26.4439 20.7425 26.4532C20.6654 26.4662 20.5871 26.4716 20.5089 26.4695C18.9559 26.4695 17.4029 26.4695 15.8499 26.4695C15.8109 26.4695 15.7712 26.4695 15.7322 26.4695C15.4999 26.4544 15.3501 26.3248 15.3482 26.1383C15.3463 25.9517 15.4949 25.8127 15.7259 25.8064C16.0476 25.7977 16.3694 25.8033 16.6911 25.8033L18.1989 25.802Z" fill="white"/>
<path d="M18.1983 28.545C18.9908 28.545 19.7836 28.545 20.5769 28.545C20.8634 28.545 21.0271 28.6702 21.0176 28.8781C21.0082 29.086 20.852 29.1987 20.5807 29.1987C18.9714 29.1987 17.3622 29.1987 15.753 29.1987C15.5717 29.1987 15.4036 29.1523 15.3752 28.9614C15.368 28.8362 15.4077 28.7128 15.4867 28.6151C15.5358 28.5525 15.6755 28.5469 15.7693 28.5462C16.5809 28.5431 17.3899 28.545 18.1983 28.545Z" fill="white"/>
<path d="M18.1738 23.7239C17.3729 23.7239 16.5721 23.7302 15.7719 23.717C15.636 23.7145 15.5063 23.66 15.4099 23.5649C15.2405 23.3589 15.4155 23.0796 15.7096 23.0696C15.9916 23.0602 16.2762 23.0696 16.557 23.0696H20.49C20.553 23.0696 20.616 23.0658 20.6789 23.0696C20.8842 23.0865 21.0416 23.2374 21.0183 23.414C20.9931 23.6074 20.8785 23.722 20.6701 23.7226H19.9146L18.1738 23.7239Z" fill="white"/>
</g>
<defs>
<clipPath id="clip0_67_1727">
<rect width="24" height="24" fill="white" transform="translate(12 12)"/>
</clipPath>
</defs>
</svg>
