<svg width="48" height="48" viewBox="0 0 48 48" fill="none" xmlns="http://www.w3.org/2000/svg">
<rect width="48" height="48" rx="10" fill="#1A80E7"/>
<g clip-path="url(#clip0_67_1713)">
<path d="M18.3938 33.3765C18.4619 33.5458 18.5235 33.693 18.5806 33.8422C18.7914 34.4053 18.5637 34.9717 18.0117 35.2149C17.4726 35.4524 16.927 35.6749 16.3808 35.8961C15.7451 36.1556 15.1768 35.922 14.9108 35.2876C14.1323 33.434 13.3586 31.5784 12.5897 29.7209C12.4249 29.3265 12.2582 28.9321 12.0986 28.5351C11.8527 27.922 12.0817 27.3583 12.6883 27.0975C13.2224 26.8679 13.7589 26.6447 14.2978 26.428C14.9212 26.1776 15.4784 26.4157 15.7476 27.0372C15.795 27.1462 15.8456 27.2545 15.904 27.3817C16.7298 26.9846 17.5336 26.5909 18.3445 26.214C18.8044 25.9986 19.2689 25.789 19.7438 25.61C20.748 25.2311 21.7652 25.2792 22.663 25.8416C23.6601 26.4676 24.7616 26.7284 25.8657 27.0203C26.17 27.1008 26.4742 27.1812 26.7772 27.2649C27.2391 27.3946 27.6205 27.6411 27.869 28.0563C27.9656 28.2185 28.0558 28.2263 28.2167 28.1789C29.7256 27.7339 31.2345 27.2869 32.7486 26.8607C33.3584 26.6895 33.9851 26.6162 34.6176 26.7628C35.6847 27.0106 36.2173 27.887 35.9228 28.9444C35.7133 29.6956 35.2579 30.262 34.5235 30.5474C31.9663 31.5421 29.4049 32.5245 26.8394 33.4945C26.3756 33.6697 25.8754 33.7612 25.3837 33.8435C24.8563 33.9324 24.3419 33.8059 23.8339 33.6535C22.8291 33.3525 21.819 33.0696 20.8135 32.7706C20.325 32.6252 19.8612 32.6473 19.4051 32.8854C19.0749 33.054 18.7389 33.2078 18.3938 33.3765ZM18.1246 32.7394C18.4781 32.5675 18.7992 32.4151 19.1171 32.2568C19.4 32.1071 19.7101 32.0159 20.029 31.9888C20.3479 31.9616 20.6689 31.9989 20.9731 32.0985C21.4038 32.2347 21.8417 32.3476 22.2757 32.4741C22.9573 32.6717 23.6387 32.8715 24.3198 33.0735C25.0911 33.3032 25.8346 33.1319 26.5482 32.8627C29.1314 31.8896 31.7061 30.8938 34.2809 29.898C34.7999 29.6976 35.1113 29.2863 35.254 28.7621C35.4486 28.0654 35.1547 27.5536 34.4411 27.4426C34.0114 27.3689 33.5712 27.3826 33.1469 27.4828C31.5251 27.9117 29.917 28.3911 28.3062 28.8653C28.2452 28.8834 28.1765 28.9989 28.1765 29.0716C28.1168 30.31 27.0341 31.1183 25.83 30.8062C24.9322 30.574 24.037 30.3288 23.1404 30.0888C22.6416 29.9551 22.1421 29.8254 21.6484 29.6827C21.4538 29.6262 21.3545 29.4822 21.4038 29.2733C21.4505 29.0787 21.6289 28.982 21.8365 29.0275C21.9014 29.0411 21.9617 29.0599 22.024 29.0768C23.3487 29.431 24.6734 29.7903 25.9994 30.1394C26.6481 30.3113 27.2721 29.9713 27.4415 29.3667C27.6192 28.7284 27.2585 28.1128 26.5923 27.9298C25.9857 27.7637 25.3733 27.6145 24.7694 27.4381C24.1161 27.248 23.4428 27.1397 22.8576 26.7245C21.7606 25.946 20.5871 25.8902 19.3733 26.4819C18.3354 26.9885 17.291 27.4803 16.2491 27.9798C16.2209 27.9988 16.1946 28.0205 16.1706 28.0446L18.1246 32.7394ZM17.9994 34.2963C17.9624 34.175 17.9468 34.1017 17.9189 34.0369C16.9856 31.7936 16.051 29.5505 15.1151 27.3077C14.9938 27.019 14.8258 26.9522 14.5313 27.0716C14.0305 27.2753 13.5316 27.4841 13.0334 27.6937C12.676 27.8429 12.6163 27.9908 12.7681 28.356C13.3303 29.7127 13.8947 31.0692 14.4612 32.4254C14.8215 33.2904 15.1815 34.1554 15.5414 35.0203C15.6529 35.2856 15.8164 35.3719 16.0538 35.2798C16.6163 35.056 17.1781 34.8257 17.7301 34.5818C17.8456 34.5292 17.9189 34.3846 17.9981 34.297L17.9994 34.2963Z" fill="white"/>
<path d="M32.0026 22.27C31.5381 22.1195 31.2027 22.2829 30.8537 22.6345C30.4119 23.0783 29.7846 23.2184 29.1774 23.3345C27.7587 23.6037 26.3464 23.5836 24.9556 23.1671C24.4158 23.0056 23.9176 22.7643 23.5679 22.2855C23.5258 22.2278 23.385 22.2207 23.2909 22.2252C22.1674 22.2622 21.0607 22.1876 20.0026 21.7652C19.8761 21.7125 19.7528 21.6523 19.6335 21.5849C18.9925 21.2385 18.7253 20.7111 18.8064 19.9793C19.0542 17.7575 21.012 16.1519 23.2287 16.3835C24.2318 16.4789 25.1584 16.9612 25.8119 17.7283C25.926 17.858 26.0182 17.8814 26.1803 17.8275C26.9757 17.559 27.8376 17.5608 28.6318 17.8327C28.7746 17.8801 28.8563 17.8632 28.9614 17.7477C30.0642 16.5418 31.4265 16.0922 33.0003 16.5048C34.5741 16.9174 35.5414 17.9845 35.9079 19.5726C35.9701 19.8652 35.995 20.1644 35.9818 20.4633C35.9695 20.8914 35.7159 21.1989 35.3824 21.4409C34.8634 21.8152 34.2673 21.9904 33.651 22.0896C33.1093 22.1765 32.5598 22.2109 32.0026 22.27ZM27.3967 22.8188C28.2478 22.7987 29.0976 22.7494 29.8936 22.4166C30.7674 22.0507 30.7921 21.8184 30.6578 21.0445C30.521 20.2901 30.1275 19.6062 29.544 19.1088C28.9605 18.6114 28.2229 18.3311 27.4564 18.3154C25.8897 18.2862 24.4684 19.3929 24.1557 20.9265C23.9786 21.7951 23.9805 22.0585 24.9906 22.4516C25.7613 22.7526 26.578 22.7987 27.3954 22.822L27.3967 22.8188ZM25.3305 18.196C24.3613 17.2035 23.2339 16.8064 21.9144 17.1827C20.5949 17.559 19.7937 18.4711 19.5362 19.8204C19.387 20.5989 19.5452 20.833 20.2822 21.1379C20.3257 21.1589 20.3711 21.1756 20.4178 21.1879C21.0016 21.3014 21.5855 21.4396 22.1726 21.5123C22.5663 21.5622 22.9718 21.522 23.3824 21.522C23.4765 20.0838 24.12 18.9946 25.3292 18.196H25.3305ZM29.4823 18.2096C30.6675 18.9881 31.3169 20.0864 31.4077 21.5226C32.1596 21.5641 32.89 21.5414 33.6134 21.3929C34.0902 21.2969 34.5559 21.1704 34.9646 20.8908C35.2112 20.7215 35.3318 20.5015 35.3059 20.1908C35.2254 19.2625 34.8576 18.4808 34.1563 17.8619C32.7953 16.6592 30.5702 16.8214 29.4869 18.2096H29.4823Z" fill="white"/>
<path d="M32.0026 12.0001C32.4048 12.0033 32.797 12.1254 33.1299 12.3511C33.4627 12.5768 33.7214 12.8959 33.8732 13.2684C34.025 13.6408 34.0633 14.0498 33.9831 14.4439C33.9029 14.838 33.7079 15.1995 33.4226 15.483C33.1373 15.7665 32.7746 15.9592 32.38 16.0369C31.9854 16.1146 31.5766 16.0737 31.2052 15.9195C30.8337 15.7654 30.5162 15.5047 30.2926 15.1704C30.0691 14.8361 29.9494 14.4431 29.9488 14.0409C29.9481 13.7717 30.0009 13.5049 30.1041 13.2562C30.2073 13.0075 30.3587 12.7817 30.5497 12.5919C30.7408 12.4021 30.9675 12.252 31.2169 12.1504C31.4663 12.0489 31.7333 11.9978 32.0026 12.0001ZM30.6403 14.0364C30.643 14.3012 30.7238 14.5592 30.8727 14.7782C31.0216 14.9971 31.2319 15.1672 31.4771 15.2671C31.7223 15.3669 31.9916 15.3921 32.2511 15.3394C32.5105 15.2867 32.7487 15.1585 32.9355 14.9709C33.1224 14.7833 33.2497 14.5447 33.3014 14.285C33.353 14.0254 33.3269 13.7562 33.2261 13.5114C33.1253 13.2665 32.9544 13.0569 32.7349 12.9089C32.5154 12.7608 32.257 12.681 31.9922 12.6793C31.8141 12.6785 31.6376 12.7131 31.4729 12.7811C31.3083 12.8491 31.1588 12.9492 31.0331 13.0754C30.9075 13.2017 30.8082 13.3517 30.7409 13.5166C30.6737 13.6816 30.6399 13.8583 30.6416 14.0364H30.6403Z" fill="white"/>
<path d="M24.842 14.0058C24.868 15.1041 23.9598 16.0506 22.8583 16.0739C22.5889 16.0794 22.3211 16.0316 22.0703 15.9334C21.8194 15.8353 21.5903 15.6886 21.3962 15.5018C21.2021 15.315 21.0467 15.0918 20.9389 14.8449C20.8311 14.598 20.7731 14.3323 20.7681 14.0629C20.7415 12.9841 21.6432 12.024 22.7045 12.0013C23.893 11.976 24.8161 12.8401 24.842 14.0058ZM24.1486 14.0318C24.1465 13.7671 24.0663 13.5089 23.918 13.2897C23.7697 13.0705 23.5599 12.9 23.315 12.7996C23.0701 12.6993 22.801 12.6735 22.5415 12.7256C22.282 12.7777 22.0436 12.9053 21.8564 13.0924C21.6692 13.2795 21.5415 13.5178 21.4893 13.7773C21.4371 14.0367 21.4627 14.3059 21.563 14.5508C21.6632 14.7958 21.8336 15.0056 22.0528 15.1541C22.2719 15.3025 22.53 15.3828 22.7947 15.385C22.9725 15.3852 23.1486 15.3504 23.3129 15.2825C23.4773 15.2146 23.6266 15.115 23.7524 14.9893C23.8781 14.8636 23.9779 14.7143 24.0458 14.55C24.1138 14.3857 24.1487 14.2096 24.1486 14.0318Z" fill="white"/>
<path d="M27.3999 13.2649C27.803 13.2657 28.1968 13.386 28.5315 13.6106C28.8662 13.8352 29.1268 14.1541 29.2802 14.5268C29.4337 14.8995 29.4731 15.3094 29.3936 15.7046C29.3141 16.0997 29.1191 16.4624 28.8334 16.7468C28.5477 17.0311 28.1841 17.2243 27.7885 17.302C27.393 17.3796 26.9833 17.3382 26.6113 17.183C26.2393 17.0277 25.9217 16.7657 25.6987 16.4299C25.4757 16.0941 25.3573 15.6998 25.3584 15.2967C25.3607 14.7568 25.5768 14.2398 25.9594 13.859C26.3421 13.4782 26.8601 13.2645 27.3999 13.2649ZM28.7493 15.2973C28.7476 15.0303 28.667 14.7697 28.5176 14.5483C28.3682 14.327 28.1567 14.1548 27.9096 14.0534C27.6626 13.9519 27.3911 13.9258 27.1292 13.9783C26.8674 14.0308 26.6269 14.1596 26.4381 14.3484C26.2493 14.5373 26.1205 14.7777 26.068 15.0396C26.0155 15.3014 26.0416 15.5729 26.143 15.82C26.2444 16.067 26.4166 16.2785 26.638 16.428C26.8593 16.5774 27.1199 16.658 27.387 16.6596C27.7476 16.6571 28.0927 16.5126 28.3477 16.2576C28.6026 16.0025 28.7469 15.6573 28.7493 15.2967V15.2973Z" fill="white"/>
</g>
<defs>
<clipPath id="clip0_67_1713">
<rect width="24" height="24" fill="white" transform="translate(12 12)"/>
</clipPath>
</defs>
</svg>
