<svg width="203" height="57" viewBox="0 0 203 57" fill="none" xmlns="http://www.w3.org/2000/svg">
<g clip-path="url(#clip0_67_2229)">
<path d="M76.3253 43.4529C72.9082 43.4529 70.2971 42.5297 68.4918 40.6835C66.0687 38.4177 64.8598 35.1545 64.8652 30.8939C64.8652 26.5472 66.0741 23.284 68.4918 21.1044C70.2971 19.259 72.9082 18.3359 76.3253 18.335C79.7424 18.3341 82.354 19.2572 84.1601 21.1044C86.5716 23.2849 87.7769 26.548 87.776 30.8939C87.776 35.1554 86.5707 38.4185 84.1601 40.6835C82.354 42.5289 79.7424 43.452 76.3253 43.4529ZM81.0453 37.0767C82.2022 35.626 82.7807 33.5673 82.7807 30.9006C82.7807 28.2339 82.1986 26.1756 81.0345 24.7258C79.8704 23.2715 78.2998 22.5444 76.3226 22.5444C74.3454 22.5444 72.7667 23.2689 71.5865 24.7178C70.4108 26.1631 69.8225 28.2241 69.8216 30.9006C69.8207 33.5771 70.4099 35.638 71.5892 37.0834C72.7685 38.5323 74.3472 39.2568 76.3253 39.2568C78.3034 39.2568 79.8767 38.5301 81.0453 37.0767Z" fill="white"/>
<path d="M99.5356 28.6341C97.9685 28.6341 96.894 29.2945 96.3119 30.6155C96.0102 31.3133 95.8588 32.2022 95.8579 33.2822V42.7824H91.2508V25.2753H95.7115V27.8341C96.3061 26.9318 96.8685 26.2825 97.3986 25.886C98.3496 25.1749 99.5553 24.8193 101.016 24.8193C102.843 24.8193 104.337 25.294 105.501 26.2434C106.664 27.1927 107.246 28.7679 107.247 30.9688V42.7878H102.504V32.1182C102.504 31.1946 102.38 30.4861 102.131 29.9928C101.677 29.0914 100.812 28.6385 99.5356 28.6341Z" fill="white"/>
<path d="M126.638 37.6411C126.518 38.6812 125.972 39.7381 125 40.8119C123.486 42.5186 121.367 43.3719 118.642 43.3719C116.46 43.3964 114.343 42.6293 112.689 41.2146C110.97 39.7772 110.111 37.4371 110.111 34.1944C110.111 31.157 110.886 28.828 112.438 27.2076C113.99 25.5871 116.005 24.7764 118.483 24.7755C119.852 24.7545 121.209 25.0351 122.456 25.5969C123.659 26.166 124.672 27.0655 125.376 28.1889C126.087 29.2837 126.545 30.5207 126.719 31.8117C126.839 32.617 126.888 33.7766 126.865 35.2904H114.766C114.83 37.0505 115.387 38.2847 116.436 38.9932C117.116 39.4456 117.921 39.6763 118.739 39.6532C119.69 39.6532 120.463 39.3865 121.059 38.8532C121.422 38.5102 121.714 38.1003 121.918 37.6465L126.638 37.6411ZM122.065 32.2624C121.989 31.0508 121.618 30.1303 120.953 29.501C120.623 29.1903 120.235 28.9472 119.811 28.7857C119.386 28.6242 118.934 28.5473 118.48 28.5596C117.405 28.5596 116.575 28.8925 115.99 29.5583C115.404 30.2241 115.034 31.1254 114.879 32.2624H122.065Z" fill="white"/>
<path d="M144.496 33.6476V19.0605H149.572V33.6476C149.572 36.1703 149.178 38.1343 148.389 39.5397C146.918 42.1175 144.112 43.4064 139.971 43.4064C135.829 43.4064 133.018 42.1175 131.536 39.5397C130.748 38.1343 130.353 36.1703 130.352 33.6476V19.0605H135.43V33.6476C135.43 35.2796 135.624 36.4712 136.013 37.2223C136.619 38.5557 137.938 39.2223 139.971 39.2223C142.004 39.2223 143.317 38.5557 143.912 37.2223C144.301 36.4747 144.496 35.2831 144.496 33.6476Z" fill="white"/>
<path d="M168.776 27.1262C170.204 28.6373 170.918 30.8596 170.917 33.793C170.917 36.8838 170.217 39.2394 168.817 40.8598C167.418 42.4803 165.614 43.2906 163.407 43.2906C162.002 43.2906 160.834 42.9417 159.904 42.2439C159.315 41.7668 158.811 41.1954 158.412 40.5532V49.7014H153.845V25.2435H158.277V27.8342C158.704 27.1504 159.24 26.541 159.866 26.0302C160.893 25.247 162.115 24.8555 163.532 24.8555C165.59 24.8564 167.338 25.6133 168.776 27.1262ZM166.148 34.0184C166.148 32.6645 165.838 31.4676 165.216 30.4276C164.595 29.3876 163.586 28.8667 162.191 28.8649C160.515 28.8649 159.363 29.6543 158.737 31.233C158.412 32.0685 158.249 33.1308 158.25 34.4197C158.25 36.4642 158.796 37.8976 159.888 38.7198C160.553 39.2079 161.364 39.4626 162.191 39.4438C163.478 39.4438 164.459 38.95 165.136 37.9624C165.812 36.9749 166.149 35.6602 166.148 34.0184Z" fill="white"/>
<path d="M188.629 37.9147H179.822L178.167 42.7935H172.945L181.475 19.0596H187.117L195.579 42.7935H190.162L188.629 37.9147ZM187.234 33.8252L184.249 24.4917L181.168 33.8252H187.234Z" fill="#4DFFB6"/>
<path d="M203 18.9141H198.312V42.792H203V18.9141Z" fill="#4DFFB6"/>
<path d="M44.7986 0L31.5574 20.2938H39.3009V35.7155C39.3018 36.9567 39.0563 38.1859 38.5783 39.3328C38.1003 40.4798 37.3994 41.5219 36.5154 42.3998C35.6315 43.2776 34.5819 43.9739 33.4268 44.4489C32.2716 44.9238 31.0334 45.1681 29.7831 45.1677C28.5201 45.1693 27.2695 44.9205 26.1046 44.4358C24.9398 43.951 23.8843 43.2402 23 42.345C24.1696 44.5058 25.9074 46.3115 28.0285 47.57C30.1496 48.8284 32.5746 49.4926 35.0457 49.4918C37.0489 49.4924 39.0326 49.101 40.8834 48.3401C42.7342 47.5793 44.4158 46.4638 45.8321 45.0575C47.2484 43.6511 48.3716 41.9816 49.1376 40.1441C49.9036 38.3067 50.2973 36.3374 50.2963 34.3488V20.2938H58.4279L44.7986 0Z" fill="url(#paint0_linear_67_2229)"/>
<path d="M34.5589 51.8203C30.169 51.8203 25.9589 50.0892 22.8548 47.0077C19.7507 43.9263 18.0068 39.747 18.0068 35.3892V18.5142C15.4735 19.6835 9.00742 23.4169 6.78847 31.8251C6.78847 25.825 11.4292 10.4553 30.3641 12.3767L33.8739 6.9979C31.2753 6.15411 28.5582 5.72565 25.8241 5.72853C11.5622 5.72853 0 17.2061 0 31.3638C0 45.5215 11.5622 57.0017 25.8241 57.0017C29.7994 57.0049 33.7215 56.0955 37.284 54.3445C40.8465 52.5935 43.9528 50.0484 46.3601 46.9082C44.8217 48.4659 42.9854 49.7028 40.9588 50.5463C38.9323 51.3898 36.7564 51.823 34.5589 51.8203Z" fill="url(#paint1_linear_67_2229)"/>
</g>
<defs>
<linearGradient id="paint0_linear_67_2229" x1="54.2452" y1="7.2175" x2="24.7737" y2="57.0462" gradientUnits="userSpaceOnUse">
<stop offset="0.27" stop-color="#4DFFB6"/>
<stop offset="0.42" stop-color="#43E6BF"/>
<stop offset="0.73" stop-color="#2AA8D7"/>
<stop offset="0.91" stop-color="#1A80E7"/>
</linearGradient>
<linearGradient id="paint1_linear_67_2229" x1="43.2923" y1="2.09511" x2="13.8207" y2="51.9239" gradientUnits="userSpaceOnUse">
<stop offset="0.27" stop-color="#4DFFB6"/>
<stop offset="0.42" stop-color="#43E6BF"/>
<stop offset="0.73" stop-color="#2AA8D7"/>
<stop offset="0.91" stop-color="#1A80E7"/>
</linearGradient>
<clipPath id="clip0_67_2229">
<rect width="203" height="57" fill="white"/>
</clipPath>
</defs>
</svg>
