<svg width="150" height="65" viewBox="0 0 150 65" fill="none" xmlns="http://www.w3.org/2000/svg">
<g clip-path="url(#clip0_2562_3780)">
<path d="M149.695 6.25708C144.151 6.51722 140.215 9.57785 136.936 13.6514C134.35 16.8616 131.988 20.2462 129.394 23.4536C120.507 34.4511 106.305 35.2038 96.5588 25.006C93.1533 21.4444 90.3634 17.3044 87.2492 13.4605C80.0699 4.60491 69.9934 4.43336 62.7124 13.1423C59.9638 16.4299 57.567 20.0025 54.8624 23.3317C45.627 34.7 31.2903 35.2148 21.3293 24.4386C18.5367 21.4194 16.107 18.0543 13.6332 14.7528C10.6757 10.8232 7.29761 7.91196 2.11923 6.93785C-1.74257 6.21003 0.984024 2.51005 0.236401 0.296158H6.21195C14.2379 3.8799 19.1661 10.6295 24.1686 17.3958C32.0571 28.0723 42.9416 28.2079 50.8301 17.5729C55.7391 10.9478 60.8433 4.652 67.9979 0.296158H80.9494C88.8902 3.98783 93.8322 10.7319 98.8841 17.4539C106.907 28.1221 117.594 28.194 125.518 17.5175C130.43 10.8979 135.468 4.53577 142.722 0.296158C143.053 0.330829 143.386 0.330829 143.717 0.296158C148.827 -0.81448 150.82 1.1725 149.695 6.25708Z" fill="#1A80E7"/>
<path d="M149.695 38.9756C144.269 39.5457 140.174 42.4015 136.873 46.5083C134.49 49.4694 132.28 52.5717 129.916 55.5466C120.337 67.6013 106.19 68.2184 95.7232 56.8888C92.5925 53.4988 89.9978 49.6216 87.0678 46.0407C79.9489 37.3428 69.5756 37.3733 62.5172 46.1182C60.0269 49.2038 57.7511 52.4555 55.2773 55.555C45.3466 68.0081 30.1715 68.1354 20.0127 55.8317C17.2778 52.5109 14.8343 48.9685 12.1159 45.6422C9.7741 42.7752 6.90729 40.279 3.10321 39.9968C-0.843796 39.7034 0.313353 37.0689 0.269375 35.0155C0.20066 31.7168 2.80088 32.9676 4.21916 33.2056C11.4782 34.426 15.9283 39.6066 20.2298 44.9255C22.6184 47.8782 24.7925 51.0441 27.4614 53.7201C33.4808 59.764 41.8806 59.8084 47.7737 53.6704C51.5393 49.749 54.6205 45.1856 58.2184 41.0788C67.8385 30.0398 81.0318 29.7741 91.0203 40.5254C94.6127 44.3997 97.5317 48.869 101.121 52.7322C108.097 60.2428 116.624 60.2041 123.583 52.6187C126.925 48.9741 129.63 44.7677 132.884 41.0234C137.282 35.9564 142.568 32.5027 149.709 33.0506L149.695 38.9756Z" fill="#1A80E7"/>
</g>
<defs>
<clipPath id="clip0_2562_3780">
<rect width="150" height="65" fill="white"/>
</clipPath>
</defs>
</svg>
