<svg width="1078" height="305" viewBox="0 0 1078 305" fill="none" xmlns="http://www.w3.org/2000/svg">
<path d="M405.141 232.347C387.003 232.347 373.143 227.413 363.561 217.539C350.706 205.433 344.275 187.979 344.275 165.193C344.275 142.407 350.699 124.504 363.561 112.847C373.143 102.973 387.003 98.0391 405.141 98.0391C423.279 98.0391 437.139 102.973 446.721 112.847C459.519 124.497 465.921 141.943 465.921 165.193C465.921 188.443 459.519 205.426 446.721 217.539C437.132 227.413 423.272 232.347 405.141 232.347ZM430.195 198.253C436.333 190.503 439.406 179.488 439.406 165.193C439.406 150.898 436.319 139.954 430.152 132.176C423.985 124.397 415.643 120.512 405.141 120.512C394.639 120.512 386.255 124.383 380.002 132.133C373.742 139.883 370.619 150.898 370.619 165.193C370.619 179.488 373.749 190.503 380.002 198.253C386.255 206.003 394.639 209.874 405.141 209.874C415.643 209.874 423.992 206.003 430.195 198.253Z" fill="#00244C"/>
<path d="M528.341 153.136C520.021 153.136 514.31 156.666 511.209 163.724C509.605 167.453 508.799 172.215 508.799 178.019V228.81H484.352V135.141H508.029V148.83C511.188 144.011 514.168 140.538 516.984 138.414C522.032 134.628 528.434 132.731 536.184 132.731C545.88 132.731 553.816 135.27 559.99 140.353C566.157 145.429 569.244 153.857 569.244 165.62V228.81H544.105V171.731C544.105 166.797 543.442 163.004 542.123 160.366C539.713 155.546 535.122 153.136 528.349 153.136H528.341Z" fill="#00244C"/>
<path d="M672.203 201.269C671.569 206.837 668.674 212.491 663.505 218.23C655.47 227.356 644.219 231.919 629.753 231.919C617.818 231.919 607.281 228.076 598.155 220.384C589.029 212.691 584.466 200.178 584.466 182.846C584.466 166.605 588.587 154.149 596.822 145.48C605.056 136.817 615.744 132.482 628.891 132.482C636.698 132.482 643.727 133.944 649.98 136.874C656.233 139.805 661.402 144.425 665.48 150.734C669.152 156.302 671.533 162.762 672.624 170.105C673.258 174.412 673.515 180.607 673.401 188.7H609.177C609.519 198.111 612.478 204.713 618.046 208.499C621.433 210.851 625.504 212.028 630.274 212.028C635.321 212.028 639.428 210.595 642.587 207.721C644.312 206.174 645.831 204.021 647.15 201.262H672.203V201.269ZM647.927 172.508C647.527 166.02 645.56 161.101 642.03 157.743C638.501 154.385 634.124 152.709 628.905 152.709C623.223 152.709 618.816 154.492 615.686 158.049C612.557 161.607 610.589 166.427 609.79 172.515H647.927V172.508Z" fill="#00244C"/>
<path d="M766.991 179.916V101.918H793.941V179.916C793.941 193.405 791.845 203.907 787.66 211.429C779.853 225.204 764.96 232.091 742.979 232.091C720.998 232.091 706.076 225.204 698.212 211.429C694.02 203.907 691.931 193.405 691.931 179.916V101.918H718.881V179.916C718.881 188.643 719.914 195.01 721.982 199.031C725.198 206.146 732.199 209.704 742.986 209.704C753.773 209.704 760.689 206.146 763.904 199.031C765.972 195.017 767.006 188.643 767.006 179.916H766.991Z" fill="#00244C"/>
<path d="M895.867 145.045C903.446 153.137 907.231 165.015 907.231 180.686C907.231 197.212 903.517 209.817 896.081 218.48C888.644 227.15 879.076 231.477 867.37 231.477C859.905 231.477 853.709 229.609 848.775 225.881C846.08 223.813 843.435 220.804 840.854 216.84V265.742H816.578V134.971H840.084V148.831C842.722 144.752 845.539 141.544 848.519 139.191C853.973 134.999 860.454 132.91 867.976 132.91C878.941 132.91 888.238 136.96 895.867 145.052V145.045ZM881.921 181.898C881.921 174.668 880.267 168.266 876.973 162.698C873.672 157.13 868.318 154.349 860.917 154.349C852.019 154.349 845.909 158.57 842.58 167.004C840.854 171.481 839.999 177.164 839.999 184.051C839.999 194.959 842.894 202.617 848.697 207.037C852.141 209.618 856.219 210.908 860.924 210.908C867.755 210.908 872.959 208.27 876.553 202.987C880.139 197.704 881.935 190.674 881.935 181.898H881.921Z" fill="#00244C"/>
<path d="M1001.25 202.731H954.501L945.717 228.818H917.997L963.284 101.918H993.243L1038.18 228.818H1009.43L1001.25 202.731ZM993.842 180.864L978 130.928L961.645 180.864H993.842Z" fill="#41E6BF"/>
<path d="M1077.53 101.141H1052.65V228.818H1077.53V101.141Z" fill="#41E6BF"/>
<path d="M225.624 0L155.341 108.513H196.443V190.974C196.443 218.865 173.828 241.481 145.937 241.481C131.834 241.481 119.094 235.698 109.925 226.387C122.181 249.138 146.215 264.602 173.87 264.602C218.566 264.602 254.806 228.369 254.806 183.666V108.513H297.962L225.624 0Z" fill="url(#paint0_linear_4043_3429)"/>
<path d="M183.445 277.086C134.921 277.086 95.5869 237.751 95.5869 189.227V98.9946C82.1405 105.247 47.8327 125.21 36.0403 170.17C36.0403 138.108 60.6731 55.9103 161.18 66.1841L179.802 37.4303C166.356 33.0242 151.997 30.6357 137.074 30.6357C61.3718 30.6357 0 92.0076 0 167.71C0 243.412 61.3718 304.784 137.074 304.784C181.528 304.784 221.033 283.616 246.079 250.82C230.137 267.026 207.964 277.086 183.438 277.086H183.445Z" fill="url(#paint1_linear_4043_3429)"/>
<defs>
<linearGradient id="paint0_linear_4043_3429" x1="275.767" y1="38.5927" x2="117.625" y2="304.015" gradientUnits="userSpaceOnUse">
<stop offset="0.27" stop-color="#41E6BF"/>
<stop offset="0.45" stop-color="#37CDC8"/>
<stop offset="0.83" stop-color="#1F8EE0"/>
<stop offset="0.91" stop-color="#1A80E7"/>
</linearGradient>
<linearGradient id="paint1_linear_4043_3429" x1="229.802" y1="11.2004" x2="71.6599" y2="276.622" gradientUnits="userSpaceOnUse">
<stop offset="0.27" stop-color="#41E6BF"/>
<stop offset="0.45" stop-color="#37CDC8"/>
<stop offset="0.83" stop-color="#1F8EE0"/>
<stop offset="0.91" stop-color="#1A80E7"/>
</linearGradient>
</defs>
</svg>
