<?xml version="1.0" encoding="UTF-8"?>
<svg id="Layer_3" data-name="Layer 3" xmlns="http://www.w3.org/2000/svg" xmlns:xlink="http://www.w3.org/1999/xlink" viewBox="0 0 1920 1080">
  <defs>
    <style>
      .cls-1 {
        fill: url(#linear-gradient-2);
      }

      .cls-2 {
        fill: url(#linear-gradient);
      }

      .cls-3 {
        fill: #00244c;
      }

      .cls-4 {
        fill: #41e6bf;
      }
    </style>
    <linearGradient id="linear-gradient" x1="591.12" y1="380.38" x2="369.31" y2="752.66" gradientUnits="userSpaceOnUse">
      <stop offset=".27" stop-color="#41e6bf"/>
      <stop offset=".45" stop-color="#37cdc8"/>
      <stop offset=".83" stop-color="#1f8ee0"/>
      <stop offset=".91" stop-color="#1b82e5"/>
      <stop offset=".91" stop-color="#1a80e7"/>
    </linearGradient>
    <linearGradient id="linear-gradient-2" x1="526.65" y1="341.96" x2="304.84" y2="714.24" xlink:href="#linear-gradient"/>
  </defs>
  <g>
    <g>
      <path class="cls-3" d="M772.58,652.14c-25.44,0-44.88-6.92-58.32-20.77-18.03-16.98-27.05-41.46-27.05-73.42s9.01-57.07,27.05-73.42c13.44-13.85,32.88-20.77,58.32-20.77s44.88,6.92,58.32,20.77c17.95,16.34,26.93,40.81,26.93,73.42s-8.98,56.43-26.93,73.42c-13.45,13.85-32.89,20.77-58.32,20.77ZM807.72,604.32c8.61-10.87,12.92-26.32,12.92-46.37s-4.33-35.4-12.98-46.31c-8.65-10.91-20.35-16.36-35.08-16.36s-26.49,5.43-35.26,16.3c-8.78,10.87-13.16,26.32-13.16,46.37s4.39,35.5,13.16,46.37c8.77,10.87,20.53,16.3,35.26,16.3s26.44-5.43,35.14-16.3Z"/>
      <path class="cls-3" d="M945.38,541.04c-11.67,0-19.68,4.95-24.03,14.85-2.25,5.23-3.38,11.91-3.38,20.05v71.24h-34.29v-131.38h33.21v19.2c4.43-6.76,8.61-11.63,12.56-14.61,7.08-5.31,16.06-7.97,26.93-7.97,13.6,0,24.73,3.56,33.39,10.69,8.65,7.12,12.98,18.94,12.98,35.44v88.63h-35.26v-80.06c0-6.92-.93-12.24-2.78-15.94-3.38-6.76-9.82-10.14-19.32-10.14Z"/>
      <path class="cls-3" d="M1147.16,608.55c-.89,7.81-4.95,15.74-12.2,23.79-11.27,12.8-27.05,19.2-47.34,19.2-16.74,0-31.52-5.39-44.32-16.18-12.8-10.79-19.2-28.34-19.2-52.65,0-22.78,5.78-40.25,17.33-52.41,11.55-12.15,26.54-18.23,44.98-18.23,10.95,0,20.81,2.05,29.58,6.16,8.77,4.11,16.02,10.59,21.74,19.44,5.15,7.81,8.49,16.87,10.02,27.17.89,6.04,1.25,14.73,1.09,26.08h-90.08c.48,13.2,4.63,22.46,12.44,27.77,4.75,3.3,10.46,4.95,17.15,4.95,7.08,0,12.84-2.01,17.27-6.04,2.42-2.17,4.55-5.19,6.4-9.06h35.14ZM1113.11,568.21c-.56-9.1-3.32-16-8.27-20.71-4.95-4.71-11.09-7.06-18.41-7.06-7.97,0-14.15,2.5-18.54,7.49-4.39,4.99-7.15,11.75-8.27,20.29h53.49Z"/>
      <path class="cls-3" d="M1280.11,578.6v-109.4h37.8v109.4c0,18.92-2.94,33.65-8.81,44.2-10.95,19.32-31.84,28.98-62.67,28.98s-51.76-9.66-62.79-28.98c-5.88-10.55-8.81-25.28-8.81-44.2v-109.4h37.8v109.4c0,12.24,1.45,21.17,4.35,26.81,4.51,9.98,14.33,14.97,29.46,14.97s24.83-4.99,29.34-14.97c2.9-5.63,4.35-14.57,4.35-26.81Z"/>
      <path class="cls-3" d="M1460.87,529.69c10.63,11.35,15.94,28.01,15.94,49.99,0,23.18-5.21,40.86-15.64,53.01-10.43,12.16-23.85,18.23-40.27,18.23-10.47,0-19.16-2.62-26.08-7.85-3.78-2.9-7.49-7.12-11.11-12.68v68.59h-34.05v-183.42h32.97v19.44c3.7-5.72,7.65-10.22,11.83-13.52,7.65-5.88,16.74-8.81,27.29-8.81,15.38,0,28.42,5.68,39.12,17.03ZM1441.31,581.38c0-10.14-2.32-19.12-6.94-26.93-4.63-7.81-12.14-11.71-22.52-11.71-12.48,0-21.05,5.92-25.72,17.75-2.42,6.28-3.62,14.25-3.62,23.91,0,15.3,4.06,26.04,12.2,32.24,4.83,3.62,10.55,5.43,17.15,5.43,9.58,0,16.88-3.7,21.92-11.11,5.03-7.41,7.55-17.27,7.55-29.58Z"/>
      <path class="cls-4" d="M1608.68,610.6h-65.57l-12.32,36.59h-38.88l63.52-177.99h42.02l63.03,177.99h-40.33l-11.47-36.59ZM1598.29,579.93l-22.22-70.04-22.94,70.04h45.16Z"/>
    </g>
    <rect class="cls-4" x="1680.77" y="468.11" width="34.9" height="179.08"/>
  </g>
  <g>
    <path class="cls-2" d="M520.79,326.25l-98.58,152.2h57.65v115.66c0,39.12-31.72,70.84-70.84,70.84h0c-19.78,0-37.65-8.11-50.51-21.17,17.19,31.91,50.9,53.6,89.69,53.6h0c62.69,0,113.52-50.82,113.52-113.52v-105.41h60.53l-101.46-152.2Z"/>
    <path class="cls-1" d="M461.63,714.89h0c-68.06,0-123.23-55.17-123.23-123.23v-126.56c-18.86,8.77-66.98,36.77-83.52,99.83,0-44.97,34.55-160.26,175.52-145.85h0s26.12-40.33,26.12-40.33c-18.86-6.18-39-9.53-59.93-9.53-106.18,0-192.26,86.08-192.26,192.26s86.08,192.26,192.26,192.26c62.35,0,117.76-29.69,152.89-75.69-22.36,22.73-53.46,36.84-87.86,36.84Z"/>
  </g>
</svg>