<svg width="162" height="162" viewBox="0 0 162 162" fill="none" xmlns="http://www.w3.org/2000/svg">
<path d="M139.672 128.925C139.118 129.79 138.199 130.281 136.914 130.398C135.629 130.515 134.475 130.063 133.453 129.041L119.942 115.528H53.9992C50.7153 115.528 47.9039 114.358 45.5651 112.02C43.2262 109.682 42.0567 106.87 42.0567 103.585V99.4326H115.529C118.884 99.4326 121.756 98.2378 124.145 95.8483C126.535 93.4588 127.729 90.5861 127.729 87.2302V40.5H131.884C135.168 40.5 137.979 41.6694 140.318 44.0083C142.657 46.3472 143.827 49.1586 143.827 52.4424V124.667C143.827 125.913 143.411 126.934 142.579 127.73C141.749 128.527 140.78 128.925 139.672 128.925ZM28.2969 85.3622L37.8515 75.8076H102.029C102.634 75.8076 103.131 75.6129 103.521 75.2237C103.91 74.8344 104.104 74.3366 104.104 73.7302V29.0773C104.104 28.4709 103.91 27.9731 103.521 27.5839C103.131 27.1946 102.634 27 102.029 27H30.3742C29.7689 27 29.2711 27.1946 28.8807 27.5839C28.4915 27.9731 28.2969 28.4709 28.2969 29.0773V85.3622ZM24.2519 101.275C22.6826 101.275 21.2769 100.704 20.0349 99.5625C18.7929 98.4195 18.1719 96.9126 18.1719 95.0417V29.0773C18.1719 25.7214 19.3666 22.8487 21.7561 20.4592C24.1456 18.0697 27.0183 16.875 30.3742 16.875H102.029C105.384 16.875 108.256 18.0697 110.645 20.4592C113.035 22.8487 114.229 25.7214 114.229 29.0773V73.7302C114.229 77.0861 113.035 79.9588 110.645 82.3483C108.256 84.7378 105.384 85.9326 102.029 85.9326H42.0567L28.5449 99.4461C27.9127 100.077 27.2354 100.54 26.5132 100.835C25.7898 101.128 25.0361 101.275 24.2519 101.275Z" fill="url(#paint0_linear_2562_3768)" fill-opacity="0.8"/>
<defs>
<linearGradient id="paint0_linear_2562_3768" x1="80.9992" y1="16.875" x2="80.9992" y2="130.416" gradientUnits="userSpaceOnUse">
<stop stop-color="#1A80E7"/>
<stop offset="1" stop-color="#1A80E7" stop-opacity="0.3"/>
</linearGradient>
</defs>
</svg>
