<svg width="162" height="162" viewBox="0 0 162 162" fill="none" xmlns="http://www.w3.org/2000/svg">
<path d="M117.969 139.075L75.4442 96.3428C73.0637 97.3733 70.6444 98.1675 68.1862 98.7255C65.727 99.2835 63.1181 99.5625 60.3596 99.5625C49.5787 99.5625 40.4151 95.7893 32.8686 88.2428C25.3209 80.6951 21.5471 71.5309 21.5471 60.75C21.5471 57.2625 21.9909 53.9286 22.8786 50.7482C23.7651 47.5678 25.0262 44.541 26.6619 41.6677L50.9096 65.7872L65.3968 51.3L41.409 27.1823C44.2811 25.5465 47.2877 24.2634 50.4287 23.3331C53.5697 22.4027 56.88 21.9375 60.3596 21.9375C71.1416 21.9375 80.3059 25.7108 87.8524 33.2573C95.3989 40.8049 99.1721 49.9691 99.1721 60.75C99.1721 63.5974 98.9038 66.2496 98.3672 68.7066C97.8305 71.1647 97.0256 73.5407 95.9524 75.8346L138.687 118.36C139.863 119.551 140.452 120.991 140.452 122.68C140.452 124.368 139.868 125.796 138.7 126.964L126.444 139.22C125.276 140.387 123.866 140.949 122.213 140.906C120.561 140.862 119.146 140.252 117.969 139.075ZM122.279 128.952L128.457 122.772L83.5054 77.8191C85.3999 75.4824 86.7971 72.8235 87.6971 69.8423C88.5971 66.861 89.0471 63.8303 89.0471 60.75C89.0471 53.2643 86.373 46.6397 81.0247 40.8763C75.6765 35.1129 68.9091 32.2875 60.7224 32.4L75.3531 47.0289C76.5726 48.2496 77.1823 49.6733 77.1823 51.3C77.1823 52.9268 76.5726 54.3504 75.3531 55.5711L55.1807 75.7434C53.9601 76.9629 52.5364 77.5727 50.9096 77.5727C49.2829 77.5727 47.8592 76.9629 46.6386 75.7434L32.0096 61.1128C32.0265 69.7753 34.9386 76.662 40.7458 81.7729C46.5531 86.8826 53.091 89.4375 60.3596 89.4375C63.3139 89.4375 66.2681 88.9982 69.2224 88.1196C72.1755 87.2421 74.8766 85.8684 77.3257 83.9987L122.279 128.952Z" fill="url(#paint0_linear_2562_3761)" fill-opacity="0.8"/>
<defs>
<linearGradient id="paint0_linear_2562_3761" x1="80.9994" y1="21.9375" x2="80.9994" y2="140.909" gradientUnits="userSpaceOnUse">
<stop stop-color="#1A80E7"/>
<stop offset="1" stop-color="#1A80E7" stop-opacity="0.3"/>
</linearGradient>
</defs>
</svg>
