<svg width="162" height="162" viewBox="0 0 162 162" fill="none" xmlns="http://www.w3.org/2000/svg">
<path d="M77.8258 127.852C76.8178 127.58 75.8942 127.206 75.0549 126.73C70.2692 123.874 65.2691 121.725 60.0548 120.285C54.8415 118.844 49.4483 118.124 43.875 118.124C39.7564 118.124 35.7109 118.58 31.7385 119.492C27.7661 120.406 23.9366 121.75 20.25 123.524C17.8448 124.631 15.5559 124.466 13.3836 123.029C11.2112 121.594 10.125 119.56 10.125 116.929V43.7708C10.125 42.3161 10.5103 40.9723 11.2809 39.7393C12.0504 38.5063 13.1192 37.6086 14.4872 37.0461C19.0558 34.8219 23.8174 33.1541 28.7719 32.0426C33.7264 30.93 38.7608 30.3737 43.875 30.3737C50.4428 30.3737 56.8378 31.3041 63.0602 33.1648C69.2826 35.0256 75.2625 37.6434 81 41.0184V118.539C86.6948 114.939 92.7028 112.282 99.0242 110.569C105.346 108.855 111.713 107.999 118.125 107.999C122.002 107.999 125.664 108.272 129.112 108.817C132.562 109.362 136.125 110.222 139.803 111.399C140.279 111.53 140.722 111.541 141.134 111.433C141.545 111.324 141.75 110.966 141.75 110.361V34.5536C142.918 34.9001 144.058 35.2854 145.171 35.7096C146.282 36.1337 147.366 36.6658 148.422 37.3059C149.573 37.8684 150.436 38.6903 151.011 39.7714C151.587 40.8536 151.875 42.0135 151.875 43.251V116.799C151.875 119.43 150.756 121.453 148.519 122.867C146.282 124.283 143.896 124.458 141.36 123.394C137.717 121.662 133.943 120.351 130.035 119.46C126.128 118.569 122.158 118.124 118.125 118.124C112.509 118.124 107.051 118.844 101.75 120.285C96.4496 121.725 91.4068 123.874 86.6211 126.73C85.7818 127.206 84.8689 127.58 83.8822 127.852C82.8956 128.126 81.8916 128.262 80.8701 128.262C79.8486 128.262 78.8338 128.126 77.8258 127.852ZM99.6789 96.576C98.6406 97.5019 97.5178 97.6881 96.3107 97.1346C95.1036 96.5799 94.5 95.6147 94.5 94.2388V41.7846C94.5 41.3773 94.5844 40.9768 94.7531 40.5831C94.9219 40.1893 95.1536 39.8456 95.4484 39.552L122.966 12.0323C124.005 10.9939 125.145 10.7453 126.387 11.2864C127.629 11.8264 128.25 12.8192 128.25 14.2648V69.4849C128.25 70.0035 128.148 70.449 127.945 70.8214C127.741 71.1938 127.492 71.5273 127.199 71.8221L99.6789 96.576ZM70.875 113.645V47.1458C66.6439 45.051 62.2609 43.4192 57.726 42.2503C53.1911 41.0826 48.5741 40.4987 43.875 40.4987C39.7125 40.4987 35.7598 40.8818 32.0169 41.6479C28.2741 42.414 24.7629 43.476 21.4836 44.8339C21.1371 44.9644 20.8451 45.1483 20.6078 45.3857C20.3693 45.6242 20.25 45.9161 20.25 46.2615V110.594C20.25 111.2 20.4553 111.558 20.8659 111.666C21.2777 111.774 21.7215 111.741 22.1974 111.568C25.5285 110.365 28.962 109.47 32.4979 108.881C36.0326 108.293 39.825 107.999 43.875 107.999C48.9206 107.999 53.7407 108.52 58.3352 109.563C62.9308 110.606 67.1108 111.967 70.875 113.645Z" fill="url(#paint0_linear_2562_3754)" fill-opacity="0.8"/>
<defs>
<linearGradient id="paint0_linear_2562_3754" x1="81" y1="11.0083" x2="81" y2="128.262" gradientUnits="userSpaceOnUse">
<stop stop-color="#1A80E7"/>
<stop offset="1" stop-color="#1A80E7" stop-opacity="0.3"/>
</linearGradient>
</defs>
</svg>
