<svg width="59" height="57" viewBox="0 0 59 57" fill="none" xmlns="http://www.w3.org/2000/svg">
<path d="M44.7986 0L31.5574 20.2938H39.3009V35.7155C39.3018 36.9567 39.0563 38.1859 38.5783 39.3328C38.1003 40.4798 37.3994 41.5219 36.5154 42.3998C35.6315 43.2776 34.5819 43.9739 33.4268 44.4489C32.2716 44.9238 31.0334 45.1681 29.7831 45.1677C28.5201 45.1693 27.2695 44.9205 26.1046 44.4358C24.9398 43.951 23.8843 43.2402 23 42.345C24.1696 44.5058 25.9074 46.3115 28.0285 47.57C30.1496 48.8284 32.5746 49.4926 35.0457 49.4918C37.0489 49.4924 39.0326 49.101 40.8834 48.3401C42.7342 47.5792 44.4158 46.4638 45.8321 45.0575C47.2484 43.6512 48.3716 41.9816 49.1376 40.1441C49.9036 38.3067 50.2973 36.3374 50.2963 34.3488V20.2938H58.4279L44.7986 0Z" fill="url(#paint0_linear_4001_21)"/>
<path d="M34.5589 51.8199C30.169 51.8199 25.9589 50.0888 22.8548 47.0073C19.7507 43.9259 18.0068 39.7466 18.0068 35.3888V18.5138C15.4735 19.6831 9.00742 23.4165 6.78847 31.8247C6.78847 25.8246 11.4292 10.4549 30.3641 12.3763L33.8739 6.9975C31.2753 6.15371 28.5582 5.72525 25.8241 5.72813C11.5622 5.72813 0 17.2057 0 31.3634C0 45.5211 11.5622 57.0013 25.8241 57.0013C29.7994 57.0045 33.7215 56.0951 37.284 54.3441C40.8465 52.5931 43.9528 50.048 46.3601 46.9078C44.8217 48.4654 42.9854 49.7024 40.9588 50.5459C38.9323 51.3894 36.7564 51.8226 34.5589 51.8199Z" fill="url(#paint1_linear_4001_21)"/>
<defs>
<linearGradient id="paint0_linear_4001_21" x1="54.2452" y1="7.2175" x2="24.7737" y2="57.0462" gradientUnits="userSpaceOnUse">
<stop offset="0.27" stop-color="#4DFFB6"/>
<stop offset="0.42" stop-color="#43E6BF"/>
<stop offset="0.73" stop-color="#2AA8D7"/>
<stop offset="0.91" stop-color="white"/>
</linearGradient>
<linearGradient id="paint1_linear_4001_21" x1="43.2923" y1="2.09471" x2="13.8207" y2="51.9235" gradientUnits="userSpaceOnUse">
<stop offset="0.27" stop-color="#4DFFB6"/>
<stop offset="0.42" stop-color="#43E6BF"/>
<stop offset="0.73" stop-color="#2AA8D7"/>
<stop offset="0.91" stop-color="white"/>
</linearGradient>
</defs>
</svg>
