<svg width="76" height="75" viewBox="0 0 76 75" fill="none" xmlns="http://www.w3.org/2000/svg">
<rect width="76" height="75" rx="37.5" fill="#0E0E0F" fill-opacity="0.05"/>
<g clip-path="url(#clip0_67_1939)">
<path d="M31.3601 46.8869L32.957 47.7931C33.6666 46.9054 34.598 46.2165 35.659 45.7945C34.5629 44.8723 34.042 43.734 34.1798 42.3518C34.2803 41.347 34.7469 40.5114 35.5212 39.8492C37.0225 38.5625 39.3213 38.6781 40.7442 40.0842C42.0203 41.347 42.5151 43.9222 40.3712 45.8034C41.4208 46.2268 42.3431 46.9098 43.05 47.7871L44.6399 46.8849C43.5176 45.9428 43.0068 44.7289 43.22 43.266C43.3571 42.3319 43.8532 41.4864 44.6047 40.9058C45.3593 40.3036 46.3157 40.0059 47.2824 40.0721C48.2492 40.1384 49.1551 40.5639 49.8186 41.2633C51.0605 42.5579 51.5 45.0476 49.4295 46.876C49.9564 47.2076 50.5145 47.5083 51.0143 47.8848C51.9723 48.6017 52.6827 49.5949 53.0476 50.7279C53.1542 51.0496 53.311 51.1203 53.6097 51.1043C53.8727 51.0925 54.1362 51.1042 54.3971 51.1392C54.8235 51.196 55.2162 51.3993 55.5066 51.7137C55.797 52.028 55.9666 52.4334 55.9859 52.8591C56.008 53.5412 56.003 54.2254 55.9859 54.9085C55.9863 55.0516 55.9579 55.1933 55.9022 55.3254C55.8465 55.4574 55.7648 55.5771 55.6617 55.6774C55.5586 55.7777 55.4364 55.8566 55.3021 55.9094C55.1678 55.9622 55.0242 55.988 54.8797 55.985C53.8742 55.993 52.8686 55.985 51.869 55.985C41.7086 55.985 31.5475 55.9894 21.3857 55.998C20.4183 55.998 19.9497 55.3875 20.008 54.6366C20.0492 54.1178 20.0151 53.593 20.0171 53.0712C20.0171 51.9349 20.7451 51.1004 21.8804 51.1273C22.6185 51.1442 22.9071 50.8932 23.1696 50.239C23.7589 48.7741 24.869 47.7493 26.301 47.0652C26.4015 47.0174 26.5021 46.9765 26.6459 46.9138C25.592 46.0175 25.047 44.9131 25.1576 43.5558C25.2299 42.5769 25.6913 41.6665 26.4408 41.0243C27.1639 40.3841 28.1059 40.0403 29.0756 40.0625C30.0453 40.0847 30.9702 40.4712 31.6628 41.1438C32.5004 41.9504 32.8815 42.9443 32.8212 44.1015C32.7609 45.2587 32.2209 46.154 31.3601 46.8869ZM21.2258 54.7781H54.7832V53.3161C54.7832 52.4826 54.6173 52.3203 53.7696 52.3203H22.2324C22.1318 52.3203 22.0313 52.3203 21.9307 52.3203C21.5023 52.3342 21.2439 52.5583 21.2268 52.9825C21.2107 53.5671 21.2258 54.1507 21.2258 54.7781ZM33.857 48.6486C34.1063 49.023 34.3668 49.3596 34.5669 49.7281C34.767 50.0966 34.9098 50.5248 35.0999 50.9122C35.1281 50.9604 35.1672 51.0016 35.2141 51.0326C35.261 51.0635 35.3145 51.0833 35.3704 51.0904C37.1241 51.101 38.8779 51.101 40.6316 51.0904C40.6822 51.0873 40.7313 51.0725 40.775 51.047C40.8187 51.0216 40.8557 50.9863 40.883 50.944C41.1599 50.1122 41.5943 49.3402 42.1631 48.6695C40.3028 45.899 35.7103 45.898 33.857 48.6486ZM51.857 51.0795C51.3662 49.4323 49.4436 47.6129 46.8441 47.6935C44.3774 47.7652 42.5623 49.6086 42.1752 51.0795H51.857ZM33.8268 51.0795C33.2757 49.016 30.9287 47.5472 28.4861 47.7075C26.5926 47.832 24.3833 49.5478 24.1701 51.0795H33.8268ZM47.0251 41.2763C46.5087 41.2763 46.0038 41.4278 45.5741 41.7116C45.1445 41.9955 44.8094 42.399 44.6111 42.8712C44.4128 43.3435 44.3601 43.8633 44.4598 44.3651C44.5594 44.867 44.807 45.3284 45.1711 45.6911C45.5352 46.0538 45.9997 46.3015 46.5059 46.4031C47.012 46.5047 47.5372 46.4556 48.0152 46.2619C48.4932 46.0682 48.9026 45.7386 49.1917 45.3148C49.4808 44.891 49.6367 44.3919 49.6396 43.8804C49.6432 43.5389 49.5782 43.2001 49.4484 42.8837C49.3186 42.5673 49.1266 42.2796 48.8835 42.0374C48.6404 41.7952 48.3511 41.6032 48.0324 41.4727C47.7137 41.3422 47.372 41.2758 47.0271 41.2773L47.0251 41.2763ZM38.0141 40.1629C37.4966 40.1635 36.9909 40.3158 36.5608 40.6007C36.1307 40.8856 35.7954 41.2903 35.5972 41.7637C35.3991 42.237 35.3469 42.758 35.4474 43.2607C35.5478 43.7634 35.7963 44.2253 36.1616 44.5883C36.5269 44.9513 36.9925 45.199 37.4998 45.3002C38.007 45.4014 38.5332 45.3516 39.0119 45.157C39.4906 44.9624 39.9004 44.6317 40.1895 44.2067C40.4787 43.7818 40.6342 43.2815 40.6366 42.769C40.6369 42.0798 40.3612 41.4185 39.87 40.9301C39.3788 40.4418 38.7121 40.1663 38.0161 40.1639L38.0141 40.1629ZM28.9638 46.4647C29.4811 46.4647 29.9869 46.3127 30.417 46.0279C30.847 45.7431 31.1821 45.3384 31.3799 44.8649C31.5776 44.3914 31.629 43.8705 31.5276 43.3681C31.4262 42.8657 31.1766 42.4044 30.8104 42.0425C30.4441 41.6806 29.9777 41.4345 29.4701 41.3352C28.9626 41.236 28.4367 41.2881 27.959 41.485C27.4814 41.6819 27.0735 42.0147 26.7869 42.4413C26.5004 42.8679 26.3481 43.3691 26.3492 43.8814C26.3487 44.2218 26.4162 44.5589 26.5478 44.8733C26.6793 45.1877 26.8724 45.4733 27.1159 45.7135C27.3594 45.9537 27.6485 46.1438 27.9665 46.2729C28.2845 46.402 28.6251 46.4675 28.9688 46.4657L28.9638 46.4647Z" fill="black"/>
<path d="M22.1017 25.9014C20.1297 24.334 20.366 21.8563 21.6874 20.5507C22.3555 19.8892 23.2609 19.5167 24.2056 19.5147C25.1503 19.5126 26.0574 19.8812 26.7284 20.5397C28.0356 21.8184 28.3262 24.2802 26.3573 25.8795C26.6972 26.1783 27.0713 26.4571 27.3699 26.7967C27.6686 27.1363 27.8938 27.5426 28.1684 27.9449C28.7023 27.6711 29.2625 27.3982 29.8035 27.0935C29.895 27.0417 29.9493 26.8515 29.9503 26.725C29.9603 25.3308 29.9503 23.9366 29.9583 22.5494C29.9694 20.7568 31.1349 19.3736 32.9198 19.041C33.1193 19.0098 33.3212 18.9968 33.5231 19.0022C39.8335 19.0022 46.1436 19.0022 52.4533 19.0022C54.4454 19.0022 55.9869 20.5168 55.993 22.4876C56.0017 25.7182 56.0017 28.9487 55.993 32.1793C55.9976 33.0645 55.6583 33.9176 55.0452 34.5619C54.4321 35.2061 53.5923 35.5921 52.6997 35.6399C52.5247 35.6518 52.3487 35.6598 52.1737 35.6598C46.039 35.6598 39.9049 35.6598 33.7715 35.6598C33.0585 35.6598 32.3717 35.5672 31.7483 35.1977C30.616 34.5265 30.0337 33.5287 29.9664 32.2301C29.9543 32.01 29.9664 31.7879 29.9664 31.5081C29.4636 31.762 29.006 31.9781 28.5686 32.2331C28.4791 32.2849 28.4399 32.483 28.4399 32.6135C28.4308 34.4648 28.4338 36.3161 28.4338 38.1684C28.4338 39.3246 27.8768 39.8713 26.7032 39.8723C25.0085 39.8723 23.3147 39.8723 21.622 39.8723C20.6013 39.8723 20.0201 39.2917 20.0191 38.2789C20.0191 35.4337 20.0282 32.5876 20.0191 29.7424C20.0121 28.1232 20.6576 26.8644 22.0303 25.9771C22.0562 25.9539 22.08 25.9286 22.1017 25.9014ZM32.8705 26.9759C33.4427 26.3147 33.9887 25.6814 34.5337 25.053C35.1451 24.3452 35.7562 23.6369 36.3669 22.9278C36.6455 22.6061 37.0145 22.5424 37.2901 22.7615C37.5847 22.9945 37.5857 23.3521 37.2901 23.7116C37.2106 23.8111 37.1292 23.9018 37.0477 23.9964C35.9416 25.2701 34.8425 26.5427 33.7474 27.8214C33.6468 27.936 33.5382 28.1003 33.5463 28.2317C33.6348 29.2734 33.144 29.9854 32.2088 30.323C31.335 30.6417 31.0966 31.1645 31.159 32.0518C31.2595 33.5187 32.1344 34.4419 33.6146 34.4419C39.8493 34.4419 46.0839 34.4419 52.3185 34.4419C52.5205 34.4495 52.7227 34.4362 52.9219 34.402C54.0663 34.165 54.7782 33.2578 54.7802 32.0269C54.7849 28.9332 54.7849 25.839 54.7802 22.7446C54.7802 21.1064 53.848 20.1872 52.1888 20.1872H33.7504C33.6378 20.1872 33.5241 20.1872 33.4115 20.1872C32.2048 20.245 31.2555 21.1173 31.2103 22.3124C31.161 23.6528 31.1952 24.9952 31.1952 26.3376C31.2055 26.3822 31.2228 26.4248 31.2465 26.4641C31.5389 26.4248 31.8364 26.4503 32.1177 26.5388C32.3989 26.6273 32.6567 26.7766 32.8725 26.9759H32.8705ZM27.1708 32.9451C26.845 33.1074 26.5604 33.2568 26.2658 33.3933C25.5468 33.7309 24.8449 33.6791 24.2013 33.2279C23.5578 32.7768 23.3144 32.1415 23.3908 31.3747C23.43 30.9763 23.6925 30.7104 24.0223 30.7214C24.3864 30.7333 24.6468 31.0151 24.5865 31.4444C24.4919 32.1235 25.1406 32.6294 25.8595 32.255C27.8446 31.2223 29.8397 30.2095 31.8277 29.1838C32.3305 28.9249 32.4582 28.5564 32.2299 28.1142C32.0017 27.6721 31.5944 27.5496 31.0916 27.8055C30.1102 28.3034 29.1337 28.8093 28.1553 29.3112C27.8828 29.4507 27.6093 29.5881 27.3076 29.7414C27.2553 29.5074 27.207 29.3172 27.1708 29.124C26.844 27.4251 25.5508 26.4432 23.8363 26.5955C22.3601 26.727 21.2278 28.0345 21.2218 29.6468C21.2127 32.493 21.2218 35.3391 21.2218 38.1853C21.2218 38.6275 21.268 38.6723 21.7246 38.6723C23.3811 38.6723 25.0373 38.6723 26.6932 38.6723C27.1648 38.6723 27.196 38.6444 27.196 38.1973C27.196 36.5694 27.196 34.9428 27.196 33.3176C27.195 33.206 27.1829 33.0985 27.1729 32.9451H27.1708ZM21.8794 23.0483C21.8833 23.6629 22.1335 24.2508 22.5751 24.6827C23.0167 25.1146 23.6134 25.355 24.234 25.3512C24.8546 25.3474 25.4483 25.0996 25.8844 24.6623C26.3205 24.225 26.5633 23.634 26.5594 23.0194C26.5556 22.4048 26.3053 21.8169 25.8638 21.385C25.4222 20.9532 24.8255 20.7127 24.2049 20.7165C23.5843 20.7203 22.9906 20.9682 22.5545 21.4055C22.1184 21.8428 21.8756 22.4337 21.8794 23.0483Z" fill="black"/>
<path d="M44.4026 25.1008C46.1342 25.1008 47.8655 25.1008 49.5964 25.1008C49.7563 25.1008 49.9755 25.0798 50.064 25.1695C50.2229 25.3288 50.41 25.5788 50.3858 25.767C50.3617 25.9552 50.1083 26.1324 49.9273 26.2788C49.8569 26.3356 49.7091 26.3017 49.5964 26.3017H39.1705C39.1082 26.3017 39.0448 26.3017 38.9825 26.3017C38.5943 26.2818 38.3117 26.013 38.3238 25.6784C38.3359 25.3437 38.5923 25.1067 38.9825 25.1047C40.338 25.0978 41.6976 25.1047 43.0481 25.1047C43.4996 25.0998 43.9511 25.1008 44.4026 25.1008Z" fill="black"/>
<path d="M45.6817 31.6104C47.0623 31.6104 48.442 31.6104 49.8227 31.6104C50.2159 31.6104 50.4944 31.8823 50.4904 32.2209C50.4864 32.5595 50.2329 32.7846 49.8438 32.8104C49.7312 32.8174 49.6175 32.8104 49.5049 32.8104H41.5608C41.2128 32.8104 40.9373 32.7029 40.8569 32.3304C40.7714 31.9112 41.0519 31.6084 41.5346 31.6064C42.9173 31.6064 44.302 31.6104 45.6817 31.6104Z" fill="black"/>
<path d="M41.603 29.5748C40.525 29.5748 39.446 29.5748 38.3681 29.5748C38.2072 29.5748 38.002 29.5888 37.8964 29.5021C37.7305 29.3647 37.5213 29.1396 37.5324 28.9644C37.5445 28.7652 37.7637 28.566 37.9346 28.4087C38.006 28.34 38.173 28.3549 38.2967 28.3549C40.5036 28.3549 42.7108 28.3549 44.9184 28.3549C45.379 28.3549 45.6324 28.5252 45.6857 28.8528C45.7561 29.281 45.4745 29.5728 44.9557 29.5758C43.8354 29.5748 42.7162 29.5748 41.603 29.5748Z" fill="black"/>
<path d="M42.0123 23.0294C41.1488 23.0294 40.2844 23.0294 39.4189 23.0294C38.9272 23.0294 38.6778 22.8303 38.6738 22.4439C38.6697 22.0575 38.9221 21.8384 39.4018 21.8374C41.1448 21.8374 42.8878 21.8374 44.6308 21.8374C45.0884 21.8374 45.379 22.0814 45.371 22.4459C45.3629 22.8103 45.0894 23.0274 44.6479 23.0294C43.767 23.0314 42.8902 23.0294 42.0123 23.0294Z" fill="black"/>
<path d="M48.6371 23.0284C48.261 23.0284 47.8839 23.0354 47.5078 23.0284C47.1317 23.0215 46.8843 22.7765 46.8894 22.4309C46.8882 22.3527 46.9031 22.2751 46.9332 22.2029C46.9633 22.1306 47.0079 22.0651 47.0644 22.0104C47.1208 21.9557 47.1879 21.913 47.2615 21.8848C47.3351 21.8566 47.4138 21.8435 47.4927 21.8463C48.2831 21.8364 49.0735 21.8364 49.8639 21.8463C49.9458 21.8431 50.0275 21.8564 50.1041 21.8855C50.1806 21.9145 50.2504 21.9588 50.3091 22.0154C50.3679 22.0721 50.4143 22.14 50.4456 22.215C50.477 22.2901 50.4925 22.3706 50.4914 22.4518C50.4853 22.7864 50.2269 23.0264 49.8438 23.0334C49.4405 23.0344 49.0383 23.0284 48.6371 23.0284Z" fill="black"/>
<path d="M48.7035 29.5749C48.3767 29.5749 48.0508 29.5819 47.725 29.5749C47.2786 29.562 47.0211 29.3349 47.0121 28.9714C47.003 28.6079 47.2665 28.363 47.7079 28.356C48.3847 28.346 49.0625 28.345 49.7392 28.356C50.1505 28.363 50.415 28.6109 50.419 28.9535C50.423 29.2961 50.1606 29.551 49.7563 29.5709C49.4054 29.5869 49.0524 29.5709 48.7035 29.5709V29.5749Z" fill="black"/>
<path d="M37.6189 32.8144C37.2559 32.8144 36.8939 32.8244 36.5308 32.8144C36.1145 32.8015 35.8631 32.5674 35.8641 32.2169C35.8651 31.8664 36.1266 31.6194 36.5298 31.6134C37.2673 31.6054 38.0047 31.6054 38.7421 31.6134C39.1212 31.6184 39.3787 31.8624 39.3917 32.196C39.4048 32.5296 39.1504 32.7935 38.7431 32.8114C38.3691 32.8244 37.99 32.8144 37.6189 32.8144Z" fill="black"/>
</g>
<defs>
<clipPath id="clip0_67_1939">
<rect width="36" height="37" fill="white" transform="translate(20 19)"/>
</clipPath>
</defs>
</svg>
