<svg width="96" height="96" viewBox="0 0 96 96" fill="none" xmlns="http://www.w3.org/2000/svg">
<rect width="96" height="96" rx="48" fill="#0E0E0F" fill-opacity="0.0509804"/>
<g clip-path="url(#clip0_315_31)">
<path d="M40.7098 40.8255C40.9361 39.7382 41.0513 38.6833 41.3767 37.7015C42.4363 34.5044 44.3039 31.8565 46.9016 29.7437C47.3022 29.4148 47.5135 29.4178 47.9251 29.7549C50.7291 32.0454 52.6728 34.9247 53.6592 38.4396C53.8685 39.1848 53.9156 39.9778 54.0478 40.8154H54.4293C56.4776 40.8154 58.5259 40.8154 60.5741 40.8154C62.1483 40.8154 63.0036 41.6855 63.0036 43.2805C63.0036 49.2456 63.0036 55.2104 63.0036 61.1749V61.6521C64.005 61.8379 64.005 61.8379 64.005 62.8704C64.005 63.4146 64.011 63.9598 63.999 64.504C63.9881 64.9955 63.8005 65.4661 63.4715 65.8273C63.1426 66.1885 62.6948 66.4154 62.2124 66.4655C62.0507 66.4819 61.8883 66.4897 61.7257 66.4889C52.2456 66.4889 42.7654 66.4923 33.2852 66.499C31.9533 66.499 31.2063 65.701 31.0551 64.834C30.9739 64.3659 31.022 63.8745 31.016 63.3943C31.016 63.0897 31.016 62.7851 31.016 62.4805C31.016 61.8998 31.1692 61.7404 31.737 61.712C31.8111 61.712 31.8842 61.7018 31.9994 61.6937C32.0074 61.5252 32.0224 61.3678 32.0224 61.2094C32.0224 55.2324 32.0164 49.2544 32.0354 43.2775C32.0317 42.8121 32.1316 42.3519 32.3279 41.9312C32.7284 41.119 33.4605 40.8144 34.3457 40.8144C36.3566 40.8266 38.3675 40.8144 40.3793 40.8144L40.7098 40.8255ZM47.4033 55.8436C48.3907 55.8436 49.3771 55.8436 50.3635 55.8436C50.5959 55.8436 50.7711 55.8162 50.8112 55.5187C51.0015 54.142 51.2118 52.7683 51.406 51.3926C51.7198 49.2267 52.0326 47.0638 52.3444 44.9039C52.5126 43.7282 52.7149 42.5546 52.816 41.3728C52.9933 39.2874 52.2622 37.4233 51.3139 35.6334C51.2356 35.5287 51.1204 35.4588 50.9924 35.4384C48.6229 34.9673 46.1857 34.9673 43.8162 35.4384C43.679 35.4712 43.5602 35.5577 43.4858 35.6791C43.2224 36.1948 42.974 36.7197 42.7447 37.2517C42.0666 38.7848 41.8401 40.4839 42.0928 42.1444C42.3541 43.8937 42.5995 45.6451 42.8499 47.3965C43.2331 50.0728 43.6143 52.749 43.9935 55.4253C44.0365 55.7299 44.1707 55.8497 44.4862 55.8436C45.4546 55.8325 46.429 55.8436 47.4033 55.8436ZM61.8549 61.6775V61.1698C61.8549 55.9276 61.8549 50.6856 61.8549 45.4441C61.8549 44.6461 61.8659 43.848 61.8549 43.051C61.8409 42.3505 61.4613 41.9688 60.7774 41.9667C58.5923 41.9596 56.4061 41.9667 54.221 41.9586C53.9777 41.9586 53.9046 42.0439 53.8725 42.2774C53.6723 43.7424 53.472 45.2065 53.2416 46.6665C53.1986 46.9426 53.2727 47.0726 53.478 47.2188C55.0649 48.3517 56.219 50.0036 56.7466 51.8972C57.1863 53.4435 57.2233 55.0395 57.015 56.6376C56.991 56.8244 56.9479 57.0102 56.9149 57.196C56.8398 57.6092 56.6225 57.8925 56.1978 57.9656C55.7893 58.0377 55.5049 57.8458 55.2966 57.5056C54.6064 56.3729 53.7493 55.3539 52.755 54.4842C52.5817 54.3349 52.3945 54.2019 52.1862 54.0415C52.095 54.6689 52.0169 55.2324 51.9288 55.7939C51.8849 56.0833 51.7529 56.3517 51.5513 56.5614C51.3497 56.7711 51.0885 56.9116 50.8042 56.9635C50.661 56.9909 50.5158 57.0122 50.3766 57.0356V58.0062C51.6143 57.9595 52.5216 58.4529 53.0994 59.5514C53.1415 59.6316 53.3208 59.6915 53.4249 59.6763C54.7448 59.4915 55.9125 60.1484 56.3901 61.3921C56.4843 61.6368 56.5954 61.714 56.8478 61.712C58.396 61.7008 59.9452 61.712 61.4934 61.7049C61.5935 61.7028 61.7017 61.6886 61.8549 61.6775ZM33.1611 61.6775C33.2902 61.6886 33.3613 61.7008 33.4365 61.7008C34.9726 61.7008 36.5088 61.7008 38.043 61.7079C38.2743 61.7079 38.3605 61.6155 38.4376 61.4135C38.9223 60.1566 40.0669 59.4844 41.3848 59.6814C41.5971 59.7129 41.6582 59.6195 41.7443 59.4611C42.24 58.5473 43.0061 58.0509 44.0365 57.9981C44.2809 57.9859 44.5272 58.0194 44.7876 58.0316V57.0254C44.7232 57.0126 44.6579 57.0047 44.5923 57.0021C43.5529 57.066 42.8969 56.4599 42.8418 55.3776C42.8198 54.9461 42.7137 54.5187 42.6416 54.0364C42.4413 54.1958 42.2961 54.3095 42.1538 54.4304C41.1535 55.293 40.2893 56.3058 39.5912 57.4336C39.2968 57.8975 39.0074 58.0488 38.6128 57.9595C38.1552 57.858 37.9629 57.5341 37.9118 57.0904C37.8507 56.5767 37.7536 56.065 37.7245 55.5492C37.6474 54.1745 37.7546 52.8079 38.2092 51.5073C38.8321 49.7286 39.8886 48.2422 41.4388 47.1416C41.4894 47.097 41.5296 47.0415 41.5565 46.9791C41.5833 46.9168 41.5962 46.8492 41.5941 46.7812C41.4939 45.9284 41.3597 45.0796 41.2386 44.2288C41.1324 43.4815 41.0272 42.7343 40.9251 42.0084C40.8899 41.9899 40.8526 41.9759 40.814 41.9667C38.5788 41.9667 36.3436 41.9566 34.1044 41.9779C33.8821 41.9779 33.6317 42.1282 33.4465 42.2754C33.146 42.519 33.1601 42.8967 33.1601 43.2561C33.1601 49.2443 33.1601 55.2345 33.1601 61.2267L33.1611 61.6775ZM62.8714 62.8958H32.1336C32.1336 63.0217 32.1336 63.1212 32.1336 63.2197C32.1336 63.638 32.1176 64.0563 32.1396 64.4735C32.1656 64.9659 32.5291 65.302 33.0229 65.3264C33.123 65.3264 33.2231 65.3264 33.3233 65.3264H61.6877C61.7998 65.3264 61.913 65.3264 62.0252 65.3213C62.4818 65.2908 62.8443 64.966 62.8664 64.5091C62.8914 63.9882 62.8714 63.4572 62.8714 62.8988V62.8958ZM39.6082 61.6612H55.2405C55.0639 61.2931 54.7517 61.0103 54.3711 60.8737C53.9905 60.7371 53.5723 60.7577 53.2066 60.9312C52.5687 61.2114 52.3183 61.0855 52.1661 60.4094C51.9518 59.453 51.0585 58.9352 50.1322 59.2306C49.4683 59.4428 49.1989 59.2408 49.1949 58.5199C49.1949 58.0285 49.1949 57.5381 49.1949 57.0406H45.9262C45.9262 57.6752 45.9342 58.2813 45.9262 58.8875C45.9172 59.4337 45.4806 59.7119 45.0319 59.4134C44.8066 59.2628 44.5474 59.1724 44.2784 59.1506C44.0094 59.1287 43.7394 59.1761 43.4932 59.2883C43.2471 59.4005 43.0329 59.5739 42.8706 59.7924C42.7082 60.0109 42.6029 60.2675 42.5644 60.5383C42.4843 61.0053 42.1639 61.1536 41.7282 60.9789C41.6361 60.9414 41.547 60.8947 41.4518 60.8632C40.7008 60.6195 39.8816 60.9728 39.6082 61.6612ZM41.8114 48.3021C40.5145 49.3367 39.6503 50.5997 39.2016 52.0972C38.8011 53.4425 38.715 54.8466 38.9383 56.3513C39.9177 54.941 41.0052 53.7867 42.3181 52.8577C42.3562 52.8159 42.3849 52.7661 42.4022 52.712C42.4195 52.6578 42.425 52.6005 42.4182 52.5439C42.3501 51.9541 42.265 51.3672 42.1799 50.7804C42.0657 49.9854 41.9446 49.1864 41.8114 48.3031V48.3021ZM53.0013 48.3285C52.79 49.7651 52.5787 51.1611 52.3924 52.5602C52.3774 52.6759 52.5046 52.8546 52.6147 52.9348C53.7893 53.7987 54.819 54.8488 55.6641 56.0447C55.7232 56.1269 55.7923 56.202 55.8804 56.3086C56.308 53.0638 55.4208 50.2057 53.0033 48.3295L53.0013 48.3285ZM44.4111 34.1145C45.4285 34.0556 46.4089 33.9531 47.3893 33.9531C48.3697 33.9531 49.3771 34.0546 50.4006 34.1155C49.5687 32.8697 48.5589 31.756 47.4043 30.8108C46.2611 31.7652 45.2549 32.8768 44.4151 34.1135L44.4111 34.1145Z" fill="black"/>
<path d="M38.5788 34.6435C38.4416 34.7531 38.3635 34.8282 38.2784 34.8861C38.1709 34.9666 38.0372 35.0025 37.9045 34.9864C37.7718 34.9704 37.6502 34.9037 37.5643 34.7998C37.3581 34.5805 37.32 34.3054 37.5263 34.079C37.9329 33.6332 38.3545 33.1987 38.7971 32.7906C39.0464 32.5601 39.3358 32.6261 39.5712 32.8566C39.931 33.2079 40.2849 33.5656 40.6327 33.9297C40.9261 34.2343 40.9512 34.5511 40.7168 34.8018C40.4825 35.0526 40.2161 35.0455 39.8836 34.7937L39.7314 34.679C39.7214 34.8221 39.7084 34.9277 39.7084 35.0333C39.7084 36.1501 39.7084 37.267 39.7084 38.3767C39.7084 38.8417 39.4891 39.1056 39.1256 39.0955C38.762 39.0853 38.5878 38.8366 38.5868 38.3777C38.5868 37.2751 38.5868 36.1735 38.5868 35.0719L38.5788 34.6435Z" fill="black"/>
<path d="M55.3026 32.8484C55.0843 32.9652 54.9161 33.1327 54.7628 33.1195C54.5686 33.1032 54.3052 32.9834 54.2221 32.8261C54.1843 32.7267 54.1703 32.6197 54.1813 32.5138C54.1923 32.4079 54.2279 32.3061 54.2852 32.2169C54.664 31.779 55.0676 31.3637 55.4939 30.9732C55.7472 30.7326 56.0186 30.7559 56.295 31.0199C56.6555 31.3702 57.007 31.7306 57.3565 32.093C57.662 32.4088 57.688 32.7022 57.4497 32.9601C57.2113 33.218 56.9239 33.2088 56.5915 32.9327C56.5564 32.9032 56.5183 32.8758 56.4252 32.8048V36.4506C56.4252 36.9887 56.2249 37.271 55.8574 37.2629C55.4899 37.2547 55.3056 36.9766 55.3056 36.4313V32.8515L55.3026 32.8484Z" fill="black"/>
<path d="M47.3303 37.4019C48.0283 37.4007 48.7111 37.6092 49.2924 38.001C49.8737 38.3929 50.3275 38.9506 50.5965 39.6037C50.8654 40.2568 50.9375 40.976 50.8036 41.6707C50.6698 42.3653 50.3359 43.0041 49.8443 43.5065C49.3526 44.009 48.7252 44.3525 48.0411 44.4937C47.3571 44.6349 46.6471 44.5675 46.0008 44.3C45.3545 44.0325 44.8009 43.5769 44.4097 42.9906C44.0186 42.4044 43.8076 41.7138 43.8032 41.0061C43.8008 40.5345 43.8903 40.0671 44.0663 39.6306C44.2424 39.194 44.5016 38.797 44.8293 38.4622C45.1569 38.1274 45.5464 37.8614 45.9756 37.6795C46.4047 37.4975 46.8651 37.4032 47.3303 37.4019ZM47.3303 38.5481C47.0146 38.5442 46.7014 38.6043 46.4091 38.7249C46.1168 38.8456 45.8512 39.0243 45.6281 39.2507C45.405 39.477 45.2287 39.7463 45.1099 40.0427C44.991 40.3391 44.9318 40.6567 44.9358 40.9767C44.9348 41.2967 44.9959 41.6139 45.1158 41.91C45.2357 42.2061 45.4119 42.4754 45.6345 42.7024C45.857 42.9294 46.1215 43.1098 46.4128 43.2332C46.7041 43.3566 47.0165 43.4205 47.3322 43.4215C47.9698 43.4133 48.5789 43.1527 49.0295 42.6953C49.4801 42.2379 49.7364 41.62 49.7437 40.9736C49.7408 40.3283 49.4854 39.7104 49.0337 39.2557C48.582 38.801 47.9708 38.5465 47.3342 38.5481H47.3303Z" fill="black"/>
<path d="M47.5035 64.6777C46.6183 64.6777 45.732 64.6888 44.8467 64.6685C44.6385 64.6683 44.4356 64.6015 44.2669 64.4777C43.9725 64.2299 44.0927 63.7213 44.4562 63.5781C44.5734 63.5357 44.6972 63.5147 44.8217 63.5162C46.6049 63.5162 48.3888 63.5162 50.1733 63.5162C50.4948 63.5162 50.7742 63.5933 50.8743 63.9548C50.9745 64.3609 50.7141 64.6655 50.2384 64.6746C49.4152 64.6888 48.5921 64.6746 47.7689 64.6746L47.5035 64.6777Z" fill="black"/>
</g>
<defs>
<clipPath id="clip0_315_31">
<rect width="33" height="37" fill="white" transform="translate(31 29.5)"/>
</clipPath>
</defs>
</svg>
