<svg width="48" height="48" viewBox="0 0 48 48" fill="none" xmlns="http://www.w3.org/2000/svg">
<rect width="48" height="48" rx="10" fill="#1A80E7"/>
<g clip-path="url(#clip0_67_1771)">
<path d="M20.9379 28.9168C21.0253 29.2487 21.1001 29.5413 21.1792 29.8333C21.2786 30.203 21.3739 30.5747 21.4896 30.9402C21.5122 31.0102 21.6131 31.0711 21.6914 31.1061C21.7499 31.1327 21.8325 31.1117 21.903 31.1117H37.1915C37.2712 31.1117 37.3502 31.1117 37.4292 31.1117C37.7552 31.1271 37.9683 31.3218 37.9711 31.6018C37.9711 31.898 37.7594 32.1213 37.4398 32.1402C37.2028 32.1542 36.9643 32.1444 36.7272 32.1444H36.3639C36.8027 32.8901 36.9093 33.6434 36.6002 34.4248C36.4552 34.7911 36.2238 35.1177 35.9255 35.3772C35.6271 35.6366 35.2705 35.8214 34.8855 35.9161C34.5005 36.0107 34.0982 36.0125 33.7123 35.9213C33.3264 35.8301 32.9682 35.6485 32.6675 35.3917C31.7376 34.5837 31.569 33.5048 32.1736 32.1647H26.3705C26.7981 32.8873 26.9145 33.635 26.5998 34.4199C26.3993 34.9287 26.0346 35.3574 25.5627 35.6388C24.6166 36.2129 23.4411 36.0904 22.6093 35.3427C21.8628 34.6705 21.4466 33.4397 22.1937 32.1444H21.3217C20.813 32.1444 20.6824 32.0422 20.5456 31.5507C18.8739 25.4782 17.2027 19.4057 15.532 13.3331C15.5108 13.2575 15.4847 13.1833 15.4537 13.0839H14.0891C13.5953 13.0839 13.1014 13.0839 12.6075 13.0839C12.2117 13.0797 12 12.8914 11.9965 12.5532C11.993 12.215 12.2082 12.0106 12.5976 12.0064C13.469 11.9959 14.3403 12.0022 15.2117 12.0015C15.388 12.0015 15.5644 12.0015 15.7401 12.0015C16.1536 12.0113 16.3046 12.1296 16.4139 12.5245C16.9642 14.5315 17.5134 16.54 18.0614 18.5499C18.2243 19.1471 18.2229 19.1471 18.8375 19.1471H20.2111C20.293 18.1515 20.5174 17.2217 20.9682 16.3619C22.1726 14.0655 24.062 12.6946 26.6535 12.3432C30.5241 11.8181 34.1781 14.4436 34.9083 18.2432C34.9546 18.4648 34.989 18.6887 35.0113 18.9139C35.0255 19.0876 35.0819 19.1541 35.2689 19.1513C35.9645 19.1415 36.6595 19.1443 37.3552 19.1513C37.9196 19.1513 38.1242 19.4495 37.9196 19.9676C36.7771 22.8149 35.6336 25.6635 34.4892 28.5135C34.3552 28.8503 34.1047 28.921 33.7766 28.921C29.6224 28.9168 25.4682 28.9168 21.3139 28.921L20.9379 28.9168ZM20.6105 27.8456H20.8673C25.0032 27.8456 29.1389 27.847 33.2743 27.8498C33.4613 27.8498 33.5495 27.7931 33.6186 27.6201C34.5772 25.2159 35.5414 22.8121 36.5113 20.4087C36.5388 20.3387 36.5586 20.2687 36.5896 20.17C36.0958 20.17 35.6266 20.163 35.1616 20.1784C35.0967 20.1784 34.9986 20.289 34.9817 20.3625C34.9359 20.5572 34.938 20.7609 34.902 20.9583C34.1689 24.9708 30.299 27.6797 26.3388 26.9095C23.5949 26.3753 21.6822 24.7874 20.6712 22.1941C20.4242 21.564 20.3247 20.8722 20.1519 20.1889H18.5094C19.2121 22.7535 19.9099 25.2936 20.6105 27.8456ZM32.7861 33.5783C32.7885 33.9437 32.9337 34.2938 33.1911 34.555C33.4485 34.8162 33.7981 34.9681 34.1661 34.9786C34.4433 34.9825 34.7154 34.9046 34.9479 34.7548C35.1804 34.605 35.3629 34.3902 35.4722 34.1374C35.5815 33.8846 35.6127 33.6053 35.5619 33.3348C35.511 33.0644 35.3804 32.8151 35.1866 32.6184C34.9927 32.4218 34.7444 32.2866 34.4731 32.2302C34.2018 32.1737 33.9197 32.1984 33.6626 32.3013C33.4055 32.4041 33.1849 32.5803 33.0289 32.8077C32.8728 33.035 32.7883 33.3032 32.7861 33.5783ZM24.2327 32.2018C23.8643 32.2048 23.5113 32.3494 23.2481 32.6054C22.9849 32.8613 22.8321 33.2086 22.8217 33.5741C22.8125 34.3163 23.4877 34.9863 24.2327 34.9793C24.6007 34.9687 24.9504 34.8176 25.2089 34.5576C25.4674 34.2975 25.6149 33.9485 25.6206 33.5832C25.6156 33.2191 25.468 32.8712 25.2089 32.6133C24.9498 32.3554 24.5997 32.2078 24.2327 32.2018ZM24.6356 20.1833C24.6942 20.7364 24.7485 21.2517 24.8021 21.7628H27.0761V20.1833H24.6356ZM28.1443 19.0792H30.5749C30.5241 18.601 30.4712 18.1445 30.4338 17.688C30.4183 17.5165 30.335 17.478 30.1748 17.478C29.6732 17.4864 29.1716 17.478 28.6699 17.478H28.1478L28.1443 19.0792ZM27.0951 25.7571C27.0951 24.8217 27.0951 23.9073 27.0951 22.9929C27.0922 22.9546 27.0867 22.9165 27.0789 22.8788H25.1358C25.3828 24.1174 26.3134 25.5764 27.0951 25.7571ZM25.1006 16.3829H27.0761V13.455C25.9063 14.1229 25.4816 15.2158 25.1006 16.3829ZM27.0196 19.0834V17.4955H24.8184C24.7605 18.0255 24.7026 18.5457 24.6434 19.0834H27.0196ZM28.2565 21.7663H30.4535C30.5079 21.2412 30.5615 20.7203 30.6165 20.1847H28.2565V21.7663ZM28.2021 25.8033C29.3719 25.1319 29.7896 24.0333 30.1671 22.8858H28.205L28.2021 25.8033ZM28.2021 16.3829H30.1706C29.7847 15.2242 29.3663 14.1285 28.2021 13.4606V16.3829ZM23.7163 17.4836C23.0693 17.4836 22.4463 17.4836 21.8233 17.4836C21.791 17.4852 21.7595 17.4943 21.7313 17.5099C21.703 17.5256 21.6787 17.5475 21.6603 17.5739C21.4629 18.0523 21.3528 18.5618 21.3351 19.0785H23.566C23.6189 18.5583 23.6641 18.0437 23.7163 17.4836ZM31.5048 21.7782C32.1398 21.7782 32.7896 21.7782 33.4373 21.774C33.4645 21.768 33.4899 21.756 33.5117 21.7387C33.5334 21.7215 33.5509 21.6995 33.5629 21.6746C33.7572 21.2006 33.8667 20.6967 33.8867 20.1854H31.6699C31.6141 20.7196 31.5612 21.237 31.5048 21.7789V21.7782ZM31.6699 19.082H33.946C33.8204 18.5772 33.7068 18.1018 33.5777 17.6243C33.5608 17.5889 33.5356 17.5582 33.5041 17.5346C33.4727 17.5111 33.4359 17.4955 33.3971 17.4892C32.7663 17.4794 32.1348 17.4836 31.5083 17.4836L31.6699 19.082ZM23.5441 20.1882H21.2808C21.4155 20.7154 21.5397 21.2097 21.6716 21.7012C21.6846 21.7215 21.7022 21.7384 21.7231 21.7506C21.7439 21.7627 21.7674 21.7698 21.7916 21.7712C22.4315 21.7761 23.0714 21.7747 23.7085 21.7747C23.6528 21.237 23.5992 20.7196 23.5441 20.1889V20.1882ZM30.3025 13.9773C30.546 14.5374 30.7964 15.0926 31.03 15.6534C31.1301 15.8921 31.1386 16.2422 31.3122 16.3535C31.5034 16.4796 31.8371 16.3969 32.1087 16.3997C32.4008 16.3997 32.6922 16.3997 33.0055 16.3997C32.5441 15.4329 31.1457 14.1929 30.3025 13.978V13.9773ZM24.9023 25.3041C24.63 24.6341 24.3421 23.9577 24.0811 23.2737C23.9294 22.8725 23.9484 22.8655 23.5166 22.8655H22.1867C22.8392 23.9186 23.7814 24.7647 24.9023 25.3041ZM30.2856 25.2831C31.4385 24.7601 32.3592 23.9892 33.0259 22.8634C32.4467 22.8634 31.9204 22.8592 31.3947 22.869C31.3593 22.8747 31.3259 22.889 31.2975 22.9106C31.2691 22.9322 31.2465 22.9605 31.2317 22.9929C31.0317 23.7984 30.7128 24.5701 30.2856 25.2831ZM22.1874 16.3451C22.7779 16.3451 23.2958 16.3521 23.8101 16.3367C23.875 16.3367 23.9625 16.2268 23.9936 16.1498C24.2335 15.5624 24.4557 14.968 24.6991 14.3806C24.7654 14.2188 24.8734 14.0746 25.0004 13.8576C23.801 14.4415 22.8957 15.2305 22.1874 16.3451Z" fill="white"/>
</g>
<defs>
<clipPath id="clip0_67_1771">
<rect width="26" height="24" fill="white" transform="translate(12 12)"/>
</clipPath>
</defs>
</svg>
