<svg width="96" height="96" viewBox="0 0 96 96" fill="none" xmlns="http://www.w3.org/2000/svg">
<rect width="96" height="96" rx="48" fill="#0E0E0F" fill-opacity="0.0509804"/>
<g clip-path="url(#clip0_315_35)">
<path d="M26.9999 37.2547C27.2139 36.5494 27.3455 35.8013 27.6643 35.1451C28.902 32.6026 30.9741 31.2646 33.7994 31.1043C34.3172 31.0754 34.468 31.2368 34.4691 31.7583C34.4734 33.5303 34.4734 35.3022 34.4691 37.0741V37.5903H34.9419C36.7249 37.5903 38.5117 37.5903 40.3025 37.5903C40.8214 37.5903 41.0043 37.7848 40.9818 38.2925C40.8321 41.6279 38.5395 44.304 35.2864 44.9399C31.6096 45.6591 27.9681 43.2737 27.1636 39.6209C27.1133 39.3911 27.0566 39.1624 26.9978 38.9337L26.9999 37.2547ZM33.4945 32.1249C30.941 32.2072 27.8665 34.5092 27.9702 38.2893C28.0676 41.816 31.1196 44.3927 34.7312 44.0507C37.4398 43.7953 40.2394 40.8659 39.9228 38.5757H39.4574C37.723 38.5757 35.9885 38.5757 34.2541 38.5757C33.6347 38.5757 33.4956 38.4346 33.4945 37.8276C33.4945 36.2815 33.4945 34.7354 33.4945 33.1894V32.1249Z" fill="black"/>
<path d="M48.3848 58.0264C48.3848 58.4699 48.3848 58.8953 48.3848 59.3207C48.3848 59.6883 48.1869 59.8721 47.8499 59.8742C46.502 59.8849 45.1541 59.8849 43.8061 59.8742C43.4414 59.8742 43.2531 59.6755 43.2542 59.2918C43.2542 54.5724 43.2542 49.8529 43.2542 45.1335C43.2542 44.7669 43.4414 44.5724 43.789 44.5702C45.1498 44.5588 46.5109 44.5588 47.8723 44.5702C48.2436 44.5702 48.4019 44.8054 48.3987 45.1794C48.3901 46.4191 48.3987 47.6578 48.3987 49.0214C48.711 48.7104 48.9336 48.4326 49.2074 48.2295C49.8707 47.739 50.0536 47.1138 50.0151 46.2994C49.9466 44.8759 49.9948 43.447 49.9969 42.0246C49.9969 41.534 50.1467 41.3833 50.6388 41.3758C51.9225 41.3694 53.2037 41.3694 54.4825 41.3758C54.9831 41.3758 55.1243 41.5244 55.1318 42.0171C55.1318 42.872 55.1318 43.7195 55.1318 44.5702H56.7215V44.1118C56.7215 42.1923 56.7215 40.2726 56.7215 38.3524C56.7215 37.8106 56.8691 37.661 57.4019 37.6599C58.6571 37.6599 59.9115 37.6599 61.1653 37.6599C61.7366 37.6599 61.8724 37.7914 61.8724 38.3674C61.8724 41.0463 61.8724 43.726 61.8724 46.4063V46.9663C62.2329 46.7526 62.5378 46.5805 62.8352 46.3913C63.1326 46.2022 63.3979 46.2246 63.6547 46.4843C64.4705 47.3108 65.2907 48.1301 66.1151 48.9423C66.3622 49.1871 66.3847 49.4382 66.2028 49.73C65.9055 50.2045 65.6049 50.6769 65.3406 51.1696C65.2699 51.3404 65.2535 51.5288 65.2935 51.7092C65.4005 52.3109 65.7835 52.5792 66.3847 52.6433C66.7912 52.6871 67.186 52.8357 67.5861 52.9351C67.7128 52.9544 67.8271 53.0217 67.9056 53.1229C67.984 53.2242 68.0205 53.3517 68.0075 53.479C68.0033 54.6789 68.0033 55.8787 68.0075 57.0785C68.0075 57.3991 67.8535 57.5711 67.5561 57.6438C67.0137 57.7763 66.4735 57.9228 65.9269 58.0382C65.6787 58.0906 65.5663 58.222 65.4444 58.439C65.1598 58.9445 65.2101 59.3666 65.5674 59.8133C65.807 60.1126 65.9622 60.477 66.1772 60.7976C66.3922 61.1182 66.3644 61.3779 66.0895 61.6526C65.2722 62.457 64.4606 63.2678 63.6547 64.085C63.3979 64.3447 63.139 64.3746 62.8331 64.1833C62.3581 63.8873 61.8863 63.5848 61.3932 63.3219C61.2477 63.245 61.0327 63.2631 60.8583 63.2888C60.2293 63.3764 60.0132 63.8178 59.9254 64.3864C59.8698 64.7529 59.7489 65.1088 59.6741 65.4732C59.5992 65.8377 59.3831 66.0076 59.0001 66.0022C57.8519 65.9916 56.7044 65.9916 55.5576 66.0022C55.1885 66.0022 54.9917 65.8409 54.9157 65.4893C54.7916 64.9453 54.6675 64.4002 54.5092 63.8648C54.4445 63.7066 54.3324 63.5722 54.1883 63.4801C53.678 63.121 53.203 63.1937 52.7205 63.587C52.4146 63.837 52.0444 64.0091 51.7011 64.2132C51.439 64.3692 51.2025 64.3511 50.979 64.1256C50.1424 63.2835 49.3026 62.4445 48.4596 61.6088C48.2222 61.3736 48.1975 61.1407 48.3762 60.8607C48.6265 60.4674 48.8351 60.0452 49.1101 59.6712C49.385 59.2971 49.385 58.9979 49.2042 58.5832C49.0266 58.2092 48.8341 58.0157 48.3848 58.0264ZM65.2261 49.4446C64.5661 48.7874 63.9285 48.144 63.2738 47.521C63.2187 47.4885 63.1567 47.4698 63.0928 47.4662C63.029 47.4627 62.9652 47.4745 62.9069 47.5007C62.4522 47.7497 62.0051 48.0168 61.5697 48.3C61.4517 48.3862 61.3106 48.4351 61.1645 48.4404C61.0185 48.4458 60.8742 48.4073 60.7502 48.33C60.4328 48.1613 60.1 48.0232 59.7564 47.9174C59.4173 47.8106 59.259 47.615 59.1873 47.2762C59.0653 46.7077 58.9102 46.1455 58.7594 45.5556C57.8212 45.5556 56.9023 45.5492 55.9844 45.5652C55.8999 45.5652 55.7705 45.7031 55.7426 45.7993C55.595 46.3229 55.4987 46.868 55.3265 47.3788C55.2385 47.5893 55.0816 47.7638 54.8815 47.8736C54.5466 48.0596 54.1604 48.1504 53.8192 48.3268C53.6879 48.4045 53.5365 48.4415 53.3841 48.4332C53.2318 48.4248 53.0853 48.3714 52.9634 48.2798C52.4638 47.9591 51.9482 47.6631 51.4817 47.3831L49.37 49.4981C49.6706 49.995 49.9787 50.524 50.3061 51.0424C50.3799 51.1443 50.4234 51.2651 50.4313 51.3907C50.4393 51.5163 50.4114 51.6416 50.351 51.752C50.1724 52.1229 50.0589 52.5257 49.8621 52.8848C49.7537 53.0853 49.5802 53.2429 49.37 53.3316C48.8683 53.5015 48.3388 53.5902 47.8295 53.7409C47.7119 53.7751 47.5461 53.9258 47.5439 54.0262C47.5215 54.9304 47.5311 55.8356 47.5311 56.7653C48.1334 56.9128 48.7078 57.0614 49.2951 57.1928C49.4397 57.2162 49.5741 57.2815 49.6819 57.3804C49.7897 57.4794 49.8661 57.6077 49.9017 57.7496C50.0139 58.1045 50.1571 58.4489 50.3296 58.7788C50.4013 58.8981 50.4361 59.036 50.4294 59.1751C50.4228 59.3141 50.375 59.4481 50.2922 59.56C49.9648 60.0741 49.6589 60.601 49.3294 61.1417C49.983 61.7883 50.6131 62.4242 51.2614 63.0355C51.319 63.0733 51.3848 63.0966 51.4534 63.1035C51.5219 63.1103 51.5911 63.1006 51.655 63.075C52.1225 62.8218 52.5579 62.5065 53.0351 62.2724C53.2575 62.1796 53.5048 62.1646 53.7368 62.2297C54.1305 62.3366 54.4964 62.5503 54.8836 62.686C55.0039 62.7225 55.1115 62.7919 55.1943 62.8863C55.2771 62.9808 55.3318 63.0965 55.3522 63.2204C55.4656 63.7398 55.6004 64.2549 55.7416 64.7668C55.7673 64.8609 55.8689 65.0041 55.9373 65.0051C56.8809 65.0201 57.8244 65.0158 58.7658 65.0158C58.9177 64.3906 59.0611 63.8103 59.1991 63.2289C59.2212 63.098 59.2806 62.9762 59.3702 62.8781C59.4597 62.7799 59.5756 62.7095 59.704 62.6753C60.0827 62.5535 60.4325 62.3398 60.8133 62.2318C61.0445 62.1631 61.2922 62.1743 61.5162 62.2639C61.9933 62.4958 62.4298 62.8089 62.893 63.0718C62.985 63.1231 63.1743 63.1445 63.2321 63.0889C63.9018 62.4477 64.5554 61.783 65.2208 61.1182C64.886 60.5678 64.5725 60.042 64.2494 59.5226C64.177 59.4191 64.1355 59.2972 64.1296 59.171C64.1237 59.0449 64.1538 58.9196 64.2163 58.8098C64.3846 58.4928 64.5239 58.1612 64.6324 57.8191C64.6701 57.6507 64.7588 57.4981 64.8865 57.382C65.0142 57.2659 65.1746 57.192 65.346 57.1704C65.914 57.056 66.4724 56.8979 67.0255 56.7611V53.8061C66.404 53.649 65.7803 53.5154 65.1737 53.3241C64.9747 53.2422 64.8111 53.0927 64.7116 52.9019C64.518 52.5407 64.4035 52.1389 64.2227 51.7691C64.157 51.6537 64.1259 51.5218 64.1329 51.3893C64.1399 51.2567 64.1848 51.1289 64.2623 51.021C64.5832 50.5187 64.887 50.0025 65.2261 49.4436V49.4446ZM47.3984 52.8271V45.5845H44.2394V58.8568H47.423V57.7646C46.4506 57.506 46.5501 57.4237 46.549 56.5975C46.549 55.7055 46.549 54.8149 46.549 53.9258C46.549 53.0537 46.549 53.0537 47.3984 52.8261V52.8271ZM60.8615 47.2452V38.656H57.7132V44.5606C58.1582 44.5606 58.569 44.567 58.983 44.5606C59.3585 44.5542 59.581 44.7166 59.6633 45.095C59.7618 45.5492 59.9244 45.9938 59.9768 46.4522C60.0399 46.9962 60.3726 47.1694 60.8615 47.2442V47.2452ZM50.9597 42.3772V46.4255C51.2999 46.1412 51.5748 46.2855 51.8583 46.464C52.3087 46.7483 52.7655 47.0219 53.2244 47.2923C53.5828 47.506 54.1508 47.1854 54.1519 46.7771C54.1519 45.6051 54.1519 44.4324 54.1519 43.2589V42.3772H50.9597ZM48.4072 52.53C48.7934 52.56 49.0598 52.4509 49.1443 52.0416C49.1924 51.8044 49.3978 51.5212 49.3219 51.3523C49.093 50.8415 48.7613 50.3755 48.4661 49.8924L48.404 49.9181L48.4072 52.53Z" fill="black"/>
<path d="M58.4855 33.1702C57.8875 33.0291 57.3986 32.919 56.9119 32.7972C56.5096 32.6978 56.3171 32.4595 56.4123 32.172C56.5289 31.8204 56.8006 31.7723 57.1237 31.8514C58.0041 32.0555 58.8867 32.2564 59.7671 32.4627C60.2731 32.5813 60.3929 32.7833 60.2463 33.2621C59.9839 34.1278 59.7182 34.9916 59.4494 35.8537C59.3199 36.2684 59.0995 36.4201 58.8 36.3197C58.5005 36.2192 58.4042 35.982 58.5283 35.5641C58.6706 35.0821 58.8171 34.6023 58.9829 34.0519C58.8107 34.1374 58.6962 34.1855 58.5893 34.2475L31.8857 49.5301C31.7477 49.6092 31.6107 49.6936 31.4652 49.7599C31.2032 49.8795 30.9956 49.7887 30.8501 49.5579C30.7046 49.327 30.772 49.1144 30.9667 48.953C31.1065 48.8513 31.2547 48.7615 31.4096 48.6847L58.0469 33.4342C58.1571 33.3647 58.2694 33.2974 58.4855 33.1702Z" fill="black"/>
<path d="M41.6516 53.5206C41.6516 55.4137 41.6516 57.3063 41.6516 59.1987C41.6516 59.7106 41.4954 59.8752 40.9916 59.8773C39.7235 59.8823 38.4558 59.8823 37.1885 59.8773C36.674 59.8773 36.5156 59.7192 36.5156 59.2126C36.5156 55.4129 36.5156 51.614 36.5156 47.8158C36.5156 47.3081 36.6515 47.1746 37.1575 47.1746C38.4519 47.1746 39.746 47.1746 41.0397 47.1746C41.5093 47.1746 41.6527 47.3221 41.6537 47.8008C41.6544 49.7081 41.6537 51.6147 41.6516 53.5206ZM40.6663 58.877V48.1621H37.518V58.8813L40.6663 58.877Z" fill="black"/>
<path d="M34.9227 55.3759C34.9227 56.6406 34.9227 57.9056 34.9227 59.1709C34.9227 59.7053 34.7633 59.8763 34.2466 59.8774C32.98 59.8816 31.7138 59.8816 30.4479 59.8774C29.9397 59.8774 29.775 59.7149 29.7739 59.2094C29.7739 56.6516 29.7739 54.0949 29.7739 51.5392C29.7739 50.9985 29.9205 50.8617 30.4703 50.8606H34.2284C34.7633 50.8606 34.9217 51.0113 34.9227 51.5403C34.9249 52.8185 34.9227 54.0967 34.9227 55.3759ZM30.7709 58.8621H33.931V51.862H30.7709V58.8621Z" fill="black"/>
<path d="M39.3387 36.4533C38.3128 36.4533 37.2858 36.4533 36.2588 36.4533C35.7593 36.4533 35.6095 36.3144 35.6084 35.8121C35.6027 33.7459 35.6027 31.6797 35.6084 29.6136C35.6084 29.1337 35.7667 28.9948 36.2396 28.9959C39.6019 29.0033 42.6133 31.6676 43.0155 35.0031C43.0454 35.2542 43.0797 35.5054 43.0861 35.7576C43.1 36.3101 42.962 36.448 42.4186 36.4491C41.3923 36.4534 40.3657 36.4548 39.3387 36.4533ZM42.0613 35.4808C41.9415 32.6562 39.4221 30.1436 36.6215 30.0165V35.4765L42.0613 35.4808Z" fill="black"/>
<path d="M57.3012 50.3594C59.9907 50.3594 62.2222 52.577 62.2222 55.2584C62.2085 56.557 61.6837 57.7981 60.7613 58.7133C59.8389 59.6285 58.593 60.1442 57.293 60.149C55.993 60.1537 54.7433 59.6471 53.8142 58.7388C52.8851 57.8304 52.3512 56.5932 52.3279 55.2947C52.3225 52.5759 54.5445 50.3647 57.3012 50.3594ZM53.326 55.2626C53.3185 57.4663 55.0793 59.2554 57.2563 59.2554C57.7823 59.2666 58.3054 59.1732 58.7949 58.9805C59.2845 58.7879 59.7308 58.4999 60.1079 58.1334C60.485 57.7668 60.7853 57.329 60.9915 56.8454C61.1976 56.3618 61.3054 55.8421 61.3086 55.3165C61.3118 54.7908 61.2103 54.2698 61.0101 53.7838C60.8098 53.2977 60.5148 52.8562 60.1422 52.4851C59.7696 52.114 59.3268 51.8207 58.8396 51.6222C58.3524 51.4236 57.8306 51.3239 57.3045 51.3287C56.7839 51.3233 56.2675 51.4211 55.785 51.6164C55.3026 51.8117 54.8637 52.1006 54.4937 52.4665C54.1237 52.8323 53.83 53.2678 53.6296 53.7477C53.4291 54.2277 53.326 54.7426 53.326 55.2626Z" fill="black"/>
</g>
<defs>
<clipPath id="clip0_315_35">
<rect width="41" height="37" fill="white" transform="translate(27 29)"/>
</clipPath>
</defs>
</svg>
