<svg width="48" height="48" viewBox="0 0 48 48" fill="none" xmlns="http://www.w3.org/2000/svg">
<rect width="48" height="48" rx="10" fill="#1A80E7"/>
<g clip-path="url(#clip0_67_1756)">
<path d="M11.9987 23.9802C11.9987 20.7049 11.9987 17.4277 11.9987 14.1486C11.9987 13.1055 12.67 12.2766 13.6936 12.0536C13.8913 12.0161 14.0926 11.9996 14.2939 12.0045C18.1761 12.002 22.0585 12.0005 25.9411 12.0001C26.0404 11.9953 26.1395 12.0117 26.2317 12.048C26.3238 12.0844 26.4068 12.1398 26.4749 12.2104C28.2467 13.9495 30.0249 15.6791 31.7967 17.4214C31.9138 17.5442 31.9824 17.7035 31.9903 17.8711C32.0002 23.1914 32.0026 28.5121 31.9974 33.8333C31.9974 35.0502 31.1338 35.9295 29.89 35.9944C29.8254 35.9975 29.7609 35.9975 29.6964 35.9975C24.565 35.9975 19.4339 35.9975 14.3029 35.9975C13.3535 35.9975 12.6248 35.636 12.2181 34.7869C12.0771 34.4713 12.0056 34.1303 12.0084 33.7861C11.9948 30.5196 11.9987 27.2499 11.9987 23.9802ZM25.8353 12.5795H25.568C21.7982 12.5795 18.0285 12.5795 14.2591 12.5795C13.2373 12.5795 12.5919 13.1949 12.5912 14.1895C12.5886 20.728 12.5886 27.2665 12.5912 33.805C12.5912 34.7989 13.2367 35.4162 14.2584 35.4162C19.422 35.4162 24.5857 35.4162 29.7493 35.4162C29.8858 35.4208 30.0225 35.4117 30.1572 35.3891C30.9511 35.2234 31.4068 34.6238 31.4068 33.7514C31.4068 28.5961 31.4068 23.4406 31.4068 18.2849V18.009H31.1176C30.0623 18.009 29.0077 18.016 27.9549 18.009C27.5045 18.0068 27.0667 17.8637 26.7058 17.6007C26.345 17.3376 26.0801 16.9686 25.9501 16.5477C25.8767 16.2829 25.8411 16.0095 25.8443 15.7352C25.8307 14.694 25.8378 13.6585 25.8378 12.5814L25.8353 12.5795ZM26.4459 13.0721C26.4414 13.0814 26.4385 13.0914 26.4375 13.1017C26.4375 13.9968 26.4652 14.8931 26.4265 15.7868C26.3903 16.6447 27.0281 17.4535 28.1143 17.4371C28.9831 17.4245 29.8526 17.4371 30.7213 17.4371H30.915L26.4459 13.0721Z" fill="white"/>
<path d="M20.6994 24.4443C20.1023 24.4443 19.5324 24.4443 18.9631 24.4443C18.3938 24.4443 18.1963 24.2553 18.1956 23.6934C18.1956 23.3243 18.1924 22.9546 18.1956 22.5855C18.2002 22.1307 18.4132 21.9223 18.8753 21.9204C19.4704 21.9204 20.0655 21.9204 20.7026 21.9204V21.6136C20.7026 21.1185 20.6981 20.6235 20.7026 20.1284C20.7026 19.6969 20.9298 19.4771 21.3713 19.4758C21.7986 19.4758 22.2254 19.4758 22.6519 19.4758C23.0637 19.4758 23.2973 19.7007 23.3012 20.1007C23.3057 20.6972 23.3012 21.2936 23.3012 21.9273H23.5426C24.0899 21.9273 24.6398 21.9197 25.1853 21.9235C25.5512 21.9235 25.7849 22.1282 25.7984 22.4822C25.8159 22.9452 25.8152 23.4094 25.7984 23.873C25.7862 24.2402 25.5506 24.4398 25.1446 24.4493C24.6379 24.4587 24.1299 24.4493 23.6226 24.4493H23.2941V24.7126C23.2941 25.2234 23.2992 25.7342 23.2941 26.2451C23.2941 26.652 23.0701 26.8749 22.6577 26.8787C22.214 26.8833 21.771 26.8833 21.3287 26.8787C20.9175 26.8737 20.6974 26.6507 20.6955 26.2413C20.6955 25.7305 20.6955 25.2196 20.6955 24.7088L20.6994 24.4443ZM25.1975 22.4917C24.5521 22.4917 23.9408 22.4917 23.3296 22.4917C22.9533 22.4917 22.7241 22.2775 22.7158 21.9122C22.7054 21.4713 22.7119 21.0304 22.7112 20.5894V20.0616H21.2796V20.3413C21.2796 20.8452 21.2887 21.3491 21.2861 21.8492C21.2861 22.2756 21.0653 22.486 20.6348 22.4898H18.8133V23.8686H20.3366C21.1718 23.8686 21.2887 23.9813 21.2887 24.7882V26.2999H22.7087C22.7087 25.7053 22.7087 25.1258 22.7087 24.5463C22.7087 24.0796 22.9242 23.8679 23.3986 23.866C23.9221 23.866 24.4449 23.866 24.9684 23.866H25.1936L25.1975 22.4917Z" fill="white"/>
<path d="M22.0033 29.1047H28.6921C29.0239 29.1047 29.1827 29.1961 29.1904 29.3894C29.1981 29.5828 29.031 29.6905 28.6857 29.6905H15.308C14.9737 29.6905 14.8168 29.6011 14.8104 29.4071C14.8039 29.2131 14.9704 29.1047 15.3145 29.1047H22.0033Z" fill="white"/>
<path d="M21.8825 31.8334H28.4015C28.4738 31.829 28.5462 31.829 28.6184 31.8334C28.7908 31.8554 28.9063 31.943 28.9056 32.1225C28.905 32.302 28.7895 32.3895 28.6145 32.4047C28.5345 32.4122 28.4538 32.4103 28.3738 32.4103H15.355C15.2588 32.4103 15.1433 32.4349 15.0704 32.3927C14.9664 32.3297 14.827 32.222 14.8251 32.1313C14.8232 32.0406 14.9542 31.9184 15.0516 31.8472C15.1104 31.805 15.2227 31.8302 15.3098 31.8302L21.8825 31.8334Z" fill="white"/>
<path d="M19.3433 15.5683H15.3112C15.2305 15.5683 15.1305 15.5935 15.0743 15.5564C14.9723 15.4896 14.8303 15.3869 14.8284 15.2956C14.8265 15.2043 14.9575 15.089 15.0517 15.0103C15.095 14.9744 15.1911 14.9977 15.2634 14.9977H23.4484C23.513 14.9934 23.5778 14.9949 23.642 15.0021C23.8047 15.0323 23.9254 15.1375 23.8847 15.2937C23.8576 15.397 23.7376 15.4902 23.6369 15.557C23.5814 15.5942 23.4807 15.5683 23.4 15.5683H19.3433Z" fill="white"/>
<path d="M18.2803 16.8821C19.3018 16.8821 20.3238 16.8821 21.3462 16.8821C21.6044 16.8821 21.7438 17.0018 21.716 17.2021C21.6883 17.4024 21.5514 17.454 21.3701 17.4502C20.7827 17.4502 20.1953 17.4502 19.608 17.4502H15.3112C15.2305 17.4502 15.1305 17.4767 15.0743 17.4395C14.9723 17.3765 14.831 17.2701 14.8284 17.1794C14.8258 17.0887 14.9575 16.9728 15.0511 16.8941C15.0943 16.8581 15.1912 16.8821 15.2634 16.8821H18.2803Z" fill="white"/>
</g>
<defs>
<clipPath id="clip0_67_1756">
<rect width="20" height="24" fill="white" transform="translate(12 12)"/>
</clipPath>
</defs>
</svg>
