<svg width="96" height="96" viewBox="0 0 96 96" fill="none" xmlns="http://www.w3.org/2000/svg">
<rect width="96" height="96" rx="48" fill="#0E0E0F" fill-opacity="0.0509804"/>
<g clip-path="url(#clip0_315_23)">
<path d="M44.5365 29.5C44.9392 29.5579 45.3438 29.605 45.7438 29.6747C49.2788 30.2965 52.231 31.9566 54.5415 34.7046C56.2748 36.7425 57.3889 39.2337 57.7525 41.8843C58.2548 45.4425 57.5236 48.7436 55.5995 51.7804C55.5751 51.8202 55.557 51.8646 55.5271 51.9252C55.6176 52.0157 55.7081 52.1162 55.7986 52.2076C58.8721 55.2851 61.9458 58.3599 65.0199 61.432C66.0887 62.5028 66.2932 63.8361 65.5909 65.0852C64.7764 66.5335 62.7374 66.9571 61.4188 65.9515C61.2193 65.7961 61.0304 65.6276 60.8531 65.4473C57.802 62.4006 54.7551 59.3532 51.7124 56.3052C51.6401 56.2261 51.5739 56.1417 51.5142 56.0527C50.5748 56.518 49.7359 56.9959 48.8516 57.3598C46.5495 58.3126 44.0345 58.6326 41.5671 58.2866C38.9481 57.9364 36.4747 56.8761 34.415 55.2206C32.3554 53.5651 30.7879 51.3775 29.8824 48.8947C29.4518 47.7455 29.1779 46.5435 29.0679 45.3212C29.0529 45.227 29.0308 45.1341 29.0018 45.0433V42.8709C29.076 42.3858 29.1358 41.8979 29.2253 41.4155C29.6887 38.9055 30.7223 36.6516 32.3667 34.7019C34.6799 31.9584 37.6294 30.2974 41.1626 29.6756C41.5626 29.6059 41.9671 29.5588 42.3699 29.5009L44.5365 29.5ZM56.4412 44.397C56.6846 37.5749 51.3948 31.1501 43.6804 30.9627C37.0275 30.8016 30.658 36.0099 30.467 43.7308C30.3023 50.3846 35.5134 56.7497 43.2333 56.9461C49.9802 57.1199 56.1606 51.7831 56.4412 44.397ZM55.7723 58.3047C55.7669 58.2993 55.8221 58.3627 55.8809 58.4215C57.9058 60.4454 59.9306 62.4694 61.9555 64.4933C62.0477 64.588 62.1463 64.6763 62.2505 64.7576C62.5044 64.9547 62.8185 65.0583 63.1398 65.0507C63.4612 65.0431 63.7701 64.9249 64.0144 64.7159C64.7176 64.1285 64.7384 63.2107 64.0325 62.5046C61.9811 60.4409 59.9234 58.3817 57.8593 56.327C57.8177 56.2853 57.7688 56.25 57.7933 56.2699L55.7723 58.3047ZM52.8039 55.1711L54.7642 57.1235L56.6756 55.2616L54.6981 53.2811C54.0646 53.9147 53.4021 54.5746 52.8039 55.1711Z" fill="black"/>
<path d="M55.0121 43.958C55.0121 50.3348 49.8046 55.5295 43.4278 55.5159C37.0511 55.5023 31.8915 50.3122 31.8915 43.9508C31.8915 37.5739 37.099 32.3793 43.4758 32.3928C49.8526 32.4064 55.0148 37.5966 55.0121 43.958ZM53.5478 44.3327C53.7723 39.1127 49.7467 34.1145 43.8306 33.8574C38.6113 33.6311 33.6138 37.659 33.3568 43.576C33.1305 48.7961 37.1579 53.7943 43.074 54.0514C48.2923 54.2777 53.2881 50.247 53.5478 44.3327Z" fill="black"/>
<path d="M43.7781 35.2868C47.066 35.3302 50.3033 37.6103 51.5024 40.7259C51.6835 41.1911 51.5513 41.5939 51.1676 41.7659C50.7576 41.9469 50.373 41.7794 50.1639 41.2843C49.3892 39.4469 48.092 38.1244 46.2723 37.317C45.4527 36.9656 44.5752 36.7683 43.684 36.735C43.5754 36.7296 43.4668 36.735 43.36 36.7169C43.1856 36.6938 43.0259 36.6076 42.9109 36.4745C42.796 36.3414 42.7339 36.1707 42.7365 35.9948C42.7391 35.819 42.8061 35.6502 42.9249 35.5205C43.0436 35.3908 43.2059 35.3093 43.3808 35.2913C43.5131 35.283 43.6457 35.2815 43.7781 35.2868Z" fill="black"/>
<path d="M52.1197 43.9581C52.1185 44.1008 52.0749 44.2401 51.9943 44.3579C51.9138 44.4758 51.7999 44.567 51.6673 44.6199C51.5347 44.6728 51.3893 44.685 51.2498 44.6549C51.1102 44.6248 50.9828 44.5539 50.8837 44.4511C50.7846 44.3483 50.7184 44.2183 50.6935 44.0777C50.6686 43.9371 50.6862 43.7922 50.7439 43.6616C50.8017 43.5311 50.897 43.4206 51.0177 43.3445C51.1385 43.2683 51.2792 43.2298 51.4219 43.2339C51.6093 43.2407 51.7868 43.32 51.917 43.4551C52.0471 43.5902 52.1198 43.7705 52.1197 43.9581Z" fill="black"/>
</g>
<defs>
<clipPath id="clip0_315_23">
<rect width="37" height="37" fill="white" transform="translate(29 29.5)"/>
</clipPath>
</defs>
</svg>
