<svg width="48" height="48" viewBox="0 0 48 48" fill="none" xmlns="http://www.w3.org/2000/svg">
<rect width="48" height="48" rx="10" fill="#1A80E7"/>
<g clip-path="url(#clip0_67_1741)">
<path d="M39.0007 18.5894C38.7893 19.0017 38.4884 19.2049 38.0142 19.0861C37.9585 19.0718 37.8507 19.1498 37.8112 19.2135C37.6703 19.4425 37.6428 19.6279 37.924 19.8211C38.2763 20.063 38.296 20.5411 38.0043 20.856C37.6125 21.2783 37.2073 21.6884 36.793 22.0877C36.4844 22.3848 36.0447 22.3461 35.7628 22.0212C35.6881 21.9353 35.6219 21.8401 35.543 21.7349C35.4654 21.7762 35.3842 21.8102 35.3006 21.8365C35.0589 21.8881 35.0138 22.0226 35.0582 22.2602C35.1385 22.6896 34.8397 23.0582 34.4113 23.094C34.2647 23.1069 34.1168 23.094 33.9336 23.094V23.4354C33.9336 25.1053 33.9336 26.7753 33.9336 28.4452C33.9397 28.5254 33.9373 28.606 33.9265 28.6857C33.8793 28.9004 33.7426 29.0364 33.5185 29.0249C33.2944 29.0135 33.1662 28.8818 33.1444 28.6528C33.1373 28.564 33.1401 28.4746 33.1401 28.3851C33.1401 26.7333 33.1401 25.0815 33.1401 23.4297V23.099C32.9795 23.099 32.8414 23.1055 32.7047 23.099C32.2184 23.0704 31.9253 22.6925 32.0085 22.2023C32.031 22.0713 32.0951 21.9353 31.8929 21.8881C31.7125 21.8458 31.5554 21.634 31.363 21.9289C31.0635 22.3883 30.5879 22.4069 30.1982 22.0162C29.8586 21.6791 29.5253 21.3355 29.1906 20.9942C28.7304 20.5247 28.7607 20.1053 29.2822 19.6973C29.3237 19.6651 29.3611 19.6258 29.409 19.5878C29.3845 19.5304 29.3631 19.4716 29.3449 19.4118C29.2744 19.1441 29.1546 19.0382 28.8446 19.1026C28.4521 19.1842 28.0913 18.8564 28.0779 18.4434C28.0589 17.8458 28.061 17.2468 28.0779 16.6492C28.0875 16.4686 28.1649 16.2987 28.2941 16.1743C28.4234 16.0499 28.5947 15.9807 28.7727 15.9807C28.9031 15.9807 29.0334 16.0058 29.1645 16.0144C29.1772 16.0125 29.1893 16.0077 29.1998 16.0002C29.2103 15.9927 29.219 15.9829 29.2251 15.9714C29.2878 15.8283 29.3456 15.6766 29.3844 15.5807C29.2033 15.3259 29.0475 15.0976 28.8777 14.8807C28.8446 14.8385 28.7544 14.827 28.6903 14.827C25.5691 14.8242 22.4485 14.8242 19.3283 14.827C18.9443 14.827 18.6526 15.0654 18.6476 15.4268C18.6321 16.5769 18.642 17.727 18.642 18.8571C19.1 18.9115 19.5496 18.9215 19.9808 19.0224C20.8303 19.2239 21.5898 19.7066 22.1397 20.3944C22.6896 21.0822 22.9988 21.9362 23.0186 22.822C23.0355 23.6766 23.0566 24.5397 22.9537 25.3864C22.8058 26.6095 22.1948 27.6157 21.2541 28.398C21.0885 28.5361 20.9997 28.6664 21.0209 28.8882C21.042 29.1101 21.0251 29.3177 21.0251 29.5739C21.1752 29.5739 21.3105 29.5739 21.4479 29.5739C22.0962 29.5825 22.7459 29.5331 23.3829 29.7277C24.1336 29.9542 24.7958 30.4133 25.2769 31.041C25.7579 31.6687 26.0336 32.4334 26.0655 33.2282C26.088 33.8723 26.0535 34.5236 26.045 35.1842H27.3324V34.8922C27.3324 33.624 27.3275 32.3565 27.3373 31.0883C27.3373 30.8929 27.2782 30.7927 27.1126 30.6932C26.0429 30.0491 25.4764 29.0901 25.4919 27.8304C25.5074 26.5708 26.0901 25.6175 27.1675 24.9913C27.7207 24.67 28.178 24.9484 28.1822 25.5932C28.1822 26.1987 28.1822 26.8041 28.1822 27.4297H29.2293V27.1434C29.2293 26.6252 29.2293 26.1078 29.2293 25.5896C29.2343 24.9455 29.6859 24.6728 30.2412 24.997C31.3179 25.6261 31.9049 26.5873 31.9147 27.8419C31.9246 29.0965 31.356 30.0491 30.3011 30.6932C30.1376 30.7934 30.0707 30.8872 30.0721 31.0847C30.0812 32.3615 30.0763 33.6383 30.077 34.9151C30.077 35.0024 30.0848 35.089 30.0897 35.2014H31.363C31.697 35.2014 32.031 35.2014 32.3657 35.2014C32.8822 35.2014 33.1408 34.938 33.1408 34.4091C33.1408 33.1323 33.1408 31.8555 33.1408 30.5787C33.1408 30.5071 33.1408 30.4356 33.1408 30.364C33.1542 30.1049 33.2973 29.9518 33.5263 29.9482C33.5793 29.9447 33.6324 29.9526 33.6822 29.9713C33.732 29.99 33.7774 30.0192 33.8155 30.0568C33.8535 30.0944 33.8834 30.1397 33.9031 30.1898C33.9228 30.2399 33.932 30.2936 33.93 30.3475C33.9343 31.7846 33.9505 33.2225 33.9223 34.6596C33.9075 35.4039 33.2416 36.0015 32.5017 36.0015C26.1129 36.0015 19.7222 36.0015 13.3296 36.0015C13.1532 36.0053 12.9779 35.9727 12.8142 35.9057C12.6506 35.8386 12.5021 35.7384 12.3777 35.6112C12.2533 35.484 12.1557 35.3325 12.0908 35.1659C12.0259 34.9992 11.995 34.8208 12 34.6417C12.0127 33.9217 12 33.1903 12.1205 32.486C12.2001 32.0222 12.4813 31.5878 12.7039 31.1584C12.8188 30.9373 13.0668 30.9072 13.2528 31.0317C13.2984 31.0598 13.3377 31.0972 13.3681 31.1416C13.3986 31.186 13.4196 31.2364 13.4297 31.2895C13.4399 31.3426 13.439 31.3973 13.4271 31.45C13.4152 31.5027 13.3925 31.5524 13.3607 31.5957C12.8674 32.2928 12.7469 33.0779 12.7828 33.9088C12.792 34.1235 12.7828 34.3382 12.7828 34.5529C12.7892 34.9773 13.002 35.1971 13.417 35.1971C13.725 35.1971 14.0322 35.1971 14.3401 35.1971H24.5202C25.0839 35.1971 25.265 35.0181 25.2586 34.4456C25.2523 33.911 25.2903 33.3649 25.2009 32.8432C24.9556 31.4175 23.8317 30.4592 22.3823 30.3876C21.9094 30.364 21.4338 30.3876 20.9511 30.3876C20.8581 30.5565 20.7785 30.7347 20.6693 30.8936C20.4711 31.1873 20.2002 31.4226 19.8838 31.5758C19.5674 31.729 19.2168 31.7947 18.8675 31.7663C18.5181 31.7378 18.1823 31.6162 17.894 31.4137C17.6057 31.2112 17.3752 30.935 17.2256 30.6131C17.1383 30.4255 17.041 30.3683 16.8508 30.3805C16.2469 30.4198 15.6416 30.4291 15.0398 30.4857C14.8284 30.505 14.6255 30.6209 14.4226 30.7004C14.1548 30.8077 13.9427 30.7483 13.8384 30.5257C13.7341 30.3032 13.8208 30.0963 14.0843 29.9632C14.5652 29.72 15.0932 29.5882 15.6303 29.5775C16.0778 29.5703 16.5252 29.5775 17.0143 29.5775C17.0143 29.2561 17.022 28.9484 17.0072 28.6413C17.0072 28.5791 16.9269 28.5111 16.8663 28.4631C15.6641 27.4669 15.0342 26.1779 15.0173 24.6063C15.0074 23.8054 14.9835 22.9895 15.1131 22.2051C15.3569 20.7294 16.2405 19.7252 17.6083 19.1706C17.8006 19.0926 17.8479 18.9981 17.8457 18.8013C17.8359 17.7392 17.869 16.6757 17.8323 15.6143C17.8035 14.7605 18.4165 13.9926 19.4354 13.9968C22.6268 14.0104 25.8174 13.9968 29.0088 14.0054C29.0991 14.0119 29.1898 13.9971 29.2736 13.9622C29.3574 13.9273 29.4322 13.8733 29.4922 13.8043C29.7233 13.5474 29.9706 13.3033 30.2172 13.0636C30.5872 12.7 31.029 12.7387 31.3553 13.1495C31.4159 13.226 31.5145 13.342 31.5779 13.332C31.7312 13.2974 31.8769 13.2346 32.0078 13.1466C32.0381 13.128 32.0226 13.0135 32.012 12.9462C31.9197 12.3737 32.217 12.0044 32.7836 12.0029C33.293 12.0029 33.8032 12.0029 34.3134 12.0029C34.8235 12.0029 35.1258 12.3715 35.0525 12.8782C35.0096 13.1781 35.0096 13.1781 35.5458 13.3542C35.6099 13.2704 35.6754 13.1781 35.748 13.0908C36.0221 12.7616 36.4682 12.71 36.7775 13.0042C37.2003 13.4071 37.6125 13.8229 38.0078 14.2545C38.3108 14.5851 38.239 15.0375 37.8775 15.3338C37.8007 15.3975 37.6759 15.4905 37.6844 15.5542C37.7157 15.7107 37.7739 15.8605 37.8563 15.9965C37.8725 16.0266 37.9733 16.0308 38.0283 16.0165C38.487 15.9013 38.7858 16.1081 38.995 16.501L39.0007 18.5894ZM37.3095 20.3658C37.2792 20.3386 37.2348 20.2942 37.1876 20.2584C36.8106 19.9535 36.7409 19.6687 36.9311 19.2278C36.9981 19.0725 37.0566 18.9144 37.1193 18.7576C37.2771 18.3626 37.5491 18.2051 37.9712 18.2566C38.047 18.2609 38.123 18.2609 38.1988 18.2566V16.8253C38.1333 16.8303 38.0811 16.8303 38.0304 16.8389C37.559 16.9183 37.2785 16.7551 37.1045 16.3028C37.034 16.1203 36.9537 15.945 36.8846 15.7596C36.8252 15.619 36.812 15.4626 36.8472 15.3137C36.8824 15.1649 36.964 15.0316 37.0798 14.9337C37.1608 14.8621 37.2475 14.7905 37.2975 14.7498L36.2934 13.7306L36.1962 13.8523C35.9009 14.228 35.6177 14.2946 35.1773 14.0978C35.0089 14.0262 34.8355 13.9589 34.6671 13.8831C34.5101 13.8206 34.3796 13.7043 34.2981 13.5544C34.2166 13.4045 34.1894 13.2304 34.2211 13.0622C34.233 12.9849 34.2464 12.9083 34.2605 12.8217H32.8357C32.8321 12.8896 32.8321 12.9577 32.8357 13.0257C32.8886 13.5087 32.7427 13.7528 32.2903 13.931C32.2086 13.9632 32.1268 13.994 32.0465 14.0291C31.3898 14.3153 31.2333 14.2795 30.7781 13.7349C30.7493 13.7192 30.7683 13.7227 30.7781 13.7349L29.7663 14.7498L29.8917 14.8485C30.2539 15.1348 30.3279 15.4318 30.1454 15.8576C30.0749 16.0294 30.0044 16.2033 29.934 16.3751C29.7782 16.748 29.4802 16.9147 29.0884 16.8496C29.0222 16.8389 28.9559 16.8338 28.877 16.8253V18.2688C28.932 18.2688 28.9742 18.2688 29.0179 18.2688C29.6035 18.2187 29.7846 18.3332 29.9911 18.885C30.0157 18.9516 30.0439 19.0167 30.0721 19.0818C30.3539 19.7317 30.3117 19.9063 29.7592 20.3586C29.7494 20.3665 29.7494 20.3865 29.7592 20.3443L30.7697 21.3835L30.8535 21.274C31.1601 20.8746 31.4384 20.8024 31.8866 21.0042C31.957 21.0371 32.0275 21.0758 32.1022 21.1044C32.8068 21.3971 32.8484 21.4579 32.8237 22.2266C32.8237 22.2409 32.8364 22.2559 32.847 22.2795H34.2373C34.2409 22.2319 34.2409 22.184 34.2373 22.1364C34.1562 21.6204 34.3077 21.3491 34.7911 21.1652C34.8651 21.1366 34.9391 21.1094 35.0117 21.0779C35.691 20.7809 35.8199 20.8117 36.2941 21.3792C36.3033 21.3899 36.3237 21.3914 36.3026 21.3835L37.3095 20.3658ZM15.8311 23.7496C15.8311 24.0444 15.8361 24.2935 15.8311 24.5426C15.8058 25.591 16.1616 26.4971 16.8177 27.293C18.0254 28.7608 19.8772 28.8031 21.1512 27.3975C22.0863 26.3661 22.3491 25.1359 22.2082 23.7474H21.9264C21.0808 23.7474 20.2352 23.7381 19.3946 23.7474C18.6237 23.7589 17.8626 23.7474 17.1805 23.2608C16.831 23.7031 16.3617 23.7753 15.8297 23.7496H15.8311ZM30.0284 25.7972C30.0284 26.4263 30.0284 26.9859 30.0284 27.5449C30.0284 28.0223 29.7846 28.2663 29.3111 28.2713C28.8981 28.2763 28.4852 28.277 28.0723 28.2713C27.6114 28.2649 27.3747 28.0294 27.3676 27.5599C27.3592 27.0783 27.3676 26.5966 27.3676 26.1149C27.3676 26.0319 27.3578 25.9489 27.3507 25.833C27.2803 25.8788 27.2443 25.8995 27.2098 25.9253C25.7632 27.0568 26.0478 29.352 27.7369 30.1042C28.0321 30.2352 28.1413 30.4177 28.1385 30.7376C28.1273 32.1031 28.1336 33.4679 28.1336 34.8328V35.1255H29.261V34.7848C29.261 33.4558 29.2695 32.126 29.2554 30.797C29.2554 30.4391 29.366 30.238 29.7028 30.0813C30.5216 29.7027 31.0001 29.0328 31.0938 28.1174C31.1889 27.1713 30.8239 26.4205 30.027 25.7972H30.0284ZM15.8262 22.9237C16.1285 22.9365 16.3899 22.9838 16.5731 22.7333C16.9191 22.2667 17.0664 22.2323 17.5526 22.5508C17.9437 22.8111 18.4028 22.946 18.8703 22.938C19.8899 22.9258 20.9095 22.9344 21.9299 22.9344H22.2427C22.1631 21.737 21.6875 20.8045 20.6974 20.1976C19.5749 19.5105 18.4193 19.5191 17.3151 20.2277C16.3568 20.8374 15.8734 21.7485 15.8262 22.9237ZM17.8373 29.0149C17.8373 29.3112 17.8281 29.5603 17.8373 29.8079C17.8502 30.1002 17.9669 30.3778 18.1657 30.5895C18.3645 30.8012 18.6321 30.9326 18.9189 30.9594C19.4537 31.0231 20.0344 30.6488 20.1612 30.1006C20.2387 29.7635 20.2204 29.4035 20.2479 29.0128C19.4213 29.3076 18.6483 29.3212 17.8373 29.0149Z" fill="white"/>
<path d="M23.6802 16.8317C22.8732 16.8317 22.0661 16.8317 21.259 16.8317C20.9356 16.8317 20.7489 16.6764 20.7552 16.423C20.7616 16.1697 20.9462 16.0229 21.2738 16.0229C22.8875 16.0229 24.5016 16.0229 26.1162 16.0229C26.4417 16.0229 26.6186 16.1747 26.6144 16.4388C26.6101 16.7029 26.4495 16.8302 26.1282 16.8317C25.3108 16.8331 24.4962 16.8317 23.6802 16.8317Z" fill="white"/>
<path d="M24.4328 18.5864C23.8613 18.5864 23.2899 18.5864 22.7184 18.5864C22.4161 18.5864 22.2329 18.4297 22.2322 18.182C22.2315 17.9344 22.4133 17.782 22.7191 17.7812C23.862 17.7812 25.0047 17.7812 26.1472 17.7812C26.4572 17.7812 26.6228 17.9344 26.6151 18.1949C26.6073 18.439 26.4375 18.5843 26.1465 18.5857C25.575 18.5878 25.0043 18.5864 24.4328 18.5864Z" fill="white"/>
<path d="M24.9402 20.3436C24.5533 20.3436 24.1651 20.3479 23.7796 20.3436C23.4787 20.3393 23.292 20.179 23.2864 19.9364C23.2807 19.6937 23.4696 19.5227 23.7691 19.5213C24.5597 19.516 25.3505 19.516 26.1416 19.5213C26.4495 19.5213 26.6172 19.683 26.6123 19.9407C26.6074 20.1983 26.4369 20.34 26.124 20.3436C25.7336 20.3472 25.3355 20.3436 24.9402 20.3436Z" fill="white"/>
<path d="M25.3573 21.8515C25.1036 21.8515 24.8493 21.8515 24.5949 21.8515C24.3095 21.8458 24.1362 21.6948 24.1291 21.4543C24.1221 21.2139 24.2884 21.045 24.5738 21.0414C25.1083 21.0347 25.6429 21.0347 26.1775 21.0414C26.4594 21.0457 26.6095 21.1902 26.6144 21.4322C26.6193 21.6741 26.4523 21.8437 26.1726 21.8508C25.8929 21.858 25.6293 21.8515 25.3573 21.8515Z" fill="white"/>
<path d="M33.5439 15.2099C34.1487 15.2213 34.7249 15.4736 35.1483 15.9123C35.5718 16.351 35.8086 16.9411 35.8079 17.5555C35.8071 18.1699 35.5689 18.7594 35.1444 19.1971C34.7198 19.6347 34.1431 19.8856 33.5383 19.8955C33.232 19.9006 32.9277 19.8436 32.6433 19.7279C32.3589 19.6123 32.1001 19.4402 31.8818 19.2219C31.6636 19.0035 31.4904 18.7432 31.3722 18.4561C31.2541 18.169 31.1935 17.8609 31.1938 17.5498C31.1942 17.2386 31.2556 16.9307 31.3744 16.6439C31.4932 16.3571 31.6671 16.0972 31.8859 15.8794C32.1046 15.6616 32.3639 15.4902 32.6486 15.3752C32.9332 15.2603 33.2376 15.2041 33.5439 15.2099ZM33.1289 16.098C32.463 16.2483 32.0169 16.8703 32.0303 17.6082C32.043 18.273 32.5271 18.8907 33.1289 18.9966V16.098ZM33.9484 16.1045V19.003C34.6107 18.8406 35.0688 18.2036 35.0455 17.4915C35.0244 16.8252 34.5417 16.2161 33.9484 16.1045Z" fill="white"/>
</g>
<defs>
<clipPath id="clip0_67_1741">
<rect width="27" height="24" fill="white" transform="translate(12 12)"/>
</clipPath>
</defs>
</svg>
