<svg width="96" height="96" viewBox="0 0 96 96" fill="none" xmlns="http://www.w3.org/2000/svg">
<rect width="96" height="96" rx="48" fill="#0E0E0F" fill-opacity="0.0509804"/>
<g clip-path="url(#clip0_315_27)">
<path d="M58.5322 29.5001C58.7642 29.5812 59.001 29.6497 59.2263 29.7453C59.6041 29.9067 59.9468 30.1423 60.2348 30.4384C60.5228 30.7346 60.7503 31.0854 60.9045 31.471C61.0586 31.8566 61.1363 32.2692 61.1331 32.6853C61.1299 33.1013 61.0458 33.5127 60.8857 33.8957L60.7336 34.2673C61.0873 34.306 61.422 34.3088 61.7415 34.3832C63.1014 34.7007 63.9857 35.858 63.9952 37.329C64.0047 38.9062 63.9952 40.4834 63.9952 42.0586C63.9952 46.61 63.9952 51.1617 63.9952 55.7137C63.9952 57.2127 63.1556 58.3719 61.8081 58.7136C61.4965 58.7873 61.1771 58.8219 60.8572 58.8169C57.3819 58.8246 53.9059 58.8246 50.4293 58.8169H49.9481L50.7802 62.3882C51.3745 62.3882 51.9641 62.3805 52.5546 62.3882C53.6577 62.4056 54.524 63.1276 54.7227 64.2058C54.7693 64.4625 54.7551 64.7308 54.7712 65.0426H56.5371C56.7149 65.0426 56.8947 65.0339 57.0715 65.0484C57.2488 65.0632 57.4141 65.1451 57.5346 65.2779C57.6551 65.4106 57.722 65.5845 57.722 65.7651C57.722 65.9456 57.6551 66.1195 57.5346 66.2523C57.4141 66.3851 57.2488 66.467 57.0715 66.4818C57.0012 66.4885 56.9289 66.4818 56.8576 66.4818C50.6176 66.4818 44.3776 66.4847 38.1376 66.4904C37.5557 66.4904 37.2552 66.086 37.2818 65.7057C37.3084 65.3254 37.6137 65.0455 38.0302 65.0407C38.7415 65.033 39.4566 65.033 40.165 65.0291C40.1745 65.0291 40.185 65.0185 40.2211 64.9982C40.2201 64.7313 40.2363 64.4647 40.2696 64.2C40.4665 63.1266 41.3394 62.4017 42.4396 62.3844C43.0197 62.3757 43.5998 62.3844 44.2103 62.3844C44.487 61.2049 44.7599 60.0418 45.048 58.813H44.5982C41.0747 58.813 37.5512 58.813 34.0277 58.813C32.5795 58.813 31.446 57.954 31.1074 56.593C31.0353 56.2893 31.0005 55.9778 31.0038 55.6654C30.9981 49.5845 30.9981 43.5036 31.0038 37.4227C31.0038 35.525 32.2267 34.2895 34.1076 34.2886C40.3235 34.2886 46.5397 34.2905 52.7562 34.2944C53.0615 34.2944 53.2488 34.2143 53.4219 33.944C54.0362 32.973 54.6885 32.0261 55.3104 31.0589C55.8135 30.2771 56.4782 29.7433 57.3901 29.5503C57.4196 29.5445 57.4424 29.5088 57.469 29.4875L58.5322 29.5001ZM62.5451 51.0439V37.497C62.5451 37.3648 62.5451 37.2325 62.5337 37.1003C62.5102 36.7487 62.3586 36.4187 62.1084 36.1744C61.8583 35.9301 61.5275 35.7891 61.1805 35.7789C60.7773 35.7673 60.3722 35.7992 59.9709 35.7683C59.6505 35.7432 59.4527 35.8648 59.2568 36.1138C57.346 38.4947 55.4283 40.8676 53.5037 43.2324C53.1956 43.6098 52.9331 43.9534 53.1756 44.4698C53.2336 44.5933 53.2184 44.7536 53.2298 44.8974C53.3677 46.7207 52.2789 48.3326 50.6128 48.6714C49.9719 48.8008 49.2911 48.7757 48.6321 48.7467C47.5604 48.6994 46.559 48.793 45.7156 49.5835C45.3105 49.9629 44.7238 49.7438 44.5745 49.1868C44.2122 47.822 43.9972 46.4446 44.1446 45.0171C44.3966 42.5683 46.1815 40.8492 48.614 40.7826C48.712 40.7868 48.8092 40.7632 48.8947 40.7144C48.9802 40.6657 49.0506 40.5937 49.098 40.5066C50.0594 39.0317 51.0312 37.5646 51.9993 36.0955C52.0563 36.0086 52.1048 35.9169 52.1895 35.775H51.754C45.8706 35.775 39.9872 35.7895 34.1048 35.7606C33.1538 35.7606 32.4321 36.3879 32.4397 37.4574C32.4692 41.8511 32.4521 46.241 32.4521 50.6405C32.4521 50.7679 32.4635 50.8943 32.4701 51.0468C32.9209 51.0468 33.3336 51.0468 33.7472 51.0468C34.0197 51.0368 34.2925 51.0442 34.5641 51.069C34.7372 51.0883 34.8968 51.173 35.0113 51.3062C35.1258 51.4394 35.1868 51.6114 35.1822 51.7881C35.1866 51.9647 35.1244 52.1364 35.0083 52.2679C34.8921 52.3994 34.7308 52.4809 34.5574 52.4956C34.2978 52.518 34.0371 52.5254 33.7767 52.5178C33.3431 52.5178 32.9094 52.5178 32.4692 52.5178C32.4692 53.7572 32.4463 54.9357 32.4787 56.1133C32.4948 56.7108 33.035 57.2368 33.6198 57.3227C33.8314 57.3496 34.0446 57.3616 34.2579 57.3584H60.7326C60.8277 57.3584 60.9228 57.3584 61.0179 57.3584C61.9793 57.3227 62.5308 56.7581 62.5394 55.7851C62.5479 54.8122 62.5394 53.8112 62.5394 52.8238C62.534 52.7214 62.5235 52.6192 62.508 52.5178H61.9964C54.8441 52.5178 47.6919 52.5178 40.5397 52.5178C40.3621 52.5228 40.1845 52.5112 40.0091 52.4831C39.8555 52.4564 39.716 52.376 39.6149 52.2557C39.5138 52.1354 39.4574 51.9829 39.4556 51.8248C39.4433 51.4696 39.6059 51.2167 39.9311 51.1105C40.1141 51.0621 40.3032 51.0416 40.4921 51.0497C47.6678 51.0497 54.8438 51.0497 62.0202 51.0497L62.5451 51.0439ZM54.544 39.6543L56.1739 37.6389C57.2256 36.3358 58.2878 35.0424 59.3224 33.7259C59.4764 33.5341 59.5873 33.3105 59.6472 33.0707C59.7072 32.8309 59.7148 32.5807 59.6695 32.3376C59.6242 32.0945 59.5271 31.8643 59.385 31.6633C59.2429 31.4623 59.0593 31.2952 58.8469 31.1738C58.0443 30.7105 57.1124 30.9585 56.5571 31.7973C55.2296 33.8031 53.9056 35.8114 52.5851 37.8223C52.5347 37.8976 52.4976 37.9825 52.4472 38.0752L54.544 39.6543ZM45.7137 47.7168C46.23 47.5855 46.7036 47.405 47.1895 47.3558C47.8466 47.2882 48.5122 47.3133 49.175 47.3153C49.7684 47.3153 50.3675 47.3558 50.8943 47.0054C51.6379 46.5103 51.9508 45.5981 51.7501 44.6155C51.7264 44.4691 51.673 44.3292 51.5935 44.2046C51.514 44.08 51.41 43.9735 51.288 43.8916C50.7135 43.5073 50.1622 43.0882 49.6372 42.6368C49.1884 42.2353 48.73 42.1542 48.1699 42.2758C46.9128 42.5432 46.0455 43.2275 45.7108 44.5238C45.4293 45.6049 45.5282 46.6734 45.7137 47.7187V47.7168ZM41.6637 65.0204H53.3173C53.3762 64.1141 53.148 63.8621 52.2827 63.8621H46.5904C45.2144 63.8621 43.8384 63.8621 42.4634 63.8621C41.9471 63.8621 41.6817 64.144 41.6646 64.6662C41.6608 64.782 41.6637 64.8891 41.6637 65.0223V65.0204ZM49.3044 62.3718C49.0191 61.1585 48.7462 59.9964 48.4742 58.843H46.5239L45.6994 62.3718H49.3044ZM50.2762 41.3299L52.0896 42.6947L53.632 40.7894L51.6275 39.2817C51.1644 39.9796 50.7308 40.6369 50.2762 41.327V41.3299Z" fill="black"/>
<path d="M38.0302 51.7977C38.0286 51.9886 37.9523 52.1711 37.8181 52.305C37.7516 52.3713 37.6729 52.4236 37.5866 52.459C37.5002 52.4944 37.4078 52.5123 37.3146 52.5114C37.1265 52.5098 36.9467 52.4323 36.8148 52.2961C36.6829 52.1599 36.6098 51.9761 36.6114 51.7851C36.6131 51.5941 36.6894 51.4116 36.8236 51.2778C36.9578 51.1439 37.1388 51.0697 37.327 51.0713C37.5151 51.073 37.6949 51.1504 37.8268 51.2867C37.9587 51.4229 38.0318 51.6067 38.0302 51.7977Z" fill="black"/>
</g>
<defs>
<clipPath id="clip0_315_27">
<rect width="33" height="37" fill="white" transform="translate(31 29.5)"/>
</clipPath>
</defs>
</svg>
