<svg width="150" height="65" viewBox="0 0 150 65" fill="none" xmlns="http://www.w3.org/2000/svg">
<g clip-path="url(#clip0_69_2250)">
<path d="M149.695 6.25715C144.151 6.51728 140.215 9.57792 136.936 13.6515C134.35 16.8616 131.988 20.2462 129.394 23.4536C120.507 34.4512 106.305 35.2038 96.5588 25.0061C93.1533 21.4445 90.3634 17.3044 87.2492 13.4606C80.0699 4.60497 69.9934 4.43342 62.7124 13.1423C59.9638 16.43 57.567 20.0026 54.8624 23.3317C45.627 34.7001 31.2903 35.2148 21.3293 24.4387C18.5367 21.4195 16.107 18.0544 13.6332 14.7529C10.6757 10.8232 7.29761 7.91202 2.11923 6.93791C-1.74257 6.21009 0.984024 2.51012 0.236401 0.296219H6.21195C14.2379 3.87996 19.1661 10.6296 24.1686 17.3958C32.0571 28.0723 42.9416 28.208 50.8301 17.573C55.7391 10.9479 60.8433 4.65206 67.9979 0.296219H80.9494C88.8902 3.98789 93.8322 10.732 98.8841 17.4539C106.907 28.1221 117.594 28.1941 125.518 17.5176C130.43 10.898 135.468 4.53583 142.722 0.296219C143.053 0.33089 143.386 0.33089 143.717 0.296219C148.827 -0.814419 150.82 1.17256 149.695 6.25715Z" fill="#43E6BF"/>
<path d="M149.695 38.9757C144.269 39.5458 140.174 42.4016 136.873 46.5084C134.49 49.4695 132.28 52.5717 129.916 55.5467C120.337 67.6013 106.19 68.2185 95.7232 56.8889C92.5925 53.4988 89.9978 49.6217 87.0678 46.0407C79.9489 37.3429 69.5756 37.3734 62.5172 46.1183C60.0269 49.2039 57.7511 52.4556 55.2773 55.555C45.3466 68.0082 30.1715 68.1355 20.0127 55.8318C17.2778 52.5109 14.8343 48.9686 12.1159 45.6422C9.7741 42.7752 6.90729 40.2791 3.10321 39.9968C-0.843796 39.7035 0.313353 37.0689 0.269375 35.0156C0.20066 31.7168 2.80088 32.9677 4.21916 33.2057C11.4782 34.4261 15.9283 39.6066 20.2298 44.9255C22.6184 47.8783 24.7925 51.0441 27.4614 53.7202C33.4808 59.7641 41.8806 59.8085 47.7737 53.6704C51.5393 49.7491 54.6205 45.1857 58.2184 41.0789C67.8385 30.0399 81.0318 29.7742 91.0203 40.5254C94.6127 44.3997 97.5317 48.869 101.121 52.7323C108.097 60.2429 116.624 60.2041 123.583 52.6188C126.925 48.9741 129.63 44.7678 132.884 41.0235C137.282 35.9564 142.568 32.5028 149.709 33.0507L149.695 38.9757Z" fill="#1A80E7"/>
</g>
<defs>
<clipPath id="clip0_69_2250">
<rect width="150" height="65" fill="white"/>
</clipPath>
</defs>
</svg>
