<svg width="112" height="48" viewBox="0 0 112 48" fill="none" xmlns="http://www.w3.org/2000/svg">
<g clip-path="url(#clip0_69_2240)">
<path d="M111.772 4.6206C107.633 4.8127 104.694 7.07286 102.246 10.081C100.314 12.4516 98.5514 14.951 96.614 17.3195C89.9789 25.4408 79.3747 25.9966 72.0973 18.466C69.5545 15.8359 67.4714 12.7786 65.1461 9.94004C59.7855 3.40053 52.2618 3.27385 46.8253 9.70505C44.773 12.1328 42.9834 14.7711 40.9639 17.2295C34.0682 25.6246 23.3634 26.0047 15.9259 18.047C13.8408 15.8174 12.0266 13.3324 10.1795 10.8944C7.97122 7.99248 5.44892 5.84267 1.58239 5.12332C-1.30109 4.58585 0.734769 1.85357 0.176544 0.218688H4.63829C10.631 2.86515 14.3107 7.84949 18.0459 12.8461C23.936 20.7303 32.0631 20.8304 37.9532 12.9769C41.6186 8.08453 45.4297 3.43531 50.7718 0.218688H60.4423C66.3714 2.94485 70.0614 7.92509 73.8335 12.889C79.8242 20.7671 87.8035 20.8202 93.7203 12.936C97.3877 8.0477 101.15 3.34948 106.566 0.218688C106.813 0.244291 107.062 0.244291 107.309 0.218688C111.124 -0.601476 112.612 0.865835 111.772 4.6206Z" fill="#43E6BF"/>
<path d="M111.772 28.782C107.721 29.203 104.663 31.3119 102.198 34.3446C100.419 36.5313 98.7688 38.8222 97.0039 41.019C89.8516 49.9209 79.2885 50.3767 71.4733 42.0102C69.1357 39.5068 67.1984 36.6437 65.0106 33.9992C59.6952 27.5762 51.9498 27.5988 46.6795 34.0565C44.8201 36.3351 43.1208 38.7364 41.2737 41.0252C33.8588 50.2214 22.5281 50.3154 14.9428 41.2296C12.9008 38.7773 11.0763 36.1614 9.04655 33.705C7.29799 31.5878 5.15743 29.7445 2.31706 29.5361C-0.630043 29.3194 0.233962 27.3739 0.201125 25.8576C0.149818 23.4216 2.09132 24.3453 3.1503 24.5211C8.57042 25.4223 11.8931 29.2479 15.1049 33.1757C16.8884 35.3562 18.5117 37.6941 20.5045 39.6702C24.999 44.1334 31.2709 44.1662 35.671 39.6335C38.4826 36.7377 40.7833 33.3678 43.4697 30.3351C50.6528 22.1832 60.5038 21.9871 67.9618 29.9264C70.6441 32.7875 72.8237 36.0878 75.504 38.9407C80.7127 44.487 87.0789 44.4584 92.2754 38.8569C94.771 36.1655 96.7904 33.0592 99.2204 30.2942C102.504 26.5524 106.451 24.002 111.782 24.4066L111.772 28.782Z" fill="#1A80E7"/>
</g>
<defs>
<clipPath id="clip0_69_2240">
<rect width="112" height="48" fill="white"/>
</clipPath>
</defs>
</svg>
