<svg width="203" height="57" viewBox="0 0 203 57" fill="none" xmlns="http://www.w3.org/2000/svg">
<g clip-path="url(#clip0_67_2219)">
<path d="M76.3253 43.453C72.9082 43.453 70.2971 42.5299 68.4918 40.6836C66.0687 38.4178 64.8598 35.1546 64.8652 30.8941C64.8652 26.5473 66.0741 23.2841 68.4918 21.1045C70.2971 19.2591 72.9082 18.336 76.3253 18.3351C79.7424 18.3342 82.354 19.2573 84.1601 21.1045C86.5716 23.285 87.7769 26.5482 87.776 30.8941C87.776 35.1555 86.5707 38.4187 84.1601 40.6836C82.354 42.529 79.7424 43.4521 76.3253 43.453ZM81.0453 37.0769C82.2022 35.6262 82.7807 33.5675 82.7807 30.9007C82.7807 28.234 82.1986 26.1757 81.0345 24.7259C79.8704 23.2717 78.2998 22.5445 76.3226 22.5445C74.3454 22.5445 72.7667 23.269 71.5865 24.7179C70.4108 26.1633 69.8225 28.2242 69.8216 30.9007C69.8207 33.5772 70.4099 35.6382 71.5892 37.0835C72.7685 38.5325 74.3472 39.2569 76.3253 39.2569C78.3034 39.2569 79.8767 38.5302 81.0453 37.0769Z" fill="#00244C"/>
<path d="M99.5356 28.634C97.9685 28.634 96.894 29.2945 96.3119 30.6154C96.0102 31.3132 95.8588 32.2021 95.8579 33.2821V42.7823H91.2508V25.2753H95.7115V27.834C96.3061 26.9317 96.8685 26.2824 97.3986 25.8859C98.3496 25.1748 99.5553 24.8193 101.016 24.8193C102.843 24.8193 104.337 25.2939 105.501 26.2433C106.664 27.1926 107.246 28.7678 107.247 30.9687V42.7877H102.504V32.1181C102.504 31.1945 102.38 30.486 102.131 29.9927C101.677 29.0914 100.812 28.6385 99.5356 28.634Z" fill="#00244C"/>
<path d="M126.638 37.6409C126.518 38.6809 125.972 39.7378 125 40.8116C123.486 42.5183 121.367 43.3717 118.642 43.3717C116.46 43.3962 114.343 42.629 112.689 41.2143C110.97 39.7769 110.111 37.4369 110.111 34.1941C110.111 31.1567 110.886 28.8278 112.438 27.2073C113.99 25.5868 116.005 24.7761 118.483 24.7752C119.852 24.7543 121.209 25.0348 122.456 25.5966C123.659 26.1657 124.672 27.0653 125.376 28.1887C126.087 29.2835 126.545 30.5205 126.719 31.8114C126.839 32.6168 126.888 33.7763 126.865 35.2902H114.766C114.83 37.0502 115.387 38.2845 116.436 38.9929C117.116 39.4453 117.921 39.676 118.739 39.6529C119.69 39.6529 120.463 39.3863 121.059 38.8529C121.422 38.51 121.714 38.1001 121.918 37.6462L126.638 37.6409ZM122.065 32.2621C121.989 31.0505 121.618 30.13 120.953 29.5007C120.623 29.19 120.235 28.947 119.811 28.7854C119.386 28.6239 118.934 28.5471 118.48 28.5593C117.405 28.5593 116.575 28.8922 115.99 29.558C115.404 30.2238 115.034 31.1252 114.879 32.2621H122.065Z" fill="#00244C"/>
<path d="M144.496 33.6475V19.0604H149.572V33.6475C149.572 36.1702 149.178 38.1342 148.389 39.5396C146.918 42.1174 144.112 43.4063 139.971 43.4063C135.829 43.4063 133.018 42.1174 131.536 39.5396C130.748 38.1342 130.353 36.1702 130.352 33.6475V19.0604H135.43V33.6475C135.43 35.2795 135.624 36.4711 136.013 37.2222C136.619 38.5556 137.938 39.2222 139.971 39.2222C142.004 39.2222 143.317 38.5556 143.912 37.2222C144.301 36.4746 144.496 35.283 144.496 33.6475Z" fill="#00244C"/>
<path d="M168.776 27.126C170.204 28.6371 170.918 30.8594 170.917 33.7928C170.917 36.8835 170.217 39.2391 168.817 40.8596C167.418 42.4801 165.614 43.2903 163.407 43.2903C162.002 43.2903 160.834 42.9415 159.904 42.2437C159.315 41.7666 158.811 41.1951 158.412 40.553V49.7012H153.845V25.2433H158.277V27.834C158.704 27.1502 159.24 26.5407 159.866 26.0299C160.893 25.2468 162.115 24.8552 163.532 24.8552C165.59 24.8561 167.338 25.613 168.776 27.126ZM166.148 34.0181C166.148 32.6643 165.838 31.4674 165.216 30.4274C164.595 29.3874 163.586 28.8665 162.191 28.8647C160.515 28.8647 159.363 29.654 158.737 31.2327C158.412 32.0683 158.249 33.1306 158.25 34.4195C158.25 36.464 158.796 37.8973 159.888 38.7196C160.553 39.2077 161.364 39.4624 162.191 39.4436C163.478 39.4436 164.459 38.9498 165.136 37.9622C165.812 36.9746 166.149 35.6599 166.148 34.0181Z" fill="#00244C"/>
<path d="M188.629 37.9142H179.822L178.167 42.793H172.945L181.475 19.0591H187.117L195.579 42.793H190.162L188.629 37.9142ZM187.234 33.8248L184.249 24.4912L181.168 33.8248H187.234Z" fill="#4DFFB6"/>
<path d="M203 18.9138H198.312V42.7917H203V18.9138Z" fill="#4DFFB6"/>
<path d="M44.7986 0L31.5574 20.2938H39.3009V35.7155C39.3018 36.9567 39.0563 38.1859 38.5783 39.3328C38.1003 40.4798 37.3994 41.5219 36.5154 42.3998C35.6315 43.2776 34.5819 43.9739 33.4268 44.4489C32.2716 44.9238 31.0334 45.1681 29.7831 45.1677C28.5201 45.1693 27.2695 44.9205 26.1046 44.4358C24.9398 43.951 23.8843 43.2402 23 42.345C24.1696 44.5058 25.9074 46.3115 28.0285 47.57C30.1496 48.8284 32.5746 49.4926 35.0457 49.4918C37.0489 49.4924 39.0326 49.101 40.8834 48.3401C42.7342 47.5793 44.4158 46.4638 45.8321 45.0575C47.2484 43.6511 48.3716 41.9816 49.1376 40.1441C49.9036 38.3067 50.2973 36.3374 50.2963 34.3488V20.2938H58.4279L44.7986 0Z" fill="url(#paint0_linear_67_2219)"/>
<path d="M34.5589 51.8199C30.169 51.8199 25.9589 50.0888 22.8548 47.0073C19.7507 43.9259 18.0068 39.7466 18.0068 35.3888V18.5138C15.4735 19.6831 9.00742 23.4165 6.78847 31.8247C6.78847 25.8246 11.4292 10.4549 30.3641 12.3763L33.8739 6.9975C31.2753 6.15371 28.5582 5.72525 25.8241 5.72813C11.5622 5.72813 0 17.2057 0 31.3634C0 45.5211 11.5622 57.0013 25.8241 57.0013C29.7994 57.0045 33.7215 56.0951 37.284 54.3441C40.8465 52.5931 43.9528 50.048 46.3601 46.9078C44.8217 48.4655 42.9854 49.7024 40.9588 50.5459C38.9323 51.3894 36.7564 51.8226 34.5589 51.8199Z" fill="url(#paint1_linear_67_2219)"/>
</g>
<defs>
<linearGradient id="paint0_linear_67_2219" x1="54.2452" y1="7.2175" x2="24.7737" y2="57.0462" gradientUnits="userSpaceOnUse">
<stop offset="0.27" stop-color="#4DFFB6"/>
<stop offset="0.42" stop-color="#43E6BF"/>
<stop offset="0.73" stop-color="#2AA8D7"/>
<stop offset="0.91" stop-color="#1A80E7"/>
</linearGradient>
<linearGradient id="paint1_linear_67_2219" x1="43.2923" y1="2.09471" x2="13.8207" y2="51.9235" gradientUnits="userSpaceOnUse">
<stop offset="0.27" stop-color="#4DFFB6"/>
<stop offset="0.42" stop-color="#43E6BF"/>
<stop offset="0.73" stop-color="#2AA8D7"/>
<stop offset="0.91" stop-color="#1A80E7"/>
</linearGradient>
<clipPath id="clip0_67_2219">
<rect width="203" height="57" fill="white"/>
</clipPath>
</defs>
</svg>
