<svg width="38" height="38" viewBox="0 0 38 38" fill="none" xmlns="http://www.w3.org/2000/svg">
<path d="M11.0757 26.9243C6.98982 22.8304 3.84761 17.8934 1.86885 12.4585C0.780217 9.4871 1.77766 6.2231 4.01572 3.98503L5.40074 2.60191C5.77309 2.22881 6.21537 1.9328 6.70227 1.73084C7.18916 1.52887 7.7111 1.42491 8.23822 1.42491C8.76534 1.42491 9.28728 1.52887 9.77417 1.73084C10.2611 1.9328 10.7033 2.22881 11.0757 2.60191L14.3188 5.84502C14.6919 6.21737 14.9879 6.65965 15.1899 7.14654C15.3918 7.63344 15.4958 8.15538 15.4958 8.6825C15.4958 9.20962 15.3918 9.73156 15.1899 10.2185C14.9879 10.7053 14.6919 11.1476 14.3188 11.52L13.5209 12.3179C13.2015 12.6373 12.9481 13.0164 12.7752 13.4336C12.6024 13.8509 12.5134 14.2981 12.5134 14.7498C12.5134 15.2014 12.6024 15.6487 12.7752 16.0659C12.9481 16.4832 13.2015 16.8623 13.5209 17.1816L20.8164 24.4791C21.1357 24.7985 21.5149 25.0519 21.9321 25.2247C22.3494 25.3976 22.7966 25.4866 23.2483 25.4866C23.6999 25.4866 24.1471 25.3976 24.5644 25.2247C24.9817 25.0519 25.3608 24.7985 25.6801 24.4791L26.48 23.6811C26.8523 23.308 27.2946 23.012 27.7815 22.8101C28.2684 22.6081 28.7903 22.5041 29.3175 22.5041C29.8446 22.5041 30.3665 22.6081 30.8534 22.8101C31.3403 23.012 31.7826 23.308 32.1549 23.6811L35.398 26.9243C35.7711 27.2966 36.0671 27.7389 36.2691 28.2258C36.4711 28.7127 36.575 29.2346 36.575 29.7617C36.575 30.2889 36.4711 30.8108 36.2691 31.2977C36.0671 31.7846 35.7711 32.2269 35.398 32.5992L34.0149 33.9823C31.7769 36.2223 28.5129 37.2197 25.5414 36.1311C20.1065 34.1523 15.1695 31.0101 11.0757 26.9243Z" stroke="#1A80E7" stroke-width="2.84375" stroke-linejoin="round"/>
</svg>
